<svg width="533" height="214" viewBox="0 0 533 214" fill="none" xmlns="http://www.w3.org/2000/svg">
<path d="M388.915 213.52C367.243 213.52 350.947 207.976 340.027 196.888C329.275 185.632 323.899 170.092 323.899 150.268C323.899 130.276 329.947 114.988 342.043 104.404C354.307 93.82 369.847 88.528 388.663 88.528C426.799 88.528 445.111 107.68 443.599 145.984H372.535V155.812C372.535 172.276 374.635 184.708 378.835 193.108C383.035 201.508 390.343 205.708 400.759 205.708C420.247 205.708 433.015 195.292 439.063 174.46L443.599 175.216C440.407 187.312 434.611 196.72 426.211 203.44C417.979 210.16 405.547 213.52 388.915 213.52ZM372.787 140.944H398.743V128.596C398.743 114.988 397.903 105.748 396.223 100.876C394.711 95.836 391.519 93.316 386.647 93.316C381.943 93.316 378.415 96.004 376.063 101.38C373.879 106.588 372.787 115.66 372.787 128.596V140.944Z" fill="white"/>
<path d="M248.663 174.964V95.584H234.803V91.048H248.663V58.54L295.535 46.948V91.048H328.295V95.584H295.535V180.508C295.535 188.404 296.291 194.2 297.803 197.896C299.483 201.592 302.843 203.44 307.883 203.44C312.923 203.44 317.291 200.92 320.987 195.88C324.851 190.84 327.371 183.952 328.547 175.216L332.831 175.72C331.487 187.312 327.791 196.552 321.743 203.44C315.695 210.16 305.699 213.52 291.755 213.52C277.811 213.52 267.143 210.748 259.751 205.204C252.359 199.66 248.663 189.58 248.663 174.964Z" fill="white"/>
<path d="M205.727 73.66C196.823 73.66 190.439 71.392 186.575 66.856C182.879 62.32 181.031 56.692 181.031 49.972C181.031 43.252 183.047 37.708 187.079 33.34C191.279 28.972 197.578 26.788 205.979 26.788C214.378 26.788 220.763 28.804 225.131 32.836C229.499 36.7 231.683 42.328 231.683 49.72C231.683 56.944 229.583 62.74 225.383 67.108C221.183 71.476 214.631 73.66 205.727 73.66ZM167.674 91.048H229.415V206.464H243.527V211H168.683V206.464H182.543V95.584H167.674V91.048Z" fill="white"/>
<path d="M0 34.6H76.86V39.388H63V119.02L65.016 118.516L136.08 39.388H116.172V34.6H160.272V39.388H145.152L101.808 87.772L162.288 206.212H175.896V211H95.004V206.212H106.848L65.268 125.824L63 126.328V206.212H76.86V211H0V206.212H13.86V39.388H0V34.6Z" fill="white"/>
<path d="M482.791 0L532.7 0V49.9092L450.7 82L482.791 0Z" fill="#E20000"/>
</svg>
