<svg width="539" height="340" viewBox="0 0 539 340" fill="none" xmlns="http://www.w3.org/2000/svg">
<path d="M6.3 90.6H83.16V95.388H69.3V175.02L71.316 174.516L142.38 95.388H122.472V90.6H166.572V95.388H151.452L108.108 143.772L168.588 262.212H182.196V267H101.304V262.212H113.148L71.568 181.824L69.3 182.328V262.212H83.16V267H6.3V262.212H20.16V95.388H6.3V90.6ZM212.026 129.66C203.122 129.66 196.738 127.392 192.874 122.856C189.178 118.32 187.33 112.692 187.33 105.972C187.33 99.252 189.346 93.708 193.378 89.34C197.578 84.972 203.878 82.788 212.278 82.788C220.678 82.788 227.062 84.804 231.43 88.836C235.798 92.7 237.982 98.328 237.982 105.72C237.982 112.944 235.882 118.74 231.682 123.108C227.482 127.476 220.93 129.66 212.026 129.66ZM173.974 147.048H235.714V262.464H249.826V267H174.982V262.464H188.842V151.584H173.974V147.048ZM254.963 230.964V151.584H241.103V147.048H254.963V114.54L301.835 102.948V147.048H334.595V151.584H301.835V236.508C301.835 244.404 302.591 250.2 304.103 253.896C305.783 257.592 309.143 259.44 314.183 259.44C319.223 259.44 323.591 256.92 327.287 251.88C331.151 246.84 333.671 239.952 334.847 231.216L339.131 231.72C337.787 243.312 334.091 252.552 328.043 259.44C321.995 266.16 311.999 269.52 298.055 269.52C284.111 269.52 273.443 266.748 266.051 261.204C258.659 255.66 254.963 245.58 254.963 230.964ZM395.215 269.52C373.543 269.52 357.247 263.976 346.327 252.888C335.575 241.632 330.199 226.092 330.199 206.268C330.199 186.276 336.247 170.988 348.343 160.404C360.607 149.82 376.147 144.528 394.963 144.528C433.099 144.528 451.411 163.68 449.899 201.984H378.835V211.812C378.835 228.276 380.935 240.708 385.135 249.108C389.335 257.508 396.643 261.708 407.059 261.708C426.547 261.708 439.315 251.292 445.363 230.46L449.899 231.216C446.707 243.312 440.911 252.72 432.511 259.44C424.279 266.16 411.847 269.52 395.215 269.52ZM379.087 196.944H405.043V184.596C405.043 170.988 404.203 161.748 402.523 156.876C401.011 151.836 397.819 149.316 392.947 149.316C388.243 149.316 384.715 152.004 382.363 157.38C380.179 162.588 379.087 171.66 379.087 184.596V196.944Z" fill="black"/>
<path d="M489.091 56L539 56V105.909L457 138L489.091 56Z" fill="#E20000"/>
</svg>
