<svg width="44" height="44" viewBox="0 0 44 44" fill="none" xmlns="http://www.w3.org/2000/svg">
<mask id="path-1-inside-1_2091_8844" fill="white">
<path d="M0 22C0 9.84974 9.84974 0 22 0C34.1503 0 44 9.84974 44 22C44 34.1503 34.1503 44 22 44C9.84974 44 0 34.1503 0 22Z"/>
</mask>
<path d="M0 22C0 9.84974 9.84974 0 22 0C34.1503 0 44 9.84974 44 22C44 34.1503 34.1503 44 22 44C9.84974 44 0 34.1503 0 22Z" fill="#201318"/>
<path d="M0 22M44 22M44 22M0 22M22 0M44 22M22 44M0 22M22 44V43C10.402 43 1 33.598 1 22H0H-1C-1 34.7025 9.29745 45 22 45V44ZM44 22H43C43 33.598 33.598 43 22 43V44V45C34.7025 45 45 34.7025 45 22H44ZM22 0V1C33.598 1 43 10.402 43 22H44H45C45 9.29745 34.7025 -1 22 -1V0ZM22 0V-1C9.29745 -1 -1 9.29745 -1 22H0H1C1 10.402 10.402 1 22 1V0Z" fill="#F87171" fill-opacity="0.2" mask="url(#path-1-inside-1_2091_8844)"/>
<path d="M17.2434 21.136C19.391 21.136 21.1319 19.395 21.1319 17.2474C21.1319 15.0998 19.391 13.3589 17.2434 13.3589C15.0958 13.3589 13.3549 15.0998 13.3549 17.2474C13.3549 19.395 15.0958 21.136 17.2434 21.136Z" stroke="#F87171" stroke-width="1.90106"/>
<path d="M26.7488 30.6413C28.8963 30.6413 30.6373 28.9004 30.6373 26.7528C30.6373 24.6052 28.8963 22.8643 26.7488 22.8643C24.6012 22.8643 22.8602 24.6052 22.8602 26.7528C22.8602 28.9004 24.6012 30.6413 26.7488 30.6413Z" stroke="#F87171" stroke-width="1.90106"/>
<path d="M13.787 30.2093L30.2052 13.791" stroke="#F87171" stroke-width="1.90106" stroke-linecap="round"/>
</svg>
