<svg width="390" height="71" viewBox="0 0 390 71" fill="none" xmlns="http://www.w3.org/2000/svg">
<mask id="path-1-inside-1_2091_8460" fill="white">
<path d="M0 0H390V71H0V0Z"/>
</mask>
<path d="M0 0H390V71H0V0Z" fill="#13141F"/>
<path d="M0 0V1H390V0V-1H0V0Z" fill="#1E1F2E" mask="url(#path-1-inside-1_2091_8460)"/>
<path d="M62 44.25V36.9167C62 36.6736 61.9034 36.4404 61.7315 36.2685C61.5596 36.0966 61.3264 36 61.0833 36H57.4167C57.1736 36 56.9404 36.0966 56.7685 36.2685C56.5966 36.4404 56.5 36.6736 56.5 36.9167V44.25" fill="#F5F5F6"/>
<path d="M62 44.25V36.9167C62 36.6736 61.9034 36.4404 61.7315 36.2685C61.5596 36.0966 61.3264 36 61.0833 36H57.4167C57.1736 36 56.9404 36.0966 56.7685 36.2685C56.5966 36.4404 56.5 36.6736 56.5 36.9167V44.25" stroke="#F5F5F6" stroke-width="1.83333" stroke-linecap="round" stroke-linejoin="round"/>
<path d="M51 34.1668C50.9999 33.9002 51.0581 33.6367 51.1703 33.3947C51.2826 33.1528 51.4462 32.9383 51.6499 32.7662L58.0666 27.2671C58.3975 26.9874 58.8167 26.834 59.25 26.834C59.6833 26.834 60.1025 26.9874 60.4334 27.2671L66.8501 32.7662C67.0538 32.9383 67.2174 33.1528 67.3297 33.3947C67.4419 33.6367 67.5001 33.9002 67.5 34.1668V42.4168C67.5 42.9031 67.3068 43.3694 66.963 43.7132C66.6192 44.057 66.1529 44.2502 65.6667 44.2502H52.8333C52.3471 44.2502 51.8808 44.057 51.537 43.7132C51.1932 43.3694 51 42.9031 51 42.4168V34.1668Z" fill="#F5F5F6" stroke="#F5F5F6" stroke-width="1.83333" stroke-linecap="round" stroke-linejoin="round"/>
<path d="M144.833 42.4167C148.883 42.4167 152.167 39.1334 152.167 35.0833C152.167 31.0332 148.883 27.75 144.833 27.75C140.783 27.75 137.5 31.0332 137.5 35.0833C137.5 39.1334 140.783 42.4167 144.833 42.4167Z" stroke="#87878C" stroke-width="1.83333" stroke-linecap="round" stroke-linejoin="round"/>
<path d="M154 44.2498L150.058 40.3081" stroke="#87878C" stroke-width="1.83333" stroke-linecap="round" stroke-linejoin="round"/>
<path d="M232.25 45.1668C237.313 45.1668 241.417 41.0628 241.417 36.0002C241.417 30.9376 237.313 26.8335 232.25 26.8335C227.187 26.8335 223.083 30.9376 223.083 36.0002C223.083 41.0628 227.187 45.1668 232.25 45.1668Z" stroke="#87878C" stroke-width="1.83333" stroke-linecap="round" stroke-linejoin="round"/>
<path d="M232.25 30.5V36L235.917 37.8333" stroke="#87878C" stroke-width="1.83333" stroke-linecap="round" stroke-linejoin="round"/>
<path d="M299.75 36C299.75 22.1929 310.943 11 324.75 11C338.557 11 349.75 22.1929 349.75 36C349.75 49.8071 338.557 61 324.75 61C310.943 61 299.75 49.8071 299.75 36Z" fill="url(#paint0_linear_2091_8460)"/>
<path d="M320.75 28L316.75 32L320.75 36" stroke="white" stroke-width="2" stroke-linecap="round" stroke-linejoin="round"/>
<path d="M316.75 32H327.75C329.95 32 331.75 33.8 331.75 36" stroke="white" stroke-width="2" stroke-linecap="round"/>
<path d="M328.75 44L332.75 40L328.75 36" stroke="white" stroke-width="2" stroke-linecap="round" stroke-linejoin="round"/>
<path d="M332.75 40H321.75C319.55 40 317.75 38.2 317.75 36" stroke="white" stroke-width="2" stroke-linecap="round"/>
<defs>
<linearGradient id="paint0_linear_2091_8460" x1="299.75" y1="11" x2="349.75" y2="61" gradientUnits="userSpaceOnUse">
<stop stop-color="#584BEB"/>
<stop offset="1" stop-color="#4A3DE0"/>
</linearGradient>
</defs>
</svg>
