<svg width="67" height="13" viewBox="0 0 67 13" fill="none" xmlns="http://www.w3.org/2000/svg">
<path d="M-8.9385e-05 1.02296V4.44242e-05H7.14175V1.02296H4.14738V9.5225H2.99428V1.02296H-8.9385e-05ZM10.6383 9.67128C9.99352 9.67128 9.42782 9.51785 8.94116 9.21097C8.4576 8.90409 8.07943 8.47478 7.80665 7.92302C7.53697 7.37126 7.40213 6.72652 7.40213 5.98877C7.40213 5.24483 7.53697 4.59543 7.80665 4.04058C8.07943 3.48572 8.4576 3.05485 8.94116 2.74798C9.42782 2.4411 9.99352 2.28766 10.6383 2.28766C11.283 2.28766 11.8472 2.4411 12.3307 2.74798C12.8174 3.05485 13.1956 3.48572 13.4653 4.04058C13.738 4.59543 13.8744 5.24483 13.8744 5.98877C13.8744 6.72652 13.738 7.37126 13.4653 7.92302C13.1956 8.47478 12.8174 8.90409 12.3307 9.21097C11.8472 9.51785 11.283 9.67128 10.6383 9.67128ZM10.6383 8.68556C11.128 8.68556 11.531 8.56002 11.8472 8.30894C12.1634 8.05786 12.3974 7.72774 12.5493 7.31857C12.7012 6.9094 12.7771 6.46614 12.7771 5.98877C12.7771 5.51141 12.7012 5.0666 12.5493 4.65433C12.3974 4.24206 12.1634 3.90884 11.8472 3.65466C11.531 3.40048 11.128 3.27339 10.6383 3.27339C10.1485 3.27339 9.74554 3.40048 9.42937 3.65466C9.11319 3.90884 8.87916 4.24206 8.72727 4.65433C8.57539 5.0666 8.49944 5.51141 8.49944 5.98877C8.49944 6.46614 8.57539 6.9094 8.72727 7.31857C8.87916 7.72774 9.11319 8.05786 9.42937 8.30894C9.74554 8.56002 10.1485 8.68556 10.6383 8.68556ZM15.5494 12.2007V2.38066H16.6096V3.51517H16.7398C16.8203 3.39118 16.9319 3.23309 17.0745 3.04091C17.2202 2.84562 17.4279 2.67203 17.6976 2.52015C17.9704 2.36516 18.3392 2.28766 18.8042 2.28766C19.4055 2.28766 19.9356 2.438 20.3944 2.73868C20.8531 3.03936 21.2112 3.46557 21.4684 4.01733C21.7257 4.56909 21.8544 5.22003 21.8544 5.97018C21.8544 6.72652 21.7257 7.38211 21.4684 7.93697C21.2112 8.48873 20.8547 8.91649 20.399 9.22027C19.9434 9.52095 19.4179 9.67128 18.8228 9.67128C18.364 9.67128 17.9967 9.59534 17.7208 9.44345C17.445 9.28846 17.2326 9.11333 17.0838 8.91804C16.935 8.71966 16.8203 8.55537 16.7398 8.42518H16.6468V12.2007H15.5494ZM16.6282 5.95158C16.6282 6.49093 16.7072 6.96675 16.8653 7.37901C17.0234 7.78818 17.2543 8.10901 17.5581 8.34149C17.8619 8.57087 18.2338 8.68556 18.674 8.68556C19.1328 8.68556 19.5156 8.56467 19.8225 8.32289C20.1324 8.07801 20.3649 7.74944 20.5199 7.33717C20.678 6.9218 20.757 6.45994 20.757 5.95158C20.757 5.44942 20.6795 4.99685 20.5246 4.59388C20.3727 4.18782 20.1417 3.86699 19.8318 3.63141C19.5249 3.39273 19.139 3.27339 18.674 3.27339C18.2276 3.27339 17.8526 3.38653 17.5488 3.61281C17.245 3.83599 17.0156 4.14907 16.8606 4.55204C16.7057 4.9519 16.6282 5.41842 16.6282 5.95158ZM30.3167 2.38066V3.31058H26.6156V2.38066H30.3167ZM27.6943 0.669592H28.7916V7.47666C28.7916 7.78663 28.8366 8.01911 28.9264 8.1741C29.0194 8.32599 29.1372 8.42828 29.2798 8.48098C29.4255 8.53057 29.5789 8.55537 29.7401 8.55537C29.861 8.55537 29.9602 8.54917 30.0377 8.53677C30.1152 8.52127 30.1772 8.50888 30.2237 8.49958L30.4469 9.4853C30.3725 9.5132 30.2686 9.54109 30.1354 9.56899C30.0021 9.59999 29.8331 9.61549 29.6285 9.61549C29.3186 9.61549 29.0148 9.54884 28.7172 9.41555C28.4227 9.28226 28.1779 9.07923 27.9826 8.80645C27.7904 8.53367 27.6943 8.1896 27.6943 7.77423V0.669592ZM34.792 9.67128C34.1472 9.67128 33.5815 9.51785 33.0948 9.21097C32.6113 8.90409 32.2331 8.47478 31.9603 7.92302C31.6907 7.37126 31.5558 6.72652 31.5558 5.98877C31.5558 5.24483 31.6907 4.59543 31.9603 4.04058C32.2331 3.48572 32.6113 3.05485 33.0948 2.74798C33.5815 2.4411 34.1472 2.28766 34.792 2.28766C35.4367 2.28766 36.0009 2.4411 36.4844 2.74798C36.9711 3.05485 37.3493 3.48572 37.6189 4.04058C37.8917 4.59543 38.0281 5.24483 38.0281 5.98877C38.0281 6.72652 37.8917 7.37126 37.6189 7.92302C37.3493 8.47478 36.9711 8.90409 36.4844 9.21097C36.0009 9.51785 35.4367 9.67128 34.792 9.67128ZM34.792 8.68556C35.2817 8.68556 35.6847 8.56002 36.0009 8.30894C36.317 8.05786 36.5511 7.72774 36.703 7.31857C36.8548 6.9094 36.9308 6.46614 36.9308 5.98877C36.9308 5.51141 36.8548 5.0666 36.703 4.65433C36.5511 4.24206 36.317 3.90884 36.0009 3.65466C35.6847 3.40048 35.2817 3.27339 34.792 3.27339C34.3022 3.27339 33.8992 3.40048 33.5831 3.65466C33.2669 3.90884 33.0328 4.24206 32.881 4.65433C32.7291 5.0666 32.6531 5.51141 32.6531 5.98877C32.6531 6.46614 32.7291 6.9094 32.881 7.31857C33.0328 7.72774 33.2669 8.05786 33.5831 8.30894C33.8992 8.56002 34.3022 8.68556 34.792 8.68556ZM40.7261 6.9187L40.7075 5.56101H40.9306L44.0552 2.38066H45.4129L42.0838 5.74699H41.9908L40.7261 6.9187ZM39.7031 9.5225V4.44242e-05H40.8005V9.5225H39.7031ZM44.2412 9.5225L41.4514 5.98877L42.2325 5.22623L45.6361 9.5225H44.2412ZM49.5255 9.67128C48.8373 9.67128 48.2437 9.5194 47.7447 9.21562C47.2487 8.90874 46.8659 8.48098 46.5962 7.93232C46.3296 7.38056 46.1964 6.73891 46.1964 6.00737C46.1964 5.27583 46.3296 4.63108 46.5962 4.07312C46.8659 3.51207 47.241 3.075 47.7214 2.76193C48.205 2.44575 48.7691 2.28766 49.4139 2.28766C49.7859 2.28766 50.1532 2.34966 50.5159 2.47365C50.8785 2.59764 51.2087 2.79912 51.5062 3.0781C51.8038 3.35398 52.0409 3.71975 52.2176 4.17542C52.3943 4.63108 52.4827 5.19214 52.4827 5.85858V6.32355H46.9775V5.37502H51.3667C51.3667 4.97205 51.2862 4.61248 51.125 4.29631C50.9669 3.98013 50.7406 3.7306 50.4461 3.54772C50.1547 3.36483 49.8107 3.27339 49.4139 3.27339C48.9768 3.27339 48.5987 3.38188 48.2794 3.59886C47.9632 3.81274 47.7199 4.09172 47.5494 4.4358C47.3789 4.77987 47.2937 5.14874 47.2937 5.54241V6.17476C47.2937 6.71412 47.3867 7.17133 47.5726 7.5464C47.7617 7.91837 48.0237 8.202 48.3584 8.39728C48.6932 8.58947 49.0822 8.68556 49.5255 8.68556C49.8138 8.68556 50.0741 8.64526 50.3066 8.56467C50.5422 8.48098 50.7452 8.35699 50.9157 8.1927C51.0862 8.02531 51.218 7.81763 51.3109 7.56965L52.3711 7.86723C52.2595 8.2268 52.0719 8.54297 51.8085 8.81575C51.545 9.08543 51.2195 9.29621 50.832 9.4481C50.4446 9.59689 50.0091 9.67128 49.5255 9.67128ZM55.2492 5.22623V9.5225H54.1519V2.38066H55.212V3.49657H55.305C55.4724 3.1339 55.7266 2.84252 56.0675 2.62244C56.4085 2.39926 56.8487 2.28766 57.388 2.28766C57.8716 2.28766 58.2947 2.38686 58.6574 2.58524C59.02 2.78053 59.3021 3.0781 59.5036 3.47797C59.7051 3.87474 59.8058 4.3769 59.8058 4.98445V9.5225H58.7085V5.05885C58.7085 4.49779 58.5628 4.06073 58.2715 3.74765C57.9801 3.43147 57.5802 3.27339 57.0718 3.27339C56.7216 3.27339 56.4085 3.34933 56.1326 3.50122C55.8598 3.65311 55.6444 3.87474 55.4863 4.16612C55.3282 4.45749 55.2492 4.81087 55.2492 5.22623ZM66.8698 3.98013L65.8841 4.25911C65.8221 4.09482 65.7306 3.93518 65.6097 3.7802C65.4919 3.62211 65.3308 3.49192 65.1262 3.38963C64.9216 3.28734 64.6597 3.23619 64.3404 3.23619C63.9033 3.23619 63.5391 3.33693 63.2477 3.53842C62.9594 3.7368 62.8153 3.98943 62.8153 4.29631C62.8153 4.56909 62.9145 4.78452 63.1129 4.94261C63.3113 5.10069 63.6212 5.23243 64.0428 5.33782L65.1029 5.5982C65.7415 5.75319 66.2173 5.99032 66.5304 6.3096C66.8434 6.62577 67 7.03339 67 7.53245C67 7.94162 66.8822 8.30739 66.6466 8.62977C66.4141 8.95214 66.0886 9.20632 65.6702 9.39231C65.2517 9.57829 64.7651 9.67128 64.2102 9.67128C63.4818 9.67128 62.8789 9.5132 62.4015 9.19702C61.9241 8.88085 61.6219 8.41898 61.4948 7.81143L62.5363 7.55105C62.6355 7.93542 62.8231 8.2237 63.0989 8.41588C63.3779 8.60807 63.7421 8.70416 64.1916 8.70416C64.7031 8.70416 65.1091 8.59567 65.4098 8.37869C65.7136 8.1586 65.8655 7.89512 65.8655 7.58825C65.8655 7.34027 65.7787 7.13258 65.6051 6.9652C65.4315 6.79471 65.1649 6.66762 64.8054 6.58393L63.615 6.30495C62.961 6.14996 62.4805 5.90973 62.1737 5.58426C61.8699 5.25568 61.718 4.84496 61.718 4.3521C61.718 3.94913 61.8311 3.59266 62.0574 3.28269C62.2868 2.97271 62.5983 2.72938 62.992 2.55269C63.3888 2.37601 63.8382 2.28766 64.3404 2.28766C65.0471 2.28766 65.602 2.44265 66.005 2.75263C66.411 3.0626 66.6993 3.47177 66.8698 3.98013Z" fill="#87878C"/>
</svg>
