<svg width="16" height="12" viewBox="0 0 16 12" fill="none" xmlns="http://www.w3.org/2000/svg">
<g clip-path="url(#clip0_2091_8599)">
<path d="M8 9.5C8.83 9.5 9.5 10.17 9.5 11C9.5 11.83 8.83 12.5 8 12.5C7.17 12.5 6.5 11.83 6.5 11C6.5 10.17 7.17 9.5 8 9.5Z" fill="#F5F5F6"/>
<path opacity="0.6" d="M7.99998 5.99995C9.79998 5.99995 11.4 6.79995 12.5 7.99995L13.9 6.59995C12.4 5.09995 10.3 4.19995 7.99998 4.19995C5.69998 4.19995 3.59998 5.09995 2.09998 6.59995L3.49998 7.99995C4.59998 6.79995 6.19998 5.99995 7.99998 5.99995Z" fill="#F5F5F6"/>
<path opacity="0.3" d="M7.99998 2.5C11 2.5 13.7 3.8 15.5 5.9L16.9 4.5C14.7 2 11.5 0.5 7.99998 0.5C4.49998 0.5 1.29998 2 -0.900024 4.5L0.499976 5.9C2.29998 3.8 4.99998 2.5 7.99998 2.5Z" fill="#F5F5F6"/>
</g>
<defs>
<clipPath id="clip0_2091_8599">
<rect width="16" height="12" fill="white"/>
</clipPath>
</defs>
</svg>
