<svg width="16" height="12" viewBox="0 0 16 12" fill="none" xmlns="http://www.w3.org/2000/svg">
<g clip-path="url(#clip0_2091_8243)">
<path d="M8 9.5C8.83 9.5 9.5 10.17 9.5 11C9.5 11.83 8.83 12.5 8 12.5C7.17 12.5 6.5 11.83 6.5 11C6.5 10.17 7.17 9.5 8 9.5Z" fill="#F5F5F6"/>
<path opacity="0.6" d="M8.0001 5.99995C9.8001 5.99995 11.4001 6.79995 12.5001 7.99995L13.9001 6.59995C12.4001 5.09995 10.3001 4.19995 8.0001 4.19995C5.7001 4.19995 3.6001 5.09995 2.1001 6.59995L3.5001 7.99995C4.6001 6.79995 6.2001 5.99995 8.0001 5.99995Z" fill="#F5F5F6"/>
<path opacity="0.3" d="M8.0001 2.5C11.0001 2.5 13.7001 3.8 15.5001 5.9L16.9001 4.5C14.7001 2 11.5001 0.5 8.0001 0.5C4.5001 0.5 1.3001 2 -0.899902 4.5L0.500098 5.9C2.3001 3.8 5.0001 2.5 8.0001 2.5Z" fill="#F5F5F6"/>
</g>
<defs>
<clipPath id="clip0_2091_8243">
<rect width="16" height="12" fill="white"/>
</clipPath>
</defs>
</svg>
