<svg width="373" height="165" viewBox="0 0 373 165" fill="none" xmlns="http://www.w3.org/2000/svg">
<g clip-path="url(#clip0_2091_8281)">
<path d="M0 16C0 7.16345 7.16344 0 16 0H357C365.837 0 373 7.16344 373 16V149C373 157.837 365.837 165 357 165H16C7.16344 165 0 157.837 0 149V16Z" fill="#1F1F33"/>
<path d="M0 16C0 7.16345 7.16344 0 16 0H357C365.837 0 373 7.16344 373 16V149C373 157.837 365.837 165 357 165H16C7.16344 165 0 157.837 0 149V16Z" fill="#1A1A29"/>
<path d="M17 95.5806C25.4762 95.5806 25.4762 101 33.9524 101C42.4286 101 42.4286 91.5161 50.9048 91.5161C59.381 91.5161 59.381 98.2903 67.8571 98.2903C76.3333 98.2903 76.3333 84.7419 84.8095 84.7419C93.2857 84.7419 93.2857 88.8065 101.762 88.8065C110.238 88.8065 110.238 77.9677 118.714 77.9677C127.19 77.9677 127.19 82.0323 135.667 82.0323C144.143 82.0323 144.143 71.1936 152.619 71.1936C161.095 71.1936 161.095 73.9032 169.571 73.9032C178.048 73.9032 178.048 64.4194 186.524 64.4194C195 64.4194 195 57.6452 203.476 57.6452C211.952 57.6452 211.952 63.0645 220.429 63.0645C228.905 63.0645 228.905 54.9355 237.381 54.9355C245.857 54.9355 245.857 50.871 254.333 50.871C262.81 50.871 262.81 44.0968 271.286 44.0968C279.762 44.0968 279.762 49.5161 288.238 49.5161C296.714 49.5161 296.714 37.3226 305.19 37.3226C313.667 37.3226 313.667 41.3871 322.143 41.3871C330.619 41.3871 330.619 30.5484 339.095 30.5484C347.571 30.5484 347.571 33.2581 356.048 33.2581C364.524 33.2581 364.524 17 373 17" stroke="#584BEB" stroke-opacity="0.5" stroke-width="1.61854"/>
</g>
<path d="M16 0.5H357C365.56 0.5 372.5 7.43959 372.5 16V149C372.5 157.56 365.56 164.5 357 164.5H16C7.43959 164.5 0.5 157.56 0.5 149V16C0.500002 7.43959 7.43959 0.5 16 0.5Z" stroke="#2D2C4A" stroke-opacity="0.2"/>
<defs>
<clipPath id="clip0_2091_8281">
<path d="M0 16C0 7.16345 7.16344 0 16 0H357C365.837 0 373 7.16344 373 16V149C373 157.837 365.837 165 357 165H16C7.16344 165 0 157.837 0 149V16Z" fill="white"/>
</clipPath>
</defs>
</svg>
