<svg width="18" height="18" viewBox="0 0 18 18" fill="none" xmlns="http://www.w3.org/2000/svg">
<g clip-path="url(#clip0_2091_8197)">
<path d="M9 18C13.9706 18 18 13.9706 18 9C18 4.02944 13.9706 0 9 0C4.02944 0 0 4.02944 0 9C0 13.9706 4.02944 18 9 18Z" fill="#0052FF"/>
<path d="M6.75 5.3999H9.9C10.89 5.3999 11.7 6.2099 11.7 7.1999C11.7 7.7399 11.43 8.2349 11.025 8.5499C11.475 8.8649 11.79 9.4049 11.79 9.9899C11.79 11.0699 10.89 11.9249 9.81 11.9249H6.75V5.3999Z" fill="white"/>
<path d="M7.875 6.5249V8.3249H9.81C10.305 8.3249 10.575 7.9199 10.575 7.4249C10.575 6.8849 10.26 6.5249 9.675 6.5249H7.875Z" fill="#0052FF"/>
<path d="M7.875 9.2251V10.8901H9.81C10.395 10.8901 10.71 10.4851 10.71 10.0351C10.71 9.5401 10.35 9.2251 9.81 9.2251H7.875Z" fill="#0052FF"/>
</g>
<defs>
<clipPath id="clip0_2091_8197">
<rect width="18" height="18" fill="white"/>
</clipPath>
</defs>
</svg>
