<svg width="390" height="647" viewBox="0 0 390 647" fill="none" xmlns="http://www.w3.org/2000/svg">
<g clip-path="url(#clip0_2091_8819)">
<mask id="path-1-inside-1_2091_8819" fill="white">
<path d="M20 31.5H370V108.5H20V31.5Z"/>
</mask>
<path d="M370 108.5V107.5H20V108.5V109.5H370V108.5Z" fill="#1E1F2E" mask="url(#path-1-inside-1_2091_8819)"/>
<mask id="path-3-inside-2_2091_8819" fill="white">
<path d="M20 69.5C20 57.3497 29.8497 47.5 42 47.5C54.1503 47.5 64 57.3497 64 69.5C64 81.6503 54.1503 91.5 42 91.5C29.8497 91.5 20 81.6503 20 69.5Z"/>
</mask>
<path d="M20 69.5C20 57.3497 29.8497 47.5 42 47.5C54.1503 47.5 64 57.3497 64 69.5C64 81.6503 54.1503 91.5 42 91.5C29.8497 91.5 20 81.6503 20 69.5Z" fill="#1A1330"/>
<path d="M20 69.5M64 69.5M64 69.5M20 69.5M42 47.5M64 69.5M42 91.5M20 69.5M42 91.5V90.5C30.402 90.5 21 81.098 21 69.5H20H19C19 82.2025 29.2975 92.5 42 92.5V91.5ZM64 69.5H63C63 81.098 53.598 90.5 42 90.5V91.5V92.5C54.7025 92.5 65 82.2025 65 69.5H64ZM42 47.5V48.5C53.598 48.5 63 57.902 63 69.5H64H65C65 56.7975 54.7025 46.5 42 46.5V47.5ZM42 47.5V46.5C29.2975 46.5 19 56.7975 19 69.5H20H21C21 57.902 30.402 48.5 42 48.5V47.5Z" fill="#818CF8" fill-opacity="0.2" mask="url(#path-3-inside-2_2091_8819)"/>
<path d="M37.2434 68.636C39.391 68.636 41.1319 66.895 41.1319 64.7474C41.1319 62.5998 39.391 60.8589 37.2434 60.8589C35.0958 60.8589 33.3549 62.5998 33.3549 64.7474C33.3549 66.895 35.0958 68.636 37.2434 68.636Z" stroke="#818CF8" stroke-width="1.90106"/>
<path d="M46.7488 78.1411C48.8963 78.1411 50.6373 76.4001 50.6373 74.2525C50.6373 72.105 48.8963 70.364 46.7488 70.364C44.6012 70.364 42.8602 72.105 42.8602 74.2525C42.8602 76.4001 44.6012 78.1411 46.7488 78.1411Z" stroke="#818CF8" stroke-width="1.90106"/>
<path d="M33.787 77.709L50.2052 61.2908" stroke="#818CF8" stroke-width="1.90106" stroke-linecap="round"/>
<path d="M84.8473 74.6811C84.0057 74.6776 83.2866 74.4556 82.69 74.0153C82.0934 73.5749 81.6371 72.9339 81.321 72.0923C81.005 71.2507 80.8469 70.2369 80.8469 69.0508C80.8469 67.8683 81.005 66.858 81.321 66.0199C81.6406 65.1818 82.0987 64.5426 82.6953 64.1023C83.2955 63.6619 84.0128 63.4418 84.8473 63.4418C85.6818 63.4418 86.3974 63.6637 86.994 64.1076C87.5906 64.5479 88.0469 65.1871 88.3629 66.0252C88.6825 66.8597 88.8423 67.8683 88.8423 69.0508C88.8423 70.2404 88.6843 71.256 88.3683 72.0977C88.0522 72.9357 87.5959 73.5767 86.9993 74.0206C86.4027 74.4609 85.6854 74.6811 84.8473 74.6811ZM84.8473 73.2589C85.5859 73.2589 86.163 72.8984 86.5785 72.1776C86.9975 71.4567 87.207 70.4144 87.207 69.0508C87.207 68.1452 87.1112 67.38 86.9194 66.755C86.7312 66.1264 86.4595 65.6506 86.1044 65.3274C85.7528 65.0007 85.3338 64.8374 84.8473 64.8374C84.1122 64.8374 83.5352 65.1996 83.1161 65.924C82.6971 66.6484 82.4858 67.6907 82.4822 69.0508C82.4822 69.9599 82.5763 70.7287 82.7646 71.3572C82.9563 71.9822 83.228 72.4563 83.5795 72.7795C83.9311 73.0991 84.3537 73.2589 84.8473 73.2589ZM97.2359 72.6889L91.1102 66.5632L92.1169 65.5565L98.2426 71.6822L97.2359 72.6889ZM92.1169 72.6889L91.1102 71.6822L97.2359 65.5565L98.2426 66.5632L92.1169 72.6889ZM100.493 72.3693V71.0376L105.207 63.5909H106.257V65.5511H105.591L102.219 70.8885V70.9737H108.68V72.3693H100.493ZM105.665 74.5V71.9645L105.676 71.3572V63.5909H107.237V74.5H105.665ZM110.537 74.5V73.3068L114.228 69.4822C114.622 69.0668 114.947 68.7028 115.203 68.3903C115.462 68.0742 115.656 67.7741 115.783 67.4901C115.911 67.206 115.975 66.9041 115.975 66.5845C115.975 66.2223 115.89 65.9098 115.72 65.647C115.549 65.3807 115.316 65.1765 115.022 65.0344C114.727 64.8888 114.395 64.8161 114.026 64.8161C113.635 64.8161 113.294 64.896 113.003 65.0558C112.712 65.2156 112.488 65.4411 112.332 65.7322C112.176 66.0234 112.097 66.3643 112.097 66.755H110.526C110.526 66.0909 110.679 65.5103 110.984 65.0131C111.29 64.516 111.709 64.1307 112.241 63.8572C112.774 63.5803 113.379 63.4418 114.058 63.4418C114.743 63.4418 115.347 63.5785 115.869 63.8519C116.394 64.1218 116.804 64.4911 117.099 64.9599C117.394 65.4251 117.541 65.9506 117.541 66.5366C117.541 66.9414 117.465 67.3374 117.312 67.7244C117.163 68.1115 116.902 68.543 116.529 69.0188C116.156 69.4911 115.638 70.0646 114.974 70.7393L112.806 73.0085V73.0884H117.717V74.5H110.537ZM119.272 72.3693V71.0376L123.987 63.5909H125.036V65.5511H124.37L120.998 70.8885V70.9737H127.46V72.3693H119.272ZM124.445 74.5V71.9645L124.455 71.3572V63.5909H126.016V74.5H124.445ZM133.002 74.6491C132.239 74.6491 131.564 74.5178 130.978 74.255C130.396 73.9922 129.939 73.63 129.609 73.1683C129.279 72.7067 129.115 72.1811 129.119 71.5916C129.115 71.13 129.209 70.7056 129.401 70.3185C129.597 69.9279 129.861 69.603 130.195 69.3438C130.529 69.081 130.902 68.9141 131.313 68.843V68.7791C130.77 68.6477 130.335 68.3565 130.008 67.9055C129.682 67.4545 129.52 66.9361 129.524 66.3501C129.52 65.7926 129.668 65.2955 129.966 64.8587C130.268 64.4183 130.681 64.0721 131.207 63.82C131.733 63.5678 132.331 63.4418 133.002 63.4418C133.666 63.4418 134.259 63.5696 134.781 63.8253C135.307 64.0774 135.72 64.4237 136.022 64.864C136.324 65.3008 136.477 65.7962 136.48 66.3501C136.477 66.9361 136.31 67.4545 135.98 67.9055C135.649 68.3565 135.22 68.6477 134.691 68.7791V68.843C135.099 68.9141 135.467 69.081 135.793 69.3438C136.123 69.603 136.386 69.9279 136.582 70.3185C136.78 70.7056 136.882 71.13 136.885 71.5916C136.882 72.1811 136.715 72.7067 136.384 73.1683C136.054 73.63 135.596 73.9922 135.01 74.255C134.428 74.5178 133.758 74.6491 133.002 74.6491ZM133.002 73.3015C133.453 73.3015 133.844 73.2269 134.174 73.0778C134.504 72.9251 134.76 72.7138 134.941 72.4439C135.122 72.1705 135.214 71.8509 135.218 71.4851C135.214 71.1051 135.115 70.7695 134.92 70.4783C134.728 70.1871 134.467 69.9581 134.137 69.7912C133.806 69.6243 133.428 69.5408 133.002 69.5408C132.572 69.5408 132.191 69.6243 131.857 69.7912C131.523 69.9581 131.26 70.1871 131.068 70.4783C130.877 70.7695 130.783 71.1051 130.786 71.4851C130.783 71.8509 130.87 72.1705 131.047 72.4439C131.228 72.7138 131.486 72.9251 131.82 73.0778C132.153 73.2269 132.547 73.3015 133.002 73.3015ZM133.002 68.2251C133.364 68.2251 133.686 68.1523 133.966 68.0067C134.247 67.8612 134.467 67.6587 134.627 67.3995C134.79 67.1403 134.873 66.8366 134.877 66.4886C134.873 66.1477 134.792 65.8494 134.632 65.5938C134.476 65.3381 134.257 65.141 133.977 65.0025C133.696 64.8604 133.371 64.7894 133.002 64.7894C132.626 64.7894 132.295 64.8604 132.011 65.0025C131.731 65.141 131.512 65.3381 131.356 65.5938C131.2 65.8494 131.123 66.1477 131.127 66.4886C131.123 66.8366 131.202 67.1403 131.361 67.3995C131.521 67.6587 131.741 67.8612 132.022 68.0067C132.306 68.1523 132.633 68.2251 133.002 68.2251ZM139.542 74.6012C139.251 74.6012 139 74.4982 138.791 74.2923C138.581 74.0827 138.477 73.8306 138.477 73.5359C138.477 73.2447 138.581 72.9961 138.791 72.7901C139 72.5806 139.251 72.4759 139.542 72.4759C139.833 72.4759 140.083 72.5806 140.293 72.7901C140.502 72.9961 140.607 73.2447 140.607 73.5359C140.607 73.7312 140.558 73.9105 140.458 74.0739C140.362 74.2337 140.234 74.3615 140.075 74.4574C139.915 74.5533 139.737 74.6012 139.542 74.6012ZM143.79 74.6012C143.499 74.6012 143.248 74.4982 143.039 74.2923C142.829 74.0827 142.725 73.8306 142.725 73.5359C142.725 73.2447 142.829 72.9961 143.039 72.7901C143.248 72.5806 143.499 72.4759 143.79 72.4759C144.081 72.4759 144.331 72.5806 144.541 72.7901C144.751 72.9961 144.855 73.2447 144.855 73.5359C144.855 73.7312 144.806 73.9105 144.706 74.0739C144.61 74.2337 144.482 74.3615 144.323 74.4574C144.163 74.5533 143.985 74.6012 143.79 74.6012ZM148.038 74.6012C147.747 74.6012 147.496 74.4982 147.287 74.2923C147.077 74.0827 146.973 73.8306 146.973 73.5359C146.973 73.2447 147.077 72.9961 147.287 72.7901C147.496 72.5806 147.747 72.4759 148.038 72.4759C148.329 72.4759 148.58 72.5806 148.789 72.7901C148.999 72.9961 149.103 73.2447 149.103 73.5359C149.103 73.7312 149.054 73.9105 148.954 74.0739C148.858 74.2337 148.73 74.3615 148.571 74.4574C148.411 74.5533 148.233 74.6012 148.038 74.6012ZM151.365 74.5V63.5909H158.204V65.0078H153.01V68.3317H157.847V69.7433H153.01V73.0831H158.268V74.5H151.365ZM160.403 74.5V63.5909H167.168V65.0078H162.049V68.3317H166.683V69.7433H162.049V74.5H160.403ZM172.84 74.6491C172.109 74.6491 171.456 74.5231 170.88 74.271C170.309 74.0188 169.856 73.669 169.522 73.2216C169.192 72.7706 169.014 72.2486 168.989 71.6555H170.662C170.683 71.9787 170.791 72.2592 170.987 72.4972C171.186 72.7315 171.445 72.9126 171.764 73.0405C172.084 73.1683 172.439 73.2322 172.83 73.2322C173.259 73.2322 173.639 73.1577 173.97 73.0085C174.304 72.8594 174.565 72.6516 174.753 72.3853C174.941 72.1154 175.035 71.8047 175.035 71.4531C175.035 71.0874 174.941 70.766 174.753 70.489C174.568 70.2085 174.296 69.9883 173.938 69.8285C173.583 69.6687 173.153 69.5888 172.649 69.5888H171.727V68.2464H172.649C173.054 68.2464 173.409 68.1737 173.714 68.0281C174.023 67.8825 174.264 67.68 174.438 67.4208C174.612 67.158 174.699 66.8509 174.699 66.4993C174.699 66.1619 174.623 65.869 174.47 65.6204C174.321 65.3683 174.108 65.1712 173.831 65.0291C173.558 64.8871 173.235 64.8161 172.862 64.8161C172.507 64.8161 172.175 64.8817 171.866 65.0131C171.56 65.141 171.312 65.3256 171.12 65.5671C170.928 65.805 170.825 66.0909 170.811 66.4247H169.218C169.236 65.8352 169.41 65.3168 169.74 64.8693C170.074 64.4219 170.514 64.0721 171.061 63.82C171.608 63.5678 172.215 63.4418 172.883 63.4418C173.583 63.4418 174.186 63.5785 174.694 63.8519C175.206 64.1218 175.6 64.4822 175.877 64.9332C176.157 65.3842 176.296 65.8778 176.292 66.4141C176.296 67.0249 176.125 67.5433 175.781 67.9695C175.44 68.3956 174.985 68.6815 174.417 68.8271V68.9123C175.142 69.0224 175.703 69.31 176.1 69.7752C176.502 70.2404 176.701 70.8175 176.697 71.5064C176.701 72.1065 176.534 72.6445 176.196 73.1204C175.862 73.5962 175.406 73.9709 174.827 74.2443C174.248 74.5142 173.586 74.6491 172.84 74.6491ZM182.508 74.6491C181.777 74.6491 181.123 74.5231 180.548 74.271C179.976 74.0188 179.524 73.669 179.19 73.2216C178.86 72.7706 178.682 72.2486 178.657 71.6555H180.33C180.351 71.9787 180.459 72.2592 180.655 72.4972C180.854 72.7315 181.113 72.9126 181.432 73.0405C181.752 73.1683 182.107 73.2322 182.498 73.2322C182.927 73.2322 183.307 73.1577 183.638 73.0085C183.972 72.8594 184.233 72.6516 184.421 72.3853C184.609 72.1154 184.703 71.8047 184.703 71.4531C184.703 71.0874 184.609 70.766 184.421 70.489C184.236 70.2085 183.964 69.9883 183.606 69.8285C183.251 69.6687 182.821 69.5888 182.317 69.5888H181.395V68.2464H182.317C182.722 68.2464 183.077 68.1737 183.382 68.0281C183.691 67.8825 183.932 67.68 184.106 67.4208C184.28 67.158 184.367 66.8509 184.367 66.4993C184.367 66.1619 184.291 65.869 184.138 65.6204C183.989 65.3683 183.776 65.1712 183.499 65.0291C183.226 64.8871 182.903 64.8161 182.53 64.8161C182.175 64.8161 181.843 64.8817 181.534 65.0131C181.228 65.141 180.98 65.3256 180.788 65.5671C180.596 65.805 180.493 66.0909 180.479 66.4247H178.886C178.904 65.8352 179.078 65.3168 179.408 64.8693C179.742 64.4219 180.182 64.0721 180.729 63.82C181.276 63.5678 181.883 63.4418 182.551 63.4418C183.251 63.4418 183.854 63.5785 184.362 63.8519C184.873 64.1218 185.268 64.4822 185.545 64.9332C185.825 65.3842 185.964 65.8778 185.96 66.4141C185.964 67.0249 185.793 67.5433 185.449 67.9695C185.108 68.3956 184.653 68.6815 184.085 68.8271V68.9123C184.81 69.0224 185.371 69.31 185.768 69.7752C186.17 70.2404 186.369 70.8175 186.365 71.5064C186.369 72.1065 186.202 72.6445 185.864 73.1204C185.53 73.5962 185.074 73.9709 184.495 74.2443C183.916 74.5142 183.254 74.6491 182.508 74.6491Z" fill="#F5F5F6"/>
<mask id="path-9-inside-3_2091_8819" fill="white">
<path d="M20 108.5H370V185.5H20V108.5Z"/>
</mask>
<path d="M370 185.5V184.5H20V185.5V186.5H370V185.5Z" fill="#1E1F2E" mask="url(#path-9-inside-3_2091_8819)"/>
<mask id="path-11-inside-4_2091_8819" fill="white">
<path d="M20 146.5C20 134.35 29.8497 124.5 42 124.5C54.1503 124.5 64 134.35 64 146.5C64 158.65 54.1503 168.5 42 168.5C29.8497 168.5 20 158.65 20 146.5Z"/>
</mask>
<path d="M20 146.5C20 134.35 29.8497 124.5 42 124.5C54.1503 124.5 64 134.35 64 146.5C64 158.65 54.1503 168.5 42 168.5C29.8497 168.5 20 158.65 20 146.5Z" fill="#13201A"/>
<path d="M20 146.5M64 146.5M64 146.5M20 146.5M42 124.5M64 146.5M42 168.5M20 146.5M42 168.5V167.5C30.402 167.5 21 158.098 21 146.5H20H19C19 159.203 29.2975 169.5 42 169.5V168.5ZM64 146.5H63C63 158.098 53.598 167.5 42 167.5V168.5V169.5C54.7025 169.5 65 159.203 65 146.5H64ZM42 124.5V125.5C53.598 125.5 63 134.902 63 146.5H64H65C65 133.797 54.7025 123.5 42 123.5V124.5ZM42 124.5V123.5C29.2975 123.5 19 133.797 19 146.5H20H21C21 134.902 30.402 125.5 42 125.5V124.5Z" fill="#34D399" fill-opacity="0.2" mask="url(#path-11-inside-4_2091_8819)"/>
<path d="M37.2434 145.636C39.391 145.636 41.1319 143.895 41.1319 141.747C41.1319 139.6 39.391 137.859 37.2434 137.859C35.0958 137.859 33.3549 139.6 33.3549 141.747C33.3549 143.895 35.0958 145.636 37.2434 145.636Z" stroke="#34D399" stroke-width="1.90106"/>
<path d="M46.7488 155.141C48.8963 155.141 50.6373 153.4 50.6373 151.253C50.6373 149.105 48.8963 147.364 46.7488 147.364C44.6012 147.364 42.8602 149.105 42.8602 151.253C42.8602 153.4 44.6012 155.141 46.7488 155.141Z" stroke="#34D399" stroke-width="1.90106"/>
<path d="M33.787 154.709L50.2052 138.291" stroke="#34D399" stroke-width="1.90106" stroke-linecap="round"/>
<path d="M81.0707 141.25V133.068H82.5994V134.4H82.7006C82.8711 133.949 83.1499 133.597 83.5369 133.345C83.924 133.089 84.3874 132.962 84.9272 132.962C85.4741 132.962 85.9322 133.089 86.3015 133.345C86.6744 133.601 86.9496 133.952 87.1271 134.4H87.2124C87.4077 133.963 87.7184 133.615 88.1445 133.356C88.5707 133.093 89.0785 132.962 89.668 132.962C90.4102 132.962 91.0156 133.194 91.4844 133.659C91.9567 134.125 92.1928 134.826 92.1928 135.763V141.25H90.6001V135.913C90.6001 135.359 90.4492 134.957 90.1474 134.709C89.8455 134.46 89.4851 134.336 89.0661 134.336C88.5476 134.336 88.1445 134.496 87.8569 134.815C87.5692 135.131 87.4254 135.538 87.4254 136.035V141.25H85.8381V135.811C85.8381 135.368 85.6996 135.011 85.4226 134.741C85.1456 134.471 84.7852 134.336 84.3413 134.336C84.0394 134.336 83.7607 134.416 83.505 134.576C83.2528 134.732 83.0487 134.95 82.8924 135.231C82.7397 135.511 82.6634 135.836 82.6634 136.206V141.25H81.0707ZM97.7739 141.415C97.0068 141.415 96.3374 141.239 95.7657 140.888C95.194 140.536 94.7501 140.044 94.434 139.412C94.118 138.78 93.96 138.042 93.96 137.196C93.96 136.348 94.118 135.605 94.434 134.97C94.7501 134.334 95.194 133.841 95.7657 133.489C96.3374 133.137 97.0068 132.962 97.7739 132.962C98.5409 132.962 99.2103 133.137 99.782 133.489C100.354 133.841 100.798 134.334 101.114 134.97C101.43 135.605 101.588 136.348 101.588 137.196C101.588 138.042 101.43 138.78 101.114 139.412C100.798 140.044 100.354 140.536 99.782 140.888C99.2103 141.239 98.5409 141.415 97.7739 141.415ZM97.7792 140.078C98.2764 140.078 98.6883 139.947 99.015 139.684C99.3417 139.421 99.5832 139.071 99.7394 138.635C99.8992 138.198 99.9791 137.717 99.9791 137.191C99.9791 136.669 99.8992 136.19 99.7394 135.753C99.5832 135.312 99.3417 134.959 99.015 134.693C98.6883 134.426 98.2764 134.293 97.7792 134.293C97.2785 134.293 96.863 134.426 96.5328 134.693C96.2061 134.959 95.9628 135.312 95.803 135.753C95.6468 136.19 95.5686 136.669 95.5686 137.191C95.5686 137.717 95.6468 138.198 95.803 138.635C95.9628 139.071 96.2061 139.421 96.5328 139.684C96.863 139.947 97.2785 140.078 97.7792 140.078ZM106.428 141.41C105.768 141.41 105.178 141.241 104.66 140.904C104.145 140.563 103.74 140.078 103.445 139.45C103.154 138.817 103.009 138.059 103.009 137.175C103.009 136.291 103.156 135.534 103.451 134.906C103.749 134.277 104.157 133.796 104.676 133.462C105.194 133.129 105.782 132.962 106.439 132.962C106.947 132.962 107.355 133.047 107.664 133.217C107.977 133.384 108.218 133.58 108.389 133.803C108.563 134.027 108.698 134.224 108.794 134.395H108.889V130.341H110.482V141.25H108.927V139.977H108.794C108.698 140.151 108.559 140.35 108.378 140.574C108.2 140.797 107.955 140.993 107.643 141.159C107.33 141.326 106.926 141.41 106.428 141.41ZM106.78 140.051C107.238 140.051 107.625 139.931 107.941 139.689C108.261 139.444 108.502 139.105 108.666 138.672C108.833 138.239 108.916 137.734 108.916 137.159C108.916 136.591 108.834 136.094 108.671 135.668C108.508 135.241 108.268 134.909 107.952 134.672C107.636 134.434 107.245 134.315 106.78 134.315C106.301 134.315 105.901 134.439 105.581 134.688C105.262 134.936 105.02 135.275 104.857 135.705C104.697 136.135 104.617 136.619 104.617 137.159C104.617 137.706 104.699 138.198 104.862 138.635C105.026 139.071 105.267 139.418 105.587 139.673C105.91 139.925 106.308 140.051 106.78 140.051ZM117.938 137.857V133.068H119.536V141.25H117.97V139.833H117.885C117.697 140.27 117.395 140.634 116.979 140.925C116.567 141.213 116.054 141.357 115.44 141.357C114.914 141.357 114.449 141.241 114.044 141.01C113.643 140.776 113.327 140.43 113.096 139.972C112.869 139.513 112.755 138.947 112.755 138.272V133.068H114.348V138.081C114.348 138.638 114.502 139.082 114.811 139.412C115.12 139.743 115.522 139.908 116.015 139.908C116.313 139.908 116.61 139.833 116.905 139.684C117.203 139.535 117.45 139.309 117.645 139.007C117.844 138.706 117.942 138.322 117.938 137.857ZM123.269 130.341V141.25H121.676V130.341H123.269ZM128.858 141.415C128.091 141.415 127.421 141.239 126.85 140.888C126.278 140.536 125.834 140.044 125.518 139.412C125.202 138.78 125.044 138.042 125.044 137.196C125.044 136.348 125.202 135.605 125.518 134.97C125.834 134.334 126.278 133.841 126.85 133.489C127.421 133.137 128.091 132.962 128.858 132.962C129.625 132.962 130.294 133.137 130.866 133.489C131.438 133.841 131.882 134.334 132.198 134.97C132.514 135.605 132.672 136.348 132.672 137.196C132.672 138.042 132.514 138.78 132.198 139.412C131.882 140.044 131.438 140.536 130.866 140.888C130.294 141.239 129.625 141.415 128.858 141.415ZM128.863 140.078C129.36 140.078 129.772 139.947 130.099 139.684C130.426 139.421 130.667 139.071 130.823 138.635C130.983 138.198 131.063 137.717 131.063 137.191C131.063 136.669 130.983 136.19 130.823 135.753C130.667 135.312 130.426 134.959 130.099 134.693C129.772 134.426 129.36 134.293 128.863 134.293C128.362 134.293 127.947 134.426 127.617 134.693C127.29 134.959 127.047 135.312 126.887 135.753C126.731 136.19 126.653 136.669 126.653 137.191C126.653 137.717 126.731 138.198 126.887 138.635C127.047 139.071 127.29 139.421 127.617 139.684C127.947 139.947 128.362 140.078 128.863 140.078ZM135.499 141.351C135.208 141.351 134.957 141.248 134.748 141.042C134.538 140.833 134.434 140.581 134.434 140.286C134.434 139.995 134.538 139.746 134.748 139.54C134.957 139.331 135.208 139.226 135.499 139.226C135.79 139.226 136.04 139.331 136.25 139.54C136.46 139.746 136.564 139.995 136.564 140.286C136.564 140.481 136.515 140.661 136.415 140.824C136.319 140.984 136.191 141.112 136.032 141.207C135.872 141.303 135.694 141.351 135.499 141.351ZM142.224 141.415C141.418 141.415 140.724 141.243 140.141 140.898C139.562 140.55 139.115 140.062 138.799 139.434C138.486 138.801 138.33 138.061 138.33 137.212C138.33 136.374 138.486 135.636 138.799 134.996C139.115 134.357 139.555 133.858 140.12 133.5C140.688 133.141 141.352 132.962 142.112 132.962C142.574 132.962 143.021 133.038 143.454 133.191C143.888 133.343 144.276 133.583 144.621 133.91C144.965 134.237 145.237 134.661 145.436 135.183C145.635 135.701 145.734 136.332 145.734 137.074V137.638H139.23V136.445H144.173C144.173 136.026 144.088 135.655 143.918 135.332C143.747 135.005 143.508 134.748 143.199 134.56C142.893 134.371 142.535 134.277 142.123 134.277C141.675 134.277 141.285 134.387 140.951 134.608C140.621 134.824 140.365 135.108 140.184 135.46C140.006 135.808 139.917 136.186 139.917 136.594V137.527C139.917 138.074 140.013 138.539 140.205 138.922C140.4 139.306 140.672 139.599 141.02 139.801C141.368 140 141.775 140.099 142.24 140.099C142.542 140.099 142.817 140.057 143.066 139.972C143.314 139.883 143.529 139.751 143.71 139.577C143.891 139.403 144.03 139.189 144.126 138.933L145.633 139.205C145.512 139.648 145.296 140.037 144.983 140.371C144.674 140.701 144.285 140.959 143.817 141.143C143.351 141.325 142.82 141.415 142.224 141.415ZM151.321 133.068V134.347H146.851V133.068H151.321ZM148.05 131.108H149.643V138.848C149.643 139.157 149.689 139.389 149.781 139.545C149.873 139.698 149.992 139.803 150.138 139.86C150.287 139.913 150.449 139.94 150.623 139.94C150.751 139.94 150.862 139.931 150.958 139.913C151.054 139.895 151.129 139.881 151.182 139.87L151.47 141.186C151.377 141.222 151.246 141.257 151.076 141.293C150.905 141.332 150.692 141.353 150.436 141.357C150.017 141.364 149.627 141.289 149.264 141.133C148.902 140.977 148.609 140.735 148.386 140.408C148.162 140.082 148.05 139.672 148.05 139.178V131.108ZM154.851 136.392V141.25H153.258V130.341H154.83V134.4H154.931C155.123 133.96 155.415 133.61 155.81 133.35C156.204 133.091 156.719 132.962 157.354 132.962C157.915 132.962 158.406 133.077 158.825 133.308C159.247 133.539 159.574 133.883 159.805 134.341C160.039 134.796 160.156 135.364 160.156 136.046V141.25H158.564V136.238C158.564 135.637 158.409 135.172 158.1 134.842C157.791 134.508 157.362 134.341 156.811 134.341C156.435 134.341 156.097 134.421 155.799 134.581C155.504 134.741 155.272 134.975 155.101 135.284C154.934 135.589 154.851 135.959 154.851 136.392Z" fill="#F5F5F6"/>
<path d="M169.031 132C169.031 129.791 170.822 128 173.031 128H182.031C184.24 128 186.031 129.791 186.031 132V141C186.031 143.209 184.24 145 182.031 145H173.031C170.822 145 169.031 143.209 169.031 141V132Z" fill="#584BEB"/>
<path d="M174.303 133.682H175.82L177.422 137.591H177.49L179.092 133.682H180.609V139.5H179.416V135.713H179.368L177.862 139.472H177.05L175.544 135.699H175.496V139.5H174.303V133.682Z" fill="white"/>
<g opacity="0.7">
<path d="M83.8778 163.395C83.2045 163.392 82.6293 163.214 82.152 162.862C81.6747 162.51 81.3097 161.997 81.0568 161.324C80.804 160.651 80.6776 159.839 80.6776 158.891C80.6776 157.945 80.804 157.136 81.0568 156.466C81.3125 155.795 81.679 155.284 82.1562 154.932C82.6364 154.58 83.2102 154.403 83.8778 154.403C84.5455 154.403 85.1179 154.581 85.5952 154.936C86.0724 155.288 86.4375 155.8 86.6903 156.47C86.946 157.138 87.0739 157.945 87.0739 158.891C87.0739 159.842 86.9474 160.655 86.6946 161.328C86.4418 161.999 86.0767 162.511 85.5994 162.866C85.1222 163.219 84.5483 163.395 83.8778 163.395ZM83.8778 162.257C84.4688 162.257 84.9304 161.969 85.2628 161.392C85.598 160.815 85.7656 159.982 85.7656 158.891C85.7656 158.166 85.6889 157.554 85.5355 157.054C85.3849 156.551 85.1676 156.17 84.8835 155.912C84.6023 155.651 84.267 155.52 83.8778 155.52C83.2898 155.52 82.8281 155.81 82.4929 156.389C82.1577 156.969 81.9886 157.803 81.9858 158.891C81.9858 159.618 82.0611 160.233 82.2116 160.736C82.3651 161.236 82.5824 161.615 82.8636 161.874C83.1449 162.129 83.483 162.257 83.8778 162.257ZM93.7887 161.801L88.8881 156.901L89.6935 156.095L94.5941 160.996L93.7887 161.801ZM89.6935 161.801L88.8881 160.996L93.7887 156.095L94.5941 156.901L89.6935 161.801ZM99.4585 163.369C98.9244 163.369 98.4442 163.267 98.0181 163.062C97.5948 162.855 97.2567 162.571 97.0039 162.21C96.7511 161.849 96.6161 161.438 96.5991 160.974H97.8775C97.9087 161.349 98.0749 161.658 98.3761 161.899C98.6772 162.141 99.038 162.261 99.4585 162.261C99.7937 162.261 100.091 162.185 100.349 162.031C100.61 161.875 100.815 161.661 100.963 161.388C101.113 161.115 101.189 160.804 101.189 160.455C101.189 160.099 101.112 159.783 100.958 159.504C100.805 159.226 100.593 159.007 100.324 158.848C100.056 158.689 99.7496 158.608 99.4031 158.605C99.1388 158.605 98.8732 158.651 98.6062 158.741C98.3391 158.832 98.1232 158.952 97.9585 159.099L96.7525 158.92L97.2425 154.523H102.041V155.652H98.3377L98.0607 158.094H98.1119C98.2823 157.929 98.5082 157.791 98.7894 157.68C99.0735 157.57 99.3775 157.514 99.7013 157.514C100.233 157.514 100.706 157.641 101.12 157.893C101.538 158.146 101.866 158.491 102.105 158.929C102.346 159.364 102.466 159.864 102.463 160.429C102.466 160.994 102.338 161.499 102.079 161.942C101.824 162.385 101.468 162.734 101.014 162.99C100.562 163.243 100.044 163.369 99.4585 163.369ZM103.836 161.545V160.48L107.607 154.523H108.447V156.091H107.914L105.217 160.361V160.429H110.386V161.545H103.836ZM107.974 163.25V161.222L107.982 160.736V154.523H109.231V163.25H107.974ZM114.909 163.395C114.236 163.392 113.661 163.214 113.183 162.862C112.706 162.51 112.341 161.997 112.088 161.324C111.835 160.651 111.709 159.839 111.709 158.891C111.709 157.945 111.835 157.136 112.088 156.466C112.344 155.795 112.71 155.284 113.188 154.932C113.668 154.58 114.241 154.403 114.909 154.403C115.577 154.403 116.149 154.581 116.626 154.936C117.104 155.288 117.469 155.8 117.722 156.47C117.977 157.138 118.105 157.945 118.105 158.891C118.105 159.842 117.979 160.655 117.726 161.328C117.473 161.999 117.108 162.511 116.631 162.866C116.153 163.219 115.58 163.395 114.909 163.395ZM114.909 162.257C115.5 162.257 115.962 161.969 116.294 161.392C116.629 160.815 116.797 159.982 116.797 158.891C116.797 158.166 116.72 157.554 116.567 157.054C116.416 156.551 116.199 156.17 115.915 155.912C115.634 155.651 115.298 155.52 114.909 155.52C114.321 155.52 113.859 155.81 113.524 156.389C113.189 156.969 113.02 157.803 113.017 158.891C113.017 159.618 113.092 160.233 113.243 160.736C113.396 161.236 113.614 161.615 113.895 161.874C114.176 162.129 114.514 162.257 114.909 162.257ZM122.455 163.382C121.81 163.382 121.255 163.244 120.789 162.969C120.326 162.69 119.968 162.3 119.715 161.797C119.465 161.291 119.34 160.699 119.34 160.02C119.34 159.349 119.465 158.759 119.715 158.247C119.968 157.736 120.32 157.337 120.772 157.05C121.226 156.763 121.757 156.619 122.365 156.619C122.735 156.619 123.093 156.68 123.439 156.803C123.786 156.925 124.097 157.116 124.373 157.378C124.648 157.639 124.865 157.979 125.025 158.396C125.184 158.811 125.263 159.315 125.263 159.909V160.361H120.06V159.406H124.015C124.015 159.071 123.946 158.774 123.81 158.516C123.674 158.254 123.482 158.048 123.235 157.898C122.99 157.747 122.703 157.672 122.374 157.672C122.016 157.672 121.703 157.76 121.436 157.936C121.172 158.109 120.968 158.337 120.823 158.618C120.681 158.896 120.61 159.199 120.61 159.526V160.271C120.61 160.709 120.686 161.081 120.84 161.388C120.996 161.695 121.213 161.929 121.492 162.091C121.77 162.25 122.096 162.33 122.468 162.33C122.709 162.33 122.929 162.295 123.128 162.227C123.327 162.156 123.499 162.051 123.644 161.912C123.789 161.773 123.9 161.601 123.976 161.396L125.182 161.614C125.086 161.969 124.912 162.28 124.662 162.547C124.415 162.811 124.104 163.017 123.729 163.165C123.357 163.31 122.932 163.382 122.455 163.382ZM127.516 163.331C127.283 163.331 127.083 163.249 126.915 163.084C126.748 162.916 126.664 162.714 126.664 162.479C126.664 162.246 126.748 162.047 126.915 161.882C127.083 161.714 127.283 161.631 127.516 161.631C127.749 161.631 127.95 161.714 128.117 161.882C128.285 162.047 128.369 162.246 128.369 162.479C128.369 162.635 128.329 162.778 128.249 162.909C128.173 163.037 128.07 163.139 127.942 163.216C127.815 163.293 127.673 163.331 127.516 163.331ZM130.915 163.331C130.682 163.331 130.482 163.249 130.314 163.084C130.146 162.916 130.062 162.714 130.062 162.479C130.062 162.246 130.146 162.047 130.314 161.882C130.482 161.714 130.682 161.631 130.915 161.631C131.148 161.631 131.348 161.714 131.516 161.882C131.683 162.047 131.767 162.246 131.767 162.479C131.767 162.635 131.727 162.778 131.648 162.909C131.571 163.037 131.469 163.139 131.341 163.216C131.213 163.293 131.071 163.331 130.915 163.331ZM134.313 163.331C134.08 163.331 133.88 163.249 133.712 163.084C133.545 162.916 133.461 162.714 133.461 162.479C133.461 162.246 133.545 162.047 133.712 161.882C133.88 161.714 134.08 161.631 134.313 161.631C134.546 161.631 134.746 161.714 134.914 161.882C135.082 162.047 135.165 162.246 135.165 162.479C135.165 162.635 135.126 162.778 135.046 162.909C134.969 163.037 134.867 163.139 134.739 163.216C134.612 163.293 134.469 163.331 134.313 163.331ZM136.926 163.25L140.736 155.716V155.652H136.33V154.523H142.1V155.69L138.303 163.25H136.926ZM143.582 163.25V162.295L146.535 159.236C146.85 158.903 147.11 158.612 147.315 158.362C147.522 158.109 147.677 157.869 147.779 157.642C147.881 157.415 147.933 157.173 147.933 156.918C147.933 156.628 147.864 156.378 147.728 156.168C147.592 155.955 147.406 155.791 147.17 155.678C146.934 155.561 146.668 155.503 146.373 155.503C146.06 155.503 145.788 155.567 145.555 155.695C145.322 155.822 145.143 156.003 145.018 156.236C144.893 156.469 144.83 156.741 144.83 157.054H143.573C143.573 156.523 143.695 156.058 143.94 155.661C144.184 155.263 144.519 154.955 144.945 154.736C145.371 154.514 145.856 154.403 146.398 154.403C146.947 154.403 147.43 154.513 147.847 154.732C148.268 154.947 148.596 155.243 148.832 155.618C149.067 155.99 149.185 156.411 149.185 156.879C149.185 157.203 149.124 157.52 149.002 157.83C148.883 158.139 148.674 158.484 148.376 158.865C148.077 159.243 147.663 159.702 147.131 160.241L145.397 162.057V162.121H149.326V163.25H143.582ZM153.988 163.369C153.599 163.364 153.215 163.293 152.837 163.156C152.462 163.02 152.121 162.793 151.815 162.474C151.508 162.156 151.262 161.729 151.077 161.192C150.896 160.655 150.805 159.984 150.805 159.18C150.805 158.419 150.88 157.743 151.031 157.152C151.184 156.561 151.404 156.062 151.691 155.656C151.978 155.247 152.325 154.936 152.731 154.723C153.137 154.51 153.593 154.403 154.099 154.403C154.619 154.403 155.08 154.506 155.484 154.71C155.887 154.915 156.214 155.197 156.464 155.558C156.717 155.919 156.877 156.33 156.945 156.79H155.646C155.558 156.426 155.383 156.129 155.121 155.899C154.86 155.669 154.519 155.554 154.099 155.554C153.46 155.554 152.961 155.832 152.603 156.389C152.248 156.946 152.069 157.72 152.066 158.712H152.13C152.281 158.464 152.465 158.254 152.684 158.081C152.906 157.905 153.153 157.77 153.425 157.676C153.701 157.58 153.991 157.531 154.295 157.531C154.8 157.531 155.258 157.655 155.667 157.902C156.079 158.146 156.407 158.484 156.651 158.916C156.896 159.348 157.018 159.842 157.018 160.399C157.018 160.956 156.891 161.46 156.638 161.912C156.388 162.364 156.036 162.722 155.582 162.986C155.127 163.247 154.596 163.375 153.988 163.369ZM153.984 162.261C154.319 162.261 154.619 162.179 154.883 162.014C155.147 161.849 155.356 161.628 155.509 161.349C155.663 161.071 155.739 160.76 155.739 160.416C155.739 160.081 155.664 159.776 155.513 159.5C155.366 159.224 155.161 159.006 154.9 158.844C154.641 158.682 154.346 158.601 154.013 158.601C153.761 158.601 153.526 158.649 153.31 158.746C153.097 158.842 152.91 158.976 152.748 159.146C152.586 159.317 152.458 159.513 152.364 159.734C152.273 159.953 152.228 160.185 152.228 160.429C152.228 160.756 152.303 161.058 152.454 161.337C152.607 161.615 152.816 161.839 153.08 162.01C153.347 162.178 153.648 162.261 153.984 162.261ZM158.57 163.25V162.295L161.523 159.236C161.838 158.903 162.098 158.612 162.303 158.362C162.51 158.109 162.665 157.869 162.767 157.642C162.87 157.415 162.921 157.173 162.921 156.918C162.921 156.628 162.853 156.378 162.716 156.168C162.58 155.955 162.394 155.791 162.158 155.678C161.922 155.561 161.657 155.503 161.361 155.503C161.049 155.503 160.776 155.567 160.543 155.695C160.31 155.822 160.131 156.003 160.006 156.236C159.881 156.469 159.819 156.741 159.819 157.054H158.561C158.561 156.523 158.684 156.058 158.928 155.661C159.172 155.263 159.507 154.955 159.934 154.736C160.36 154.514 160.844 154.403 161.387 154.403C161.935 154.403 162.418 154.513 162.836 154.732C163.256 154.947 163.584 155.243 163.82 155.618C164.056 155.99 164.174 156.411 164.174 156.879C164.174 157.203 164.113 157.52 163.99 157.83C163.871 158.139 163.662 158.484 163.364 158.865C163.066 159.243 162.651 159.702 162.12 160.241L160.385 162.057V162.121H164.314V163.25H158.57Z" fill="#87878C"/>
</g>
<mask id="path-20-inside-5_2091_8819" fill="white">
<path d="M20 185.5H370V262.5H20V185.5Z"/>
</mask>
<path d="M370 262.5V261.5H20V262.5V263.5H370V262.5Z" fill="#1E1F2E" mask="url(#path-20-inside-5_2091_8819)"/>
<mask id="path-22-inside-6_2091_8819" fill="white">
<path d="M20 223.5C20 211.35 29.8497 201.5 42 201.5C54.1503 201.5 64 211.35 64 223.5C64 235.65 54.1503 245.5 42 245.5C29.8497 245.5 20 235.65 20 223.5Z"/>
</mask>
<path d="M20 223.5C20 211.35 29.8497 201.5 42 201.5C54.1503 201.5 64 211.35 64 223.5C64 235.65 54.1503 245.5 42 245.5C29.8497 245.5 20 235.65 20 223.5Z" fill="#201318"/>
<path d="M20 223.5M64 223.5M64 223.5M20 223.5M42 201.5M64 223.5M42 245.5M20 223.5M42 245.5V244.5C30.402 244.5 21 235.098 21 223.5H20H19C19 236.203 29.2975 246.5 42 246.5V245.5ZM64 223.5H63C63 235.098 53.598 244.5 42 244.5V245.5V246.5C54.7025 246.5 65 236.203 65 223.5H64ZM42 201.5V202.5C53.598 202.5 63 211.902 63 223.5H64H65C65 210.797 54.7025 200.5 42 200.5V201.5ZM42 201.5V200.5C29.2975 200.5 19 210.797 19 223.5H20H21C21 211.902 30.402 202.5 42 202.5V201.5Z" fill="#F87171" fill-opacity="0.2" mask="url(#path-22-inside-6_2091_8819)"/>
<path d="M37.2434 222.636C39.391 222.636 41.1319 220.895 41.1319 218.747C41.1319 216.6 39.391 214.859 37.2434 214.859C35.0958 214.859 33.3549 216.6 33.3549 218.747C33.3549 220.895 35.0958 222.636 37.2434 222.636Z" stroke="#F87171" stroke-width="1.90106"/>
<path d="M46.7488 232.141C48.8963 232.141 50.6373 230.4 50.6373 228.253C50.6373 226.105 48.8963 224.364 46.7488 224.364C44.6012 224.364 42.8602 226.105 42.8602 228.253C42.8602 230.4 44.6012 232.141 46.7488 232.141Z" stroke="#F87171" stroke-width="1.90106"/>
<path d="M33.787 231.709L50.2052 215.291" stroke="#F87171" stroke-width="1.90106" stroke-linecap="round"/>
<path d="M84.8473 228.681C84.0057 228.678 83.2866 228.456 82.69 228.015C82.0934 227.575 81.6371 226.934 81.321 226.092C81.005 225.251 80.8469 224.237 80.8469 223.051C80.8469 221.868 81.005 220.858 81.321 220.02C81.6406 219.182 82.0987 218.543 82.6953 218.102C83.2955 217.662 84.0128 217.442 84.8473 217.442C85.6818 217.442 86.3974 217.664 86.994 218.108C87.5906 218.548 88.0469 219.187 88.3629 220.025C88.6825 220.86 88.8423 221.868 88.8423 223.051C88.8423 224.24 88.6843 225.256 88.3683 226.098C88.0522 226.936 87.5959 227.577 86.9993 228.021C86.4027 228.461 85.6854 228.681 84.8473 228.681ZM84.8473 227.259C85.5859 227.259 86.163 226.898 86.5785 226.178C86.9975 225.457 87.207 224.414 87.207 223.051C87.207 222.145 87.1112 221.38 86.9194 220.755C86.7312 220.126 86.4595 219.651 86.1044 219.327C85.7528 219.001 85.3338 218.837 84.8473 218.837C84.1122 218.837 83.5352 219.2 83.1161 219.924C82.6971 220.648 82.4858 221.691 82.4822 223.051C82.4822 223.96 82.5763 224.729 82.7646 225.357C82.9563 225.982 83.228 226.456 83.5795 226.779C83.9311 227.099 84.3537 227.259 84.8473 227.259ZM92.0104 220.318L93.8161 223.504L95.6379 220.318H97.3797L94.8282 224.409L97.401 228.5H95.6592L93.8161 225.442L91.9784 228.5H90.2313L92.7774 224.409L90.2632 220.318H92.0104ZM99.1428 228.5V217.591H100.736V221.645H100.831C100.924 221.474 101.057 221.277 101.231 221.053C101.405 220.83 101.646 220.634 101.955 220.467C102.264 220.297 102.673 220.212 103.18 220.212C103.841 220.212 104.43 220.379 104.949 220.712C105.467 221.046 105.874 221.527 106.169 222.156C106.467 222.784 106.616 223.541 106.616 224.425C106.616 225.309 106.469 226.067 106.174 226.7C105.879 227.328 105.475 227.813 104.96 228.154C104.445 228.491 103.857 228.66 103.196 228.66C102.699 228.66 102.293 228.576 101.977 228.409C101.664 228.243 101.419 228.047 101.242 227.824C101.064 227.6 100.927 227.401 100.831 227.227H100.698V228.5H99.1428ZM100.704 224.409C100.704 224.984 100.787 225.489 100.954 225.922C101.121 226.355 101.362 226.694 101.678 226.939C101.994 227.181 102.381 227.301 102.84 227.301C103.315 227.301 103.713 227.175 104.033 226.923C104.352 226.668 104.594 226.321 104.757 225.885C104.924 225.448 105.008 224.956 105.008 224.409C105.008 223.869 104.926 223.385 104.763 222.955C104.603 222.525 104.361 222.186 104.038 221.938C103.718 221.689 103.319 221.565 102.84 221.565C102.378 221.565 101.987 221.684 101.668 221.922C101.352 222.159 101.112 222.491 100.949 222.918C100.785 223.344 100.704 223.841 100.704 224.409ZM111.984 228.649C111.317 228.649 110.716 228.521 110.184 228.266C109.655 228.006 109.232 227.651 108.916 227.2C108.6 226.749 108.431 226.234 108.41 225.656H110.008C110.047 226.124 110.255 226.51 110.631 226.811C111.008 227.113 111.459 227.264 111.984 227.264C112.403 227.264 112.774 227.168 113.097 226.977C113.424 226.781 113.68 226.513 113.865 226.172C114.053 225.831 114.147 225.442 114.147 225.006C114.147 224.562 114.051 224.166 113.859 223.818C113.667 223.47 113.403 223.196 113.066 222.998C112.732 222.799 112.348 222.697 111.915 222.694C111.585 222.694 111.253 222.751 110.919 222.864C110.585 222.978 110.315 223.127 110.109 223.312L108.602 223.088L109.214 217.591H115.212V219.002H110.583L110.237 222.055H110.301C110.514 221.849 110.796 221.676 111.148 221.538C111.503 221.4 111.883 221.33 112.288 221.33C112.952 221.33 113.543 221.488 114.062 221.804C114.584 222.12 114.994 222.552 115.292 223.099C115.594 223.642 115.743 224.267 115.74 224.974C115.743 225.68 115.583 226.311 115.26 226.865C114.941 227.419 114.497 227.855 113.928 228.175C113.364 228.491 112.716 228.649 111.984 228.649ZM118.756 228.5H117.009L120.934 217.591H122.836L126.762 228.5H125.015L121.93 219.572H121.845L118.756 228.5ZM119.049 224.228H124.716V225.613H119.049V224.228ZM131.816 217.442C132.302 217.445 132.781 217.534 133.254 217.708C133.726 217.882 134.152 218.166 134.532 218.56C134.916 218.955 135.221 219.487 135.448 220.158C135.679 220.826 135.796 221.657 135.8 222.651C135.8 223.607 135.704 224.457 135.512 225.203C135.32 225.945 135.045 226.572 134.687 227.083C134.331 227.594 133.9 227.983 133.392 228.25C132.884 228.516 132.313 228.649 131.677 228.649C131.027 228.649 130.45 228.521 129.946 228.266C129.442 228.01 129.031 227.657 128.715 227.206C128.399 226.751 128.202 226.229 128.124 225.64H129.749C129.855 226.108 130.072 226.488 130.399 226.779C130.729 227.067 131.155 227.211 131.677 227.211C132.476 227.211 133.099 226.863 133.547 226.167C133.994 225.467 134.22 224.491 134.223 223.237H134.138C133.953 223.543 133.722 223.805 133.445 224.026C133.172 224.246 132.865 224.416 132.524 224.537C132.183 224.658 131.819 224.718 131.432 224.718C130.803 224.718 130.232 224.564 129.717 224.255C129.202 223.946 128.792 223.521 128.486 222.982C128.181 222.442 128.028 221.826 128.028 221.133C128.028 220.444 128.184 219.819 128.497 219.258C128.813 218.697 129.253 218.253 129.818 217.926C130.386 217.596 131.052 217.435 131.816 217.442ZM131.821 218.827C131.405 218.827 131.031 218.93 130.697 219.136C130.367 219.338 130.106 219.613 129.914 219.961C129.722 220.306 129.626 220.689 129.626 221.112C129.626 221.534 129.719 221.918 129.903 222.262C130.091 222.603 130.347 222.875 130.67 223.077C130.997 223.276 131.37 223.376 131.789 223.376C132.101 223.376 132.393 223.315 132.662 223.195C132.932 223.074 133.169 222.907 133.371 222.694C133.573 222.477 133.731 222.232 133.845 221.959C133.959 221.685 134.015 221.398 134.015 221.096C134.015 220.695 133.92 220.322 133.728 219.977C133.54 219.633 133.28 219.356 132.95 219.146C132.62 218.933 132.243 218.827 131.821 218.827ZM138.399 228.601C138.108 228.601 137.858 228.498 137.648 228.292C137.439 228.083 137.334 227.831 137.334 227.536C137.334 227.245 137.439 226.996 137.648 226.79C137.858 226.581 138.108 226.476 138.399 226.476C138.691 226.476 138.941 226.581 139.15 226.79C139.36 226.996 139.465 227.245 139.465 227.536C139.465 227.731 139.415 227.911 139.316 228.074C139.22 228.234 139.092 228.362 138.932 228.457C138.772 228.553 138.595 228.601 138.399 228.601ZM142.647 228.601C142.356 228.601 142.106 228.498 141.896 228.292C141.687 228.083 141.582 227.831 141.582 227.536C141.582 227.245 141.687 226.996 141.896 226.79C142.106 226.581 142.356 226.476 142.647 226.476C142.939 226.476 143.189 226.581 143.398 226.79C143.608 226.996 143.713 227.245 143.713 227.536C143.713 227.731 143.663 227.911 143.564 228.074C143.468 228.234 143.34 228.362 143.18 228.457C143.02 228.553 142.843 228.601 142.647 228.601ZM146.895 228.601C146.604 228.601 146.354 228.498 146.144 228.292C145.935 228.083 145.83 227.831 145.83 227.536C145.83 227.245 145.935 226.996 146.144 226.79C146.354 226.581 146.604 226.476 146.895 226.476C147.187 226.476 147.437 226.581 147.646 226.79C147.856 226.996 147.961 227.245 147.961 227.536C147.961 227.731 147.911 227.911 147.812 228.074C147.716 228.234 147.588 228.362 147.428 228.457C147.268 228.553 147.091 228.601 146.895 228.601ZM153.754 228.5H150.222V217.591H153.865C154.934 217.591 155.852 217.809 156.619 218.246C157.386 218.679 157.974 219.303 158.382 220.116C158.794 220.925 159 221.897 159 223.029C159 224.166 158.793 225.142 158.377 225.959C157.965 226.776 157.369 227.404 156.587 227.845C155.806 228.282 154.862 228.5 153.754 228.5ZM151.868 227.062H153.663C154.494 227.062 155.185 226.906 155.735 226.593C156.286 226.277 156.697 225.821 156.971 225.224C157.244 224.624 157.381 223.892 157.381 223.029C157.381 222.174 157.244 221.447 156.971 220.851C156.701 220.254 156.298 219.801 155.762 219.493C155.225 219.184 154.56 219.029 153.764 219.029H151.868V227.062ZM161.047 228.5V217.591H162.64V221.645H162.736C162.828 221.474 162.961 221.277 163.135 221.053C163.309 220.83 163.551 220.634 163.86 220.467C164.169 220.297 164.577 220.212 165.085 220.212C165.745 220.212 166.335 220.379 166.853 220.712C167.372 221.046 167.778 221.527 168.073 222.156C168.371 222.784 168.521 223.541 168.521 224.425C168.521 225.309 168.373 226.067 168.078 226.7C167.784 227.328 167.379 227.813 166.864 228.154C166.349 228.491 165.761 228.66 165.101 228.66C164.604 228.66 164.197 228.576 163.881 228.409C163.568 228.243 163.323 228.047 163.146 227.824C162.968 227.6 162.832 227.401 162.736 227.227H162.603V228.5H161.047ZM162.608 224.409C162.608 224.984 162.691 225.489 162.858 225.922C163.025 226.355 163.267 226.694 163.583 226.939C163.899 227.181 164.286 227.301 164.744 227.301C165.22 227.301 165.617 227.175 165.937 226.923C166.257 226.668 166.498 226.321 166.661 225.885C166.828 225.448 166.912 224.956 166.912 224.409C166.912 223.869 166.83 223.385 166.667 222.955C166.507 222.525 166.266 222.186 165.942 221.938C165.623 221.689 165.223 221.565 164.744 221.565C164.282 221.565 163.892 221.684 163.572 221.922C163.256 222.159 163.016 222.491 162.853 222.918C162.69 223.344 162.608 223.841 162.608 224.409ZM174.086 228.649C173.354 228.649 172.701 228.523 172.125 228.271C171.554 228.019 171.101 227.669 170.767 227.222C170.437 226.771 170.259 226.249 170.234 225.656H171.907C171.928 225.979 172.037 226.259 172.232 226.497C172.431 226.732 172.69 226.913 173.01 227.04C173.329 227.168 173.684 227.232 174.075 227.232C174.505 227.232 174.885 227.158 175.215 227.009C175.549 226.859 175.81 226.652 175.998 226.385C176.186 226.115 176.28 225.805 176.28 225.453C176.28 225.087 176.186 224.766 175.998 224.489C175.813 224.208 175.542 223.988 175.183 223.828C174.828 223.669 174.398 223.589 173.894 223.589H172.972V222.246H173.894C174.299 222.246 174.654 222.174 174.959 222.028C175.268 221.882 175.51 221.68 175.684 221.421C175.858 221.158 175.945 220.851 175.945 220.499C175.945 220.162 175.868 219.869 175.716 219.62C175.566 219.368 175.353 219.171 175.076 219.029C174.803 218.887 174.48 218.816 174.107 218.816C173.752 218.816 173.42 218.882 173.111 219.013C172.805 219.141 172.557 219.326 172.365 219.567C172.173 219.805 172.07 220.091 172.056 220.425H170.463C170.481 219.835 170.655 219.317 170.985 218.869C171.319 218.422 171.76 218.072 172.306 217.82C172.853 217.568 173.461 217.442 174.128 217.442C174.828 217.442 175.431 217.578 175.939 217.852C176.451 218.122 176.845 218.482 177.122 218.933C177.402 219.384 177.541 219.878 177.537 220.414C177.541 221.025 177.37 221.543 177.026 221.969C176.685 222.396 176.23 222.681 175.662 222.827V222.912C176.387 223.022 176.948 223.31 177.346 223.775C177.747 224.24 177.946 224.817 177.942 225.506C177.946 226.107 177.779 226.645 177.441 227.12C177.108 227.596 176.651 227.971 176.072 228.244C175.494 228.514 174.831 228.649 174.086 228.649ZM182.358 228.681C181.839 228.681 181.371 228.585 180.952 228.393C180.533 228.198 180.201 227.916 179.956 227.547C179.714 227.177 179.593 226.724 179.593 226.188C179.593 225.727 179.682 225.347 179.86 225.048C180.037 224.75 180.277 224.514 180.579 224.34C180.881 224.166 181.218 224.034 181.591 223.946C181.964 223.857 182.344 223.789 182.731 223.743C183.221 223.686 183.619 223.64 183.924 223.605C184.229 223.566 184.451 223.504 184.59 223.418C184.728 223.333 184.798 223.195 184.798 223.003V222.966C184.798 222.5 184.666 222.14 184.403 221.884C184.144 221.629 183.757 221.501 183.242 221.501C182.706 221.501 182.283 221.62 181.974 221.858C181.669 222.092 181.458 222.353 181.341 222.641L179.844 222.3C180.021 221.803 180.281 221.401 180.621 221.096C180.966 220.787 181.362 220.563 181.809 220.425C182.257 220.283 182.727 220.212 183.221 220.212C183.548 220.212 183.894 220.251 184.26 220.329C184.629 220.403 184.973 220.542 185.293 220.744C185.616 220.947 185.881 221.236 186.087 221.613C186.293 221.985 186.396 222.47 186.396 223.067V228.5H184.84V227.381H184.776C184.673 227.587 184.519 227.79 184.313 227.989C184.107 228.187 183.842 228.353 183.519 228.484C183.196 228.615 182.809 228.681 182.358 228.681ZM182.704 227.403C183.145 227.403 183.521 227.316 183.833 227.142C184.15 226.968 184.389 226.74 184.553 226.46C184.719 226.176 184.803 225.872 184.803 225.549V224.494C184.746 224.551 184.636 224.604 184.473 224.654C184.313 224.7 184.13 224.741 183.924 224.777C183.718 224.809 183.517 224.839 183.322 224.867C183.127 224.892 182.963 224.913 182.832 224.931C182.523 224.97 182.241 225.036 181.985 225.128C181.733 225.221 181.531 225.354 181.378 225.528C181.229 225.698 181.154 225.925 181.154 226.21C181.154 226.604 181.3 226.902 181.591 227.104C181.882 227.303 182.253 227.403 182.704 227.403Z" fill="#F5F5F6"/>
<g opacity="0.7">
<path d="M21.1449 15V5.54545H24.3395C25.0781 5.54545 25.6844 5.67164 26.1584 5.92401C26.6323 6.17329 26.9832 6.51645 27.2109 6.95348C27.4387 7.39051 27.5526 7.88755 27.5526 8.4446C27.5526 9.00166 27.4387 9.49562 27.2109 9.92649C26.9832 10.3574 26.6339 10.6959 26.163 10.9421C25.6921 11.1853 25.0904 11.3068 24.358 11.3068H21.7727V10.2727H24.321C24.8258 10.2727 25.232 10.1989 25.5398 10.0511C25.8506 9.90341 26.0753 9.69413 26.2138 9.4233C26.3554 9.14938 26.4261 8.82315 26.4261 8.4446C26.4261 8.06605 26.3554 7.7352 26.2138 7.45206C26.0722 7.16892 25.846 6.9504 25.5352 6.79652C25.2243 6.63956 24.8134 6.56108 24.3026 6.56108H22.2898V15H21.1449ZM25.5952 10.7528L27.9219 15H26.5923L24.3026 10.7528H25.5952ZM32.2094 15.1477C31.5262 15.1477 30.9368 14.9969 30.4413 14.6953C29.9489 14.3906 29.5688 13.9659 29.301 13.4212C29.0364 12.8733 28.904 12.2363 28.904 11.5099C28.904 10.7836 29.0364 10.1435 29.301 9.58949C29.5688 9.03243 29.9412 8.59848 30.4182 8.28764C30.8983 7.97372 31.4585 7.81676 32.0986 7.81676C32.468 7.81676 32.8327 7.87831 33.1927 8.00142C33.5528 8.12453 33.8806 8.32457 34.176 8.60156C34.4715 8.87547 34.7069 9.23864 34.8824 9.69105C35.0578 10.1435 35.1455 10.7005 35.1455 11.3622V11.8239H29.6796V10.8821H34.0376C34.0376 10.482 33.9575 10.125 33.7975 9.81108C33.6405 9.49716 33.4159 9.24941 33.1235 9.06783C32.8342 8.88625 32.4926 8.79545 32.0986 8.79545C31.6647 8.79545 31.2892 8.90317 30.9722 9.11861C30.6583 9.33097 30.4167 9.60795 30.2474 9.94957C30.0782 10.2912 29.9935 10.6574 29.9935 11.0483V11.6761C29.9935 12.2116 30.0858 12.6656 30.2705 13.038C30.4582 13.4073 30.7183 13.6889 31.0507 13.8828C31.3831 14.0736 31.7693 14.169 32.2094 14.169C32.4957 14.169 32.7542 14.129 32.985 14.049C33.2189 13.9659 33.4205 13.8428 33.5898 13.6797C33.759 13.5135 33.8898 13.3073 33.9822 13.0611L35.0347 13.3565C34.9239 13.7135 34.7377 14.0275 34.4761 14.2983C34.2145 14.5661 33.8914 14.7753 33.5067 14.9261C33.122 15.0739 32.6895 15.1477 32.2094 15.1477ZM39.6835 15.1477C39.0187 15.1477 38.4463 14.9908 37.9662 14.6768C37.4861 14.3629 37.1167 13.9305 36.8582 13.3796C36.5997 12.8287 36.4704 12.1993 36.4704 11.4915C36.4704 10.7713 36.6028 10.1358 36.8675 9.58487C37.1352 9.03089 37.5076 8.59848 37.9846 8.28764C38.4648 7.97372 39.0249 7.81676 39.665 7.81676C40.1636 7.81676 40.613 7.90909 41.0131 8.09375C41.4131 8.27841 41.7409 8.53693 41.9964 8.86932C42.2518 9.2017 42.4103 9.58949 42.4719 10.0327H41.3824C41.2993 9.70952 41.1146 9.4233 40.8284 9.17401C40.5452 8.92164 40.1636 8.79545 39.6835 8.79545C39.2588 8.79545 38.8864 8.90625 38.5663 9.12784C38.2493 9.34635 38.0016 9.65566 37.8231 10.0558C37.6476 10.4528 37.5599 10.919 37.5599 11.4545C37.5599 12.0024 37.6461 12.4794 37.8184 12.8857C37.9939 13.2919 38.2401 13.6074 38.5571 13.832C38.8772 14.0567 39.2526 14.169 39.6835 14.169C39.9666 14.169 40.2236 14.1198 40.4545 14.0213C40.6853 13.9228 40.8807 13.7812 41.0407 13.5966C41.2008 13.4119 41.3147 13.1903 41.3824 12.9318H42.4719C42.4103 13.3504 42.258 13.7274 42.0148 14.0629C41.7748 14.3952 41.4562 14.6599 41.0592 14.8569C40.6653 15.0508 40.2067 15.1477 39.6835 15.1477ZM47.0376 15.1477C46.3543 15.1477 45.7649 14.9969 45.2694 14.6953C44.777 14.3906 44.3969 13.9659 44.1292 13.4212C43.8645 12.8733 43.7322 12.2363 43.7322 11.5099C43.7322 10.7836 43.8645 10.1435 44.1292 9.58949C44.3969 9.03243 44.7693 8.59848 45.2464 8.28764C45.7265 7.97372 46.2866 7.81676 46.9268 7.81676C47.2961 7.81676 47.6608 7.87831 48.0209 8.00142C48.3809 8.12453 48.7087 8.32457 49.0042 8.60156C49.2996 8.87547 49.5351 9.23864 49.7105 9.69105C49.8859 10.1435 49.9736 10.7005 49.9736 11.3622V11.8239H44.5077V10.8821H48.8657C48.8657 10.482 48.7857 10.125 48.6256 9.81108C48.4687 9.49716 48.244 9.24941 47.9516 9.06783C47.6623 8.88625 47.3207 8.79545 46.9268 8.79545C46.4928 8.79545 46.1173 8.90317 45.8003 9.11861C45.4864 9.33097 45.2448 9.60795 45.0756 9.94957C44.9063 10.2912 44.8216 10.6574 44.8216 11.0483V11.6761C44.8216 12.2116 44.914 12.6656 45.0986 13.038C45.2864 13.4073 45.5464 13.6889 45.8788 13.8828C46.2112 14.0736 46.5974 14.169 47.0376 14.169C47.3238 14.169 47.5823 14.129 47.8131 14.049C48.047 13.9659 48.2486 13.8428 48.4179 13.6797C48.5872 13.5135 48.718 13.3073 48.8103 13.0611L49.8628 13.3565C49.752 13.7135 49.5658 14.0275 49.3042 14.2983C49.0426 14.5661 48.7195 14.7753 48.3348 14.9261C47.9501 15.0739 47.5177 15.1477 47.0376 15.1477ZM52.7204 10.7344V15H51.6309V7.90909H52.6835V9.01705H52.7758C52.942 8.65696 53.1944 8.36766 53.5329 8.14915C53.8715 7.92756 54.3085 7.81676 54.844 7.81676C55.3241 7.81676 55.7442 7.91525 56.1043 8.11222C56.4644 8.30611 56.7445 8.60156 56.9445 8.99858C57.1446 9.39252 57.2446 9.8911 57.2446 10.4943V15H56.1551V10.5682C56.1551 10.0111 56.0104 9.57718 55.7211 9.26633C55.4318 8.95241 55.0348 8.79545 54.5301 8.79545C54.1823 8.79545 53.8715 8.87086 53.5976 9.02166C53.3267 9.17247 53.1128 9.39252 52.9559 9.68182C52.7989 9.97112 52.7204 10.322 52.7204 10.7344ZM62.3192 7.90909V8.83239H58.6445V7.90909H62.3192ZM59.7156 6.21023H60.805V12.9688C60.805 13.2765 60.8497 13.5073 60.9389 13.6612C61.0313 13.812 61.1482 13.9136 61.2898 13.9659C61.4344 14.0152 61.5868 14.0398 61.7468 14.0398C61.8668 14.0398 61.9653 14.0336 62.0423 14.0213C62.1192 14.0059 62.1808 13.9936 62.2269 13.9844L62.4485 14.9631C62.3746 14.9908 62.2715 15.0185 62.1392 15.0462C62.0069 15.0769 61.8391 15.0923 61.636 15.0923C61.3282 15.0923 61.0266 15.0262 60.7312 14.8938C60.4388 14.7615 60.1957 14.5599 60.0018 14.2891C59.811 14.0182 59.7156 13.6766 59.7156 13.2642V6.21023Z" fill="#87878C"/>
</g>
</g>
<defs>
<clipPath id="clip0_2091_8819">
<rect width="390" height="646.5" fill="white"/>
</clipPath>
</defs>
</svg>
