<svg width="390" height="38" viewBox="0 0 390 38" fill="none" xmlns="http://www.w3.org/2000/svg">
<mask id="path-1-inside-1_2091_8659" fill="white">
<path d="M16 14C16 6.26801 22.268 0 30 0H85.5C93.232 0 99.5 6.26801 99.5 14V23.5C99.5 31.232 93.232 37.5 85.5 37.5H30C22.268 37.5 16 31.232 16 23.5V14Z"/>
</mask>
<path d="M16 14C16 6.26801 22.268 0 30 0H85.5C93.232 0 99.5 6.26801 99.5 14V23.5C99.5 31.232 93.232 37.5 85.5 37.5H30C22.268 37.5 16 31.232 16 23.5V14Z" fill="#13141F"/>
<path d="M30 0V1H85.5V0V-1H30V0ZM99.5 14H98.5V23.5H99.5H100.5V14H99.5ZM85.5 37.5V36.5H30V37.5V38.5H85.5V37.5ZM16 23.5H17V14H16H15V23.5H16ZM30 37.5V36.5C22.8203 36.5 17 30.6797 17 23.5H16H15C15 31.7843 21.7157 38.5 30 38.5V37.5ZM99.5 23.5H98.5C98.5 30.6797 92.6797 36.5 85.5 36.5V37.5V38.5C93.7843 38.5 100.5 31.7843 100.5 23.5H99.5ZM85.5 0V1C92.6797 1 98.5 6.8203 98.5 14H99.5H100.5C100.5 5.71573 93.7843 -1 85.5 -1V0ZM30 0V-1C21.7157 -1 15 5.71573 15 14H16H17C17 6.8203 22.8203 1 30 1V0Z" fill="#1E1F2E" mask="url(#path-1-inside-1_2091_8659)"/>
<path d="M45.3767 24V22.9659L48.576 19.6513C48.9176 19.2912 49.1992 18.9757 49.4208 18.7049C49.6454 18.431 49.8132 18.1709 49.924 17.9247C50.0348 17.6785 50.0902 17.4169 50.0902 17.1399C50.0902 16.826 50.0163 16.5552 49.8686 16.3274C49.7208 16.0966 49.5193 15.9196 49.2638 15.7965C49.0084 15.6703 48.7206 15.6072 48.4005 15.6072C48.062 15.6072 47.7665 15.6765 47.5142 15.815C47.2618 15.9535 47.0679 16.1489 46.9325 16.4013C46.7971 16.6536 46.7294 16.9491 46.7294 17.2876H45.3675C45.3675 16.7121 45.4998 16.2089 45.7645 15.7781C46.0292 15.3472 46.3924 15.0133 46.854 14.7763C47.3157 14.5362 47.8404 14.4162 48.4282 14.4162C49.0222 14.4162 49.5454 14.5347 49.9978 14.7717C50.4533 15.0056 50.8088 15.3256 51.0642 15.7319C51.3197 16.1351 51.4474 16.5906 51.4474 17.0984C51.4474 17.4492 51.3812 17.7924 51.2489 18.1278C51.1196 18.4633 50.8934 18.8372 50.5703 19.2496C50.2471 19.659 49.7978 20.156 49.2223 20.7408L47.3434 22.7074V22.7766H51.5997V24H45.3767ZM56.4701 24.1293C55.8915 24.1293 55.3714 24.0185 54.9098 23.7969C54.4512 23.5722 54.0849 23.2644 53.811 22.8736C53.5371 22.4827 53.3909 22.0365 53.3725 21.5348H54.7574C54.7913 21.9411 54.9713 22.275 55.2975 22.5366C55.6238 22.7982 56.0146 22.929 56.4701 22.929C56.8333 22.929 57.1549 22.8459 57.435 22.6797C57.7181 22.5104 57.9397 22.2781 58.0997 21.9826C58.2629 21.6871 58.3444 21.3501 58.3444 20.9716C58.3444 20.5869 58.2613 20.2437 58.0951 19.9421C57.9289 19.6405 57.6996 19.4035 57.4073 19.2312C57.118 19.0588 56.7856 18.9711 56.4101 18.968C56.1239 18.968 55.8361 19.0173 55.5468 19.1158C55.2575 19.2143 55.0236 19.3435 54.8451 19.5036L53.5387 19.3097L54.0696 14.5455H59.2677V15.7688H55.256L54.9559 18.4141H55.0113C55.196 18.2356 55.4407 18.0863 55.7453 17.9663C56.0531 17.8462 56.3824 17.7862 56.7333 17.7862C57.3088 17.7862 57.8212 17.9232 58.2706 18.1971C58.723 18.471 59.0784 18.8449 59.337 19.3189C59.5986 19.7898 59.7278 20.3314 59.7247 20.9439C59.7278 21.5563 59.5893 22.1026 59.3093 22.5827C59.0323 23.0629 58.6476 23.4414 58.1551 23.7184C57.6658 23.9923 57.1041 24.1293 56.4701 24.1293ZM66.3459 22.2273V21.7287C66.3459 21.3717 66.4198 21.0455 66.5675 20.75C66.7183 20.4515 66.9368 20.2129 67.2231 20.0344C67.5124 19.8529 67.8617 19.7621 68.271 19.7621C68.6896 19.7621 69.0404 19.8513 69.3236 20.0298C69.6067 20.2083 69.8206 20.4469 69.9652 20.7454C70.113 21.0439 70.1868 21.3717 70.1868 21.7287V22.2273C70.1868 22.5843 70.113 22.9121 69.9652 23.2106C69.8175 23.506 69.6005 23.7446 69.3143 23.9261C69.0312 24.1046 68.6834 24.1939 68.271 24.1939C67.8555 24.1939 67.5047 24.1046 67.2184 23.9261C66.9322 23.7446 66.7152 23.506 66.5675 23.2106C66.4198 22.9121 66.3459 22.5843 66.3459 22.2273ZM67.4216 21.7287V22.2273C67.4216 22.492 67.4847 22.732 67.6108 22.9474C67.737 23.1629 67.9571 23.2706 68.271 23.2706C68.5818 23.2706 68.7988 23.1629 68.9219 22.9474C69.045 22.732 69.1066 22.492 69.1066 22.2273V21.7287C69.1066 21.464 69.0466 21.224 68.9265 21.0085C68.8096 20.7931 68.5911 20.6854 68.271 20.6854C67.9632 20.6854 67.7447 20.7931 67.6155 21.0085C67.4862 21.224 67.4216 21.464 67.4216 21.7287ZM61.591 16.8168V16.3182C61.591 15.9612 61.6648 15.6334 61.8125 15.3349C61.9633 15.0363 62.1819 14.7978 62.4681 14.6193C62.7574 14.4408 63.1067 14.3516 63.516 14.3516C63.9346 14.3516 64.2854 14.4408 64.5686 14.6193C64.8517 14.7978 65.0656 15.0363 65.2103 15.3349C65.3549 15.6334 65.4272 15.9612 65.4272 16.3182V16.8168C65.4272 17.1738 65.3534 17.5015 65.2057 17.8001C65.061 18.0955 64.8456 18.334 64.5593 18.5156C64.2762 18.6941 63.9284 18.7834 63.516 18.7834C63.0975 18.7834 62.7451 18.6941 62.4589 18.5156C62.1757 18.334 61.9603 18.0955 61.8125 17.8001C61.6648 17.5015 61.591 17.1738 61.591 16.8168ZM62.6712 16.3182V16.8168C62.6712 17.0814 62.7328 17.3215 62.8559 17.5369C62.9821 17.7524 63.2021 17.8601 63.516 17.8601C63.8238 17.8601 64.0392 17.7524 64.1623 17.5369C64.2885 17.3215 64.3516 17.0814 64.3516 16.8168V16.3182C64.3516 16.0535 64.2916 15.8134 64.1716 15.598C64.0515 15.3826 63.833 15.2749 63.516 15.2749C63.2083 15.2749 62.9897 15.3826 62.8605 15.598C62.7343 15.8134 62.6712 16.0535 62.6712 16.3182ZM62.0295 24L68.5295 14.5455H69.6329L63.1329 24H62.0295Z" fill="#B3B2B8"/>
<mask id="path-4-inside-2_2091_8659" fill="white">
<path d="M107.5 14C107.5 6.26801 113.768 0 121.5 0H177C184.732 0 191 6.26801 191 14V23.5C191 31.232 184.732 37.5 177 37.5H121.5C113.768 37.5 107.5 31.232 107.5 23.5V14Z"/>
</mask>
<path d="M107.5 14C107.5 6.26801 113.768 0 121.5 0H177C184.732 0 191 6.26801 191 14V23.5C191 31.232 184.732 37.5 177 37.5H121.5C113.768 37.5 107.5 31.232 107.5 23.5V14Z" fill="#13141F"/>
<path d="M121.5 0V1H177V0V-1H121.5V0ZM191 14H190V23.5H191H192V14H191ZM177 37.5V36.5H121.5V37.5V38.5H177V37.5ZM107.5 23.5H108.5V14H107.5H106.5V23.5H107.5ZM121.5 37.5V36.5C114.32 36.5 108.5 30.6797 108.5 23.5H107.5H106.5C106.5 31.7843 113.216 38.5 121.5 38.5V37.5ZM191 23.5H190C190 30.6797 184.18 36.5 177 36.5V37.5V38.5C185.284 38.5 192 31.7843 192 23.5H191ZM177 0V1C184.18 1 190 6.8203 190 14H191H192C192 5.71573 185.284 -1 177 -1V0ZM121.5 0V-1C113.216 -1 106.5 5.71573 106.5 14H107.5H108.5C108.5 6.8203 114.32 1 121.5 1V0Z" fill="#1E1F2E" mask="url(#path-4-inside-2_2091_8659)"/>
<path d="M140.1 24.1293C139.522 24.1293 139.002 24.0185 138.54 23.7969C138.082 23.5722 137.715 23.2644 137.441 22.8736C137.167 22.4827 137.021 22.0365 137.003 21.5348H138.388C138.422 21.9411 138.602 22.275 138.928 22.5366C139.254 22.7982 139.645 22.929 140.1 22.929C140.464 22.929 140.785 22.8459 141.065 22.6797C141.348 22.5104 141.57 22.2781 141.73 21.9826C141.893 21.6871 141.975 21.3501 141.975 20.9716C141.975 20.5869 141.892 20.2437 141.725 19.9421C141.559 19.6405 141.33 19.4035 141.038 19.2312C140.748 19.0588 140.416 18.9711 140.04 18.968C139.754 18.968 139.467 19.0173 139.177 19.1158C138.888 19.2143 138.654 19.3435 138.475 19.5036L137.169 19.3097L137.7 14.5455H142.898V15.7688H138.886L138.586 18.4141H138.642C138.826 18.2356 139.071 18.0863 139.376 17.9663C139.683 17.8462 140.013 17.7862 140.364 17.7862C140.939 17.7862 141.452 17.9232 141.901 18.1971C142.353 18.471 142.709 18.8449 142.967 19.3189C143.229 19.7898 143.358 20.3314 143.355 20.9439C143.358 21.5563 143.22 22.1026 142.94 22.5827C142.663 23.0629 142.278 23.4414 141.786 23.7184C141.296 23.9923 140.734 24.1293 140.1 24.1293ZM148.333 24.157C147.603 24.1539 146.98 23.9615 146.463 23.5799C145.946 23.1983 145.551 22.6428 145.277 21.9134C145.003 21.1839 144.866 20.3053 144.866 19.2773C144.866 18.2525 145.003 17.3769 145.277 16.6506C145.554 15.9242 145.951 15.3703 146.468 14.9886C146.988 14.607 147.61 14.4162 148.333 14.4162C149.056 14.4162 149.676 14.6085 150.193 14.9933C150.71 15.3749 151.106 15.9289 151.38 16.6552C151.657 17.3784 151.795 18.2525 151.795 19.2773C151.795 20.3084 151.658 21.1886 151.384 21.918C151.11 22.6443 150.715 23.1998 150.198 23.5845C149.681 23.9661 149.059 24.157 148.333 24.157ZM148.333 22.9244C148.973 22.9244 149.473 22.612 149.833 21.9872C150.196 21.3625 150.378 20.4592 150.378 19.2773C150.378 18.4925 150.295 17.8293 150.129 17.2876C149.966 16.7429 149.73 16.3305 149.422 16.0504C149.118 15.7673 148.754 15.6257 148.333 15.6257C147.696 15.6257 147.196 15.9396 146.832 16.5675C146.469 17.1953 146.286 18.0986 146.283 19.2773C146.283 20.0652 146.365 20.7315 146.528 21.2763C146.694 21.8179 146.929 22.2288 147.234 22.5089C147.539 22.7859 147.905 22.9244 148.333 22.9244ZM158.368 22.2273V21.7287C158.368 21.3717 158.442 21.0455 158.589 20.75C158.74 20.4515 158.959 20.2129 159.245 20.0344C159.534 19.8529 159.884 19.7621 160.293 19.7621C160.712 19.7621 161.062 19.8513 161.346 20.0298C161.629 20.2083 161.843 20.4469 161.987 20.7454C162.135 21.0439 162.209 21.3717 162.209 21.7287V22.2273C162.209 22.5843 162.135 22.9121 161.987 23.2106C161.839 23.506 161.623 23.7446 161.336 23.9261C161.053 24.1046 160.705 24.1939 160.293 24.1939C159.877 24.1939 159.527 24.1046 159.24 23.9261C158.954 23.7446 158.737 23.506 158.589 23.2106C158.442 22.9121 158.368 22.5843 158.368 22.2273ZM159.444 21.7287V22.2273C159.444 22.492 159.507 22.732 159.633 22.9474C159.759 23.1629 159.979 23.2706 160.293 23.2706C160.604 23.2706 160.821 23.1629 160.944 22.9474C161.067 22.732 161.129 22.492 161.129 22.2273V21.7287C161.129 21.464 161.069 21.224 160.949 21.0085C160.832 20.7931 160.613 20.6854 160.293 20.6854C159.985 20.6854 159.767 20.7931 159.637 21.0085C159.508 21.224 159.444 21.464 159.444 21.7287ZM153.613 16.8168V16.3182C153.613 15.9612 153.687 15.6334 153.835 15.3349C153.985 15.0363 154.204 14.7978 154.49 14.6193C154.779 14.4408 155.129 14.3516 155.538 14.3516C155.957 14.3516 156.307 14.4408 156.591 14.6193C156.874 14.7978 157.088 15.0363 157.232 15.3349C157.377 15.6334 157.449 15.9612 157.449 16.3182V16.8168C157.449 17.1738 157.375 17.5015 157.228 17.8001C157.083 18.0955 156.868 18.334 156.581 18.5156C156.298 18.6941 155.95 18.7834 155.538 18.7834C155.119 18.7834 154.767 18.6941 154.481 18.5156C154.198 18.334 153.982 18.0955 153.835 17.8001C153.687 17.5015 153.613 17.1738 153.613 16.8168ZM154.693 16.3182V16.8168C154.693 17.0814 154.755 17.3215 154.878 17.5369C155.004 17.7524 155.224 17.8601 155.538 17.8601C155.846 17.8601 156.061 17.7524 156.184 17.5369C156.31 17.3215 156.374 17.0814 156.374 16.8168V16.3182C156.374 16.0535 156.314 15.8134 156.194 15.598C156.074 15.3826 155.855 15.2749 155.538 15.2749C155.23 15.2749 155.012 15.3826 154.882 15.598C154.756 15.8134 154.693 16.0535 154.693 16.3182ZM154.051 24L160.551 14.5455H161.655L155.155 24H154.051Z" fill="#B3B2B8"/>
<mask id="path-7-inside-3_2091_8659" fill="white">
<path d="M199 14C199 6.26801 205.268 0 213 0H268.5C276.232 0 282.5 6.26801 282.5 14V23.5C282.5 31.232 276.232 37.5 268.5 37.5H213C205.268 37.5 199 31.232 199 23.5V14Z"/>
</mask>
<path d="M199 14C199 6.26801 205.268 0 213 0H268.5C276.232 0 282.5 6.26801 282.5 14V23.5C282.5 31.232 276.232 37.5 268.5 37.5H213C205.268 37.5 199 31.232 199 23.5V14Z" fill="#13141F"/>
<path d="M213 0V1H268.5V0V-1H213V0ZM282.5 14H281.5V23.5H282.5H283.5V14H282.5ZM268.5 37.5V36.5H213V37.5V38.5H268.5V37.5ZM199 23.5H200V14H199H198V23.5H199ZM213 37.5V36.5C205.82 36.5 200 30.6797 200 23.5H199H198C198 31.7843 204.716 38.5 213 38.5V37.5ZM282.5 23.5H281.5C281.5 30.6797 275.68 36.5 268.5 36.5V37.5V38.5C276.784 38.5 283.5 31.7843 283.5 23.5H282.5ZM268.5 0V1C275.68 1 281.5 6.8203 281.5 14H282.5H283.5C283.5 5.71573 276.784 -1 268.5 -1V0ZM213 0V-1C204.716 -1 198 5.71573 198 14H199H200C200 6.8203 205.82 1 213 1V0Z" fill="#1E1F2E" mask="url(#path-7-inside-3_2091_8659)"/>
<path d="M229.34 24L233.467 15.8381V15.7688H228.694V14.5455H234.945V15.8104L230.831 24H229.34ZM239.544 24.1293C238.965 24.1293 238.445 24.0185 237.983 23.7969C237.525 23.5722 237.159 23.2644 236.885 22.8736C236.611 22.4827 236.465 22.0365 236.446 21.5348H237.831C237.865 21.9411 238.045 22.275 238.371 22.5366C238.698 22.7982 239.088 22.929 239.544 22.929C239.907 22.929 240.229 22.8459 240.509 22.6797C240.792 22.5104 241.013 22.2781 241.173 21.9826C241.337 21.6871 241.418 21.3501 241.418 20.9716C241.418 20.5869 241.335 20.2437 241.169 19.9421C241.003 19.6405 240.773 19.4035 240.481 19.2312C240.192 19.0588 239.859 18.9711 239.484 18.968C239.198 18.968 238.91 19.0173 238.621 19.1158C238.331 19.2143 238.097 19.3435 237.919 19.5036L236.612 19.3097L237.143 14.5455H242.341V15.7688H238.33L238.03 18.4141H238.085C238.27 18.2356 238.514 18.0863 238.819 17.9663C239.127 17.8462 239.456 17.7862 239.807 17.7862C240.383 17.7862 240.895 17.9232 241.344 18.1971C241.797 18.471 242.152 18.8449 242.411 19.3189C242.672 19.7898 242.802 20.3314 242.798 20.9439C242.802 21.5563 242.663 22.1026 242.383 22.5827C242.106 23.0629 241.721 23.4414 241.229 23.7184C240.74 23.9923 240.178 24.1293 239.544 24.1293ZM249.42 22.2273V21.7287C249.42 21.3717 249.494 21.0455 249.641 20.75C249.792 20.4515 250.011 20.2129 250.297 20.0344C250.586 19.8529 250.935 19.7621 251.345 19.7621C251.763 19.7621 252.114 19.8513 252.397 20.0298C252.68 20.2083 252.894 20.4469 253.039 20.7454C253.187 21.0439 253.261 21.3717 253.261 21.7287V22.2273C253.261 22.5843 253.187 22.9121 253.039 23.2106C252.891 23.506 252.674 23.7446 252.388 23.9261C252.105 24.1046 251.757 24.1939 251.345 24.1939C250.929 24.1939 250.578 24.1046 250.292 23.9261C250.006 23.7446 249.789 23.506 249.641 23.2106C249.494 22.9121 249.42 22.5843 249.42 22.2273ZM250.495 21.7287V22.2273C250.495 22.492 250.558 22.732 250.685 22.9474C250.811 23.1629 251.031 23.2706 251.345 23.2706C251.656 23.2706 251.873 23.1629 251.996 22.9474C252.119 22.732 252.18 22.492 252.18 22.2273V21.7287C252.18 21.464 252.12 21.224 252 21.0085C251.883 20.7931 251.665 20.6854 251.345 20.6854C251.037 20.6854 250.818 20.7931 250.689 21.0085C250.56 21.224 250.495 21.464 250.495 21.7287ZM244.665 16.8168V16.3182C244.665 15.9612 244.739 15.6334 244.886 15.3349C245.037 15.0363 245.256 14.7978 245.542 14.6193C245.831 14.4408 246.18 14.3516 246.59 14.3516C247.008 14.3516 247.359 14.4408 247.642 14.6193C247.925 14.7978 248.139 15.0363 248.284 15.3349C248.429 15.6334 248.501 15.9612 248.501 16.3182V16.8168C248.501 17.1738 248.427 17.5015 248.279 17.8001C248.135 18.0955 247.919 18.334 247.633 18.5156C247.35 18.6941 247.002 18.7834 246.59 18.7834C246.171 18.7834 245.819 18.6941 245.533 18.5156C245.249 18.334 245.034 18.0955 244.886 17.8001C244.739 17.5015 244.665 17.1738 244.665 16.8168ZM245.745 16.3182V16.8168C245.745 17.0814 245.806 17.3215 245.93 17.5369C246.056 17.7524 246.276 17.8601 246.59 17.8601C246.898 17.8601 247.113 17.7524 247.236 17.5369C247.362 17.3215 247.425 17.0814 247.425 16.8168V16.3182C247.425 16.0535 247.365 15.8134 247.245 15.598C247.125 15.3826 246.907 15.2749 246.59 15.2749C246.282 15.2749 246.063 15.3826 245.934 15.598C245.808 15.8134 245.745 16.0535 245.745 16.3182ZM245.103 24L251.603 14.5455H252.707L246.207 24H245.103Z" fill="#B3B2B8"/>
<mask id="path-10-inside-4_2091_8659" fill="white">
<path d="M290.5 14C290.5 6.26801 296.768 0 304.5 0H360C367.732 0 374 6.26801 374 14V23.5C374 31.232 367.732 37.5 360 37.5H304.5C296.768 37.5 290.5 31.232 290.5 23.5V14Z"/>
</mask>
<path d="M290.5 14C290.5 6.26801 296.768 0 304.5 0H360C367.732 0 374 6.26801 374 14V23.5C374 31.232 367.732 37.5 360 37.5H304.5C296.768 37.5 290.5 31.232 290.5 23.5V14Z" fill="#13141F"/>
<path d="M304.5 0V1H360V0V-1H304.5V0ZM374 14H373V23.5H374H375V14H374ZM360 37.5V36.5H304.5V37.5V38.5H360V37.5ZM290.5 23.5H291.5V14H290.5H289.5V23.5H290.5ZM304.5 37.5V36.5C297.32 36.5 291.5 30.6797 291.5 23.5H290.5H289.5C289.5 31.7843 296.216 38.5 304.5 38.5V37.5ZM374 23.5H373C373 30.6797 367.18 36.5 360 36.5V37.5V38.5C368.284 38.5 375 31.7843 375 23.5H374ZM360 0V1C367.18 1 373 6.8203 373 14H374H375C375 5.71573 368.284 -1 360 -1V0ZM304.5 0V-1C296.216 -1 289.5 5.71573 289.5 14H290.5H291.5C291.5 6.8203 297.32 1 304.5 1V0Z" fill="#1E1F2E" mask="url(#path-10-inside-4_2091_8659)"/>
<path d="M320.424 14.5455H322.156L325.166 21.8949H325.276L328.286 14.5455H330.017V24H328.66V17.1584H328.573L325.784 23.9862H324.658L321.869 17.1538H321.782V24H320.424V14.5455ZM334.044 24.157C333.595 24.157 333.189 24.0739 332.825 23.9077C332.462 23.7384 332.175 23.4937 331.962 23.1737C331.753 22.8536 331.648 22.4612 331.648 21.9964C331.648 21.5964 331.725 21.267 331.879 21.0085C332.033 20.75 332.241 20.5453 332.502 20.3945C332.764 20.2437 333.056 20.1299 333.379 20.0529C333.703 19.976 334.032 19.9175 334.367 19.8775C334.792 19.8282 335.137 19.7882 335.401 19.7575C335.666 19.7236 335.858 19.6697 335.979 19.5959C336.099 19.522 336.159 19.402 336.159 19.2358V19.2035C336.159 18.8003 336.045 18.4879 335.817 18.2663C335.592 18.0447 335.257 17.9339 334.811 17.9339C334.346 17.9339 333.98 18.037 333.712 18.2433C333.447 18.4464 333.264 18.6726 333.162 18.9219L331.865 18.6264C332.019 18.1955 332.244 17.8478 332.539 17.5831C332.838 17.3153 333.181 17.1214 333.569 17.0014C333.956 16.8783 334.364 16.8168 334.792 16.8168C335.075 16.8168 335.375 16.8506 335.692 16.9183C336.012 16.983 336.311 17.103 336.588 17.2784C336.868 17.4538 337.097 17.7047 337.276 18.0309C337.454 18.354 337.544 18.7741 337.544 19.2912V24H336.195V23.0305H336.14C336.051 23.209 335.917 23.3845 335.738 23.5568C335.56 23.7292 335.331 23.8723 335.051 23.9862C334.771 24.1 334.435 24.157 334.044 24.157ZM334.344 23.049C334.726 23.049 335.052 22.9736 335.323 22.8228C335.597 22.672 335.805 22.475 335.946 22.2319C336.091 21.9857 336.163 21.7225 336.163 21.4425V20.5284C336.114 20.5777 336.019 20.6238 335.877 20.6669C335.738 20.7069 335.58 20.7423 335.401 20.7731C335.223 20.8008 335.049 20.8269 334.88 20.8516C334.711 20.8731 334.569 20.8916 334.455 20.907C334.187 20.9408 333.943 20.9978 333.721 21.0778C333.503 21.1578 333.327 21.2732 333.195 21.424C333.066 21.5717 333.001 21.7687 333.001 22.0149C333.001 22.3565 333.127 22.6151 333.379 22.7905C333.632 22.9628 333.953 23.049 334.344 23.049ZM340.472 16.9091L342.036 19.6697L343.615 16.9091H345.125L342.914 20.4545L345.143 24H343.634L342.036 21.3501L340.444 24H338.93L341.136 20.4545L338.957 16.9091H340.472Z" fill="#B3B2B8"/>
</svg>
