<svg width="42" height="42" viewBox="0 0 42 42" fill="none" xmlns="http://www.w3.org/2000/svg">
<g clip-path="url(#clip0_2091_8768)">
<path d="M21 42C32.598 42 42 32.598 42 21C42 9.40202 32.598 0 21 0C9.40202 0 0 9.40202 0 21C0 32.598 9.40202 42 21 42Z" fill="#26A17B"/>
<path d="M31.5 11.5498H10.5C9.3402 11.5498 8.39999 12.49 8.39999 13.6498C8.39999 14.8096 9.3402 15.7498 10.5 15.7498H31.5C32.6598 15.7498 33.6 14.8096 33.6 13.6498C33.6 12.49 32.6598 11.5498 31.5 11.5498Z" fill="white"/>
<path d="M22.575 15.75H19.425C18.5552 15.75 17.85 16.4552 17.85 17.325V25.725C17.85 26.5948 18.5552 27.3 19.425 27.3H22.575C23.4449 27.3 24.15 26.5948 24.15 25.725V17.325C24.15 16.4552 23.4449 15.75 22.575 15.75Z" fill="white"/>
<path d="M29.1375 22.0498H12.8625C12.1376 22.0498 11.55 22.6374 11.55 23.3623C11.55 24.0872 12.1376 24.6748 12.8625 24.6748H29.1375C29.8624 24.6748 30.45 24.0872 30.45 23.3623C30.45 22.6374 29.8624 22.0498 29.1375 22.0498Z" fill="white"/>
</g>
<defs>
<clipPath id="clip0_2091_8768">
<rect width="42" height="42" fill="white"/>
</clipPath>
</defs>
</svg>
