<svg width="42" height="42" viewBox="0 0 42 42" fill="none" xmlns="http://www.w3.org/2000/svg">
<g clip-path="url(#clip0_2091_8734)">
<path d="M20.9922 38.4922C30.6572 38.4922 38.4922 30.6572 38.4922 20.9922C38.4922 11.3272 30.6572 3.49219 20.9922 3.49219C11.3272 3.49219 3.49219 11.3272 3.49219 20.9922C3.49219 30.6572 11.3272 38.4922 20.9922 38.4922Z" fill="#2775CA"/>
</g>
<g clip-path="url(#clip1_2091_8734)">
<path d="M26.1139 23.6989C26.1139 20.9962 24.4851 20.0699 21.2277 19.6831C18.9016 19.3739 18.4372 18.7567 18.4372 17.6752C18.4372 16.5936 19.2134 15.8988 20.7632 15.8988C22.1591 15.8988 22.9353 16.362 23.3221 17.5212C23.3624 17.6333 23.4361 17.7303 23.5332 17.7993C23.6304 17.8682 23.7463 17.9057 23.8654 17.9067H25.106C25.1777 17.9086 25.2491 17.896 25.3156 17.8695C25.3822 17.843 25.4429 17.8033 25.4937 17.7528C25.5445 17.7022 25.5844 17.6418 25.6113 17.5753C25.638 17.5088 25.651 17.4376 25.6494 17.3659V17.2896C25.4977 16.4509 25.0735 15.6858 24.4423 15.1131C23.8111 14.5404 23.0085 14.1921 22.1591 14.1225V12.2698C22.1591 11.9606 21.9262 11.729 21.5394 11.6514H20.3751C20.0659 11.6514 19.833 11.883 19.7554 12.2698V14.0461C17.4281 14.3541 15.9559 15.8988 15.9559 17.8304C15.9559 20.3778 17.5057 21.3818 20.7632 21.7686C22.9353 22.1542 23.6326 22.6186 23.6326 23.8542C23.6326 25.0884 22.5472 25.9384 21.0737 25.9384C19.0569 25.9384 18.3595 25.0897 18.1267 23.9305C18.0503 23.6226 17.8162 23.4673 17.5833 23.4673H16.2651C16.1935 23.4656 16.1224 23.4784 16.0559 23.5049C15.9894 23.5315 15.9291 23.5712 15.8784 23.6218C15.8277 23.6723 15.7878 23.7326 15.7611 23.799C15.7344 23.8654 15.7215 23.9366 15.723 24.0081V24.0845C16.0322 26.016 17.2741 27.4055 19.833 27.7923V29.6464C19.833 29.9542 20.0659 30.1872 20.4527 30.2635H21.617C21.9262 30.2635 22.1591 30.0319 22.2367 29.6464V27.7911C24.564 27.4055 26.1139 25.7845 26.1139 23.6989Z" fill="white"/>
<path d="M17.0413 31.808C10.9921 29.6449 7.88984 22.9263 10.1395 16.9801C11.3025 13.7354 13.8615 11.2655 17.0413 10.1063C17.3518 9.95239 17.5057 9.7208 17.5057 9.33397V8.25239C17.5057 7.94446 17.3518 7.71287 17.0413 7.63525C16.9637 7.63525 16.8084 7.63525 16.7308 7.7116C14.9856 8.25662 13.3654 9.14149 11.9635 10.3153C10.5616 11.489 9.40578 12.9285 8.56251 14.5508C7.71925 16.1731 7.20522 17.9462 7.05003 19.768C6.89484 21.5898 7.10155 23.4242 7.65825 25.1658C9.05286 29.4921 12.3879 32.8133 16.7308 34.2027C17.0413 34.3567 17.3518 34.2027 17.4281 33.8935C17.5057 33.8172 17.5057 33.7382 17.5057 33.5844V32.5028C17.5057 32.2711 17.2742 31.9633 17.0413 31.808ZM25.2613 7.71287C24.9508 7.55763 24.6403 7.71287 24.564 8.02081C24.4864 8.09843 24.4864 8.17605 24.4864 8.33001V9.41159C24.4864 9.7208 24.718 10.0287 24.9508 10.184C31.0001 12.3471 34.1023 19.0657 31.8526 25.0118C30.6897 28.2566 28.1308 30.7265 24.9508 31.8856C24.6403 32.0396 24.4864 32.2711 24.4864 32.6581V33.7396C24.4864 34.0475 24.6403 34.2792 24.9508 34.3567C25.0285 34.3567 25.1837 34.3567 25.2613 34.2804C27.0065 33.7354 28.6267 32.8504 30.0286 31.6767C31.4305 30.503 32.5864 29.0635 33.4296 27.4412C34.273 25.8188 34.7868 24.0458 34.9421 22.224C35.0973 20.4022 34.8906 18.5677 34.334 16.8262C32.9393 12.4235 29.5265 9.10239 25.2613 7.71287Z" fill="white"/>
</g>
<defs>
<clipPath id="clip0_2091_8734">
<rect width="35" height="35" fill="white" transform="translate(3.49219 3.49219)"/>
</clipPath>
<clipPath id="clip1_2091_8734">
<rect width="27.9922" height="26.7266" fill="white" transform="translate(7 7.63281)"/>
</clipPath>
</defs>
</svg>
