<svg width="30" height="30" viewBox="0 0 30 30" fill="none" xmlns="http://www.w3.org/2000/svg">
<g clip-path="url(#clip0_2091_9155)">
<path d="M14.9922 27.4922C21.8957 27.4922 27.4922 21.8957 27.4922 14.9922C27.4922 8.08863 21.8957 2.49219 14.9922 2.49219C8.08863 2.49219 2.49219 8.08863 2.49219 14.9922C2.49219 21.8957 8.08863 27.4922 14.9922 27.4922Z" fill="#F7931A"/>
</g>
<g clip-path="url(#clip1_2091_9155)">
<path d="M21.2328 13.3651C21.4942 11.6202 20.1647 10.6819 18.3482 10.0559L18.9376 7.69163L17.4991 7.33366L16.9246 9.6355C16.5467 9.5406 16.1587 9.45235 15.7716 9.3641L16.3502 7.04728L14.9117 6.68848L14.3223 9.05192C14.0092 8.98033 13.7012 8.9104 13.4032 8.83547L13.4049 8.82799L11.4202 8.33265L11.0372 9.86944C11.0372 9.86944 12.1053 10.1142 12.0828 10.1292C12.6656 10.2749 12.7705 10.6603 12.753 10.9667L12.082 13.6598C12.122 13.6698 12.1736 13.6847 12.2319 13.7072L12.0795 13.6698L11.1388 17.4426C11.0672 17.6191 10.8866 17.8847 10.4786 17.7839C10.4936 17.8048 9.43303 17.5234 9.43303 17.5234L8.71875 19.17L10.5919 19.6371C10.9398 19.7245 11.2812 19.816 11.6167 19.9018L11.0214 22.2928L12.4591 22.6507L13.0485 20.2865C13.4415 20.3922 13.8228 20.4904 14.1957 20.5837L13.608 22.9379L15.0465 23.2958L15.6418 20.91C18.0959 21.3744 19.9407 21.1872 20.7175 18.9677C21.3435 17.1812 20.6867 16.1498 19.3955 15.4779C20.3362 15.2615 21.0438 14.6429 21.2328 13.3651ZM17.9444 17.9754C17.5007 19.7628 14.4913 18.7963 13.5156 18.554L14.3064 15.3864C15.2821 15.6303 18.4098 16.1123 17.9444 17.9754ZM18.3898 13.3393C17.9844 14.9651 15.4803 14.1384 14.6686 13.9362L15.3845 11.0641C16.1962 11.2663 18.8127 11.6435 18.3898 13.3393Z" fill="white"/>
</g>
<defs>
<clipPath id="clip0_2091_9155">
<rect width="25" height="25" fill="white" transform="translate(2.49219 2.49219)"/>
</clipPath>
<clipPath id="clip1_2091_9155">
<rect width="12.5469" height="16.6094" fill="white" transform="translate(8.71875 6.6875)"/>
</clipPath>
</defs>
</svg>
