<svg width="40" height="40" viewBox="0 0 40 40" fill="none" xmlns="http://www.w3.org/2000/svg">
<g clip-path="url(#clip0_2091_8415)">
<path d="M19.9961 36.6641C29.2016 36.6641 36.6641 29.2016 36.6641 19.9961C36.6641 10.7906 29.2016 3.32812 19.9961 3.32812C10.7906 3.32812 3.32812 10.7906 3.32812 19.9961C3.32812 29.2016 10.7906 36.6641 19.9961 36.6641Z" fill="#9945FF"/>
</g>
<g clip-path="url(#clip1_2091_8415)">
<path d="M12.6827 24.4319C12.8157 24.3007 12.9951 24.2272 13.182 24.2274H30.4666C30.5364 24.2265 30.6047 24.2464 30.663 24.2847C30.7212 24.323 30.7667 24.3778 30.7935 24.4421C30.8203 24.5065 30.8272 24.5774 30.8133 24.6457C30.7994 24.714 30.7654 24.7766 30.7157 24.8254L27.3012 28.2123C27.1683 28.344 26.9888 28.4179 26.8018 28.418H9.51717C9.44749 28.4187 9.37922 28.3984 9.32109 28.3599C9.26296 28.3216 9.21763 28.2666 9.19088 28.2023C9.16413 28.138 9.1572 28.0671 9.17096 27.9988C9.18471 27.9305 9.21854 27.8678 9.26811 27.8188L12.6827 24.4319ZM12.6827 11.7783C12.8157 11.647 12.9951 11.5735 13.182 11.5737H30.4666C30.7806 11.5737 30.9383 11.9515 30.7157 12.1729L27.3012 15.5598C27.1681 15.6911 26.9887 15.7645 26.8018 15.7643H9.51717C9.44774 15.7647 9.37977 15.7444 9.32191 15.706C9.26404 15.6677 9.21889 15.6129 9.1922 15.5489C9.1655 15.4848 9.15847 15.4142 9.17198 15.3461C9.1855 15.278 9.21896 15.2154 9.26811 15.1664L12.6827 11.7783ZM27.3012 18.0648C27.1681 17.9336 26.9887 17.8601 26.8018 17.8603H9.51717C9.44749 17.8597 9.37922 17.8799 9.32109 17.9183C9.26296 17.9567 9.21763 18.0116 9.19088 18.076C9.16413 18.1403 9.1572 18.2112 9.17096 18.2795C9.18471 18.3478 9.21854 18.4105 9.26811 18.4594L12.6827 21.8463C12.815 21.9775 12.9955 22.0509 13.182 22.0509H30.4666C30.5364 22.0515 30.6045 22.0313 30.6628 21.9928C30.7209 21.9544 30.7662 21.8995 30.793 21.8352C30.8196 21.7708 30.8267 21.7 30.8129 21.6316C30.7991 21.5633 30.7652 21.5007 30.7157 21.4517L27.3012 18.0648Z" fill="white"/>
</g>
<defs>
<clipPath id="clip0_2091_8415">
<rect width="33.3359" height="33.3359" fill="white" transform="translate(3.32812 3.32812)"/>
</clipPath>
<clipPath id="clip1_2091_8415">
<rect width="21.6562" height="16.8516" fill="white" transform="translate(9.16406 11.5703)"/>
</clipPath>
</defs>
</svg>
