<svg width="42" height="42" viewBox="0 0 42 42" fill="none" xmlns="http://www.w3.org/2000/svg">
<g clip-path="url(#clip0_2091_8757)">
<path d="M20.9922 38.4922C30.6572 38.4922 38.4922 30.6572 38.4922 20.9922C38.4922 11.3272 30.6572 3.49219 20.9922 3.49219C11.3272 3.49219 3.49219 11.3272 3.49219 20.9922C3.49219 30.6572 11.3272 38.4922 20.9922 38.4922Z" fill="#9945FF"/>
</g>
<g clip-path="url(#clip1_2091_8757)">
<path d="M13.3201 25.6548C13.4598 25.517 13.6482 25.4398 13.8444 25.44H31.9957C32.069 25.4391 32.1408 25.46 32.2019 25.5002C32.2631 25.5404 32.3109 25.598 32.3391 25.6655C32.3672 25.7331 32.3744 25.8075 32.3598 25.8793C32.3452 25.951 32.3095 26.0167 32.2573 26.068L28.6716 29.6247C28.532 29.7631 28.3436 29.8406 28.1472 29.8408H9.99581C9.92264 29.8415 9.85094 29.8202 9.7899 29.7798C9.72886 29.7395 9.68125 29.6818 9.65316 29.6142C9.62508 29.5467 9.61779 29.4723 9.63224 29.4005C9.64669 29.3288 9.68221 29.263 9.73427 29.2116L13.3201 25.6548ZM13.3201 12.3666C13.4598 12.2288 13.6482 12.1516 13.8444 12.1519H31.9957C32.3255 12.1519 32.4911 12.5486 32.2573 12.7811L28.6716 16.3378C28.5318 16.4756 28.3434 16.5528 28.1472 16.5526H9.99581C9.9229 16.553 9.85153 16.5317 9.79076 16.4914C9.72999 16.4511 9.68258 16.3936 9.65454 16.3263C9.62651 16.259 9.61912 16.1849 9.63332 16.1133C9.64751 16.0418 9.68265 15.9762 9.73427 15.9246L13.3201 12.3666ZM28.6716 18.9684C28.5318 18.8306 28.3434 18.7534 28.1472 18.7536H9.99581C9.92264 18.753 9.85094 18.7742 9.7899 18.8146C9.72886 18.8549 9.68125 18.9126 9.65316 18.9802C9.62508 19.0477 9.61779 19.1221 9.63224 19.1939C9.64669 19.2656 9.68221 19.3314 9.73427 19.3828L13.3201 22.9396C13.4591 23.0773 13.6486 23.1544 13.8444 23.1544H31.9957C32.069 23.155 32.1406 23.1338 32.2018 23.0934C32.2628 23.0531 32.3104 22.9954 32.3385 22.9278C32.3665 22.8603 32.3739 22.7859 32.3595 22.7141C32.3449 22.6424 32.3093 22.5766 32.2573 22.5251L28.6716 18.9684Z" fill="white"/>
</g>
<defs>
<clipPath id="clip0_2091_8757">
<rect width="35" height="35" fill="white" transform="translate(3.49219 3.49219)"/>
</clipPath>
<clipPath id="clip1_2091_8757">
<rect width="22.7422" height="17.6953" fill="white" transform="translate(9.625 12.1484)"/>
</clipPath>
</defs>
</svg>
