<svg width="40" height="40" viewBox="0 0 40 40" fill="none" xmlns="http://www.w3.org/2000/svg">
<g clip-path="url(#clip0_2091_9273)">
<path d="M19.9961 36.6641C29.2016 36.6641 36.6641 29.2016 36.6641 19.9961C36.6641 10.7906 29.2016 3.32812 19.9961 3.32812C10.7906 3.32812 3.32812 10.7906 3.32812 19.9961C3.32812 29.2016 10.7906 36.6641 19.9961 36.6641Z" fill="#E8821B"/>
</g>
<g clip-path="url(#clip1_2091_9273)">
<path d="M28.3149 17.8261C28.6635 15.499 26.8904 14.2478 24.4678 13.4129L25.2539 10.2597L23.3354 9.78232L22.5693 12.8522C22.0652 12.7256 21.5479 12.6079 21.0316 12.4902L21.8032 9.4004L19.8847 8.92188L19.0986 12.0739C18.6812 11.9784 18.2704 11.8852 17.8729 11.7852L17.8751 11.7752L15.2283 11.1146L14.7176 13.1642C14.7176 13.1642 16.142 13.4906 16.112 13.5106C16.8892 13.7049 17.0291 14.2189 17.0058 14.6275L16.1109 18.2192C16.1642 18.2325 16.2331 18.2525 16.3108 18.2824L16.1076 18.2325L14.853 23.2642C14.7575 23.4995 14.5166 23.8537 13.9726 23.7194C13.9926 23.7471 12.5781 23.3719 12.5781 23.3719L11.6255 25.5679L14.1236 26.1908C14.5876 26.3074 15.0429 26.4294 15.4903 26.5438L14.6965 29.7326L16.6139 30.21L17.3999 27.0569C17.924 27.1979 18.4325 27.3288 18.9299 27.4532L18.146 30.5929L20.0645 31.0703L20.8584 27.8884C24.1314 28.5078 26.5917 28.2582 27.6276 25.2981C28.4626 22.9155 27.5865 21.5399 25.8645 20.644C27.1191 20.3553 28.0628 19.5304 28.3149 17.8261ZM23.9293 23.9747C23.3376 26.3584 19.324 25.0694 18.0228 24.7463L19.0775 20.5218C20.3788 20.8471 24.55 21.49 23.9293 23.9747ZM24.5233 17.7917C23.9826 19.96 20.643 18.8576 19.5605 18.5878L20.5153 14.7574C21.5978 15.0272 25.0873 15.5301 24.5233 17.7917Z" fill="white"/>
</g>
<defs>
<clipPath id="clip0_2091_9273">
<rect width="33.3359" height="33.3359" fill="white" transform="translate(3.32812 3.32812)"/>
</clipPath>
<clipPath id="clip1_2091_9273">
<rect width="16.7344" height="22.1484" fill="white" transform="translate(11.625 8.92188)"/>
</clipPath>
</defs>
</svg>
