<svg width="40" height="40" viewBox="0 0 40 40" fill="none" xmlns="http://www.w3.org/2000/svg">
<g clip-path="url(#clip0_2091_8435)">
<path d="M20 40C31.0457 40 40 31.0457 40 20C40 8.9543 31.0457 0 20 0C8.9543 0 0 8.9543 0 20C0 31.0457 8.9543 40 20 40Z" fill="#26A17B"/>
<path d="M30 11H10C8.89543 11 8 11.8954 8 13C8 14.1046 8.89543 15 10 15H30C31.1046 15 32 14.1046 32 13C32 11.8954 31.1046 11 30 11Z" fill="white"/>
<path d="M21.5 15H18.5C17.6716 15 17 15.6716 17 16.5V24.5C17 25.3284 17.6716 26 18.5 26H21.5C22.3284 26 23 25.3284 23 24.5V16.5C23 15.6716 22.3284 15 21.5 15Z" fill="white"/>
<path d="M27.75 21H12.25C11.5596 21 11 21.5596 11 22.25C11 22.9404 11.5596 23.5 12.25 23.5H27.75C28.4404 23.5 29 22.9404 29 22.25C29 21.5596 28.4404 21 27.75 21Z" fill="white"/>
</g>
<defs>
<clipPath id="clip0_2091_8435">
<rect width="40" height="40" fill="white"/>
</clipPath>
</defs>
</svg>
