<svg width="42" height="42" viewBox="0 0 42 42" fill="none" xmlns="http://www.w3.org/2000/svg">
<g clip-path="url(#clip0_2091_8746)">
<path d="M20.9922 38.4922C30.6572 38.4922 38.4922 30.6572 38.4922 20.9922C38.4922 11.3272 30.6572 3.49219 20.9922 3.49219C11.3272 3.49219 3.49219 11.3272 3.49219 20.9922C3.49219 30.6572 11.3272 38.4922 20.9922 38.4922Z" fill="#E8821B"/>
</g>
<g clip-path="url(#clip1_2091_8746)">
<path d="M29.7353 18.7174C30.1014 16.2739 28.2395 14.96 25.6957 14.0833L26.5211 10.7725L24.5066 10.2712L23.7022 13.4946C23.173 13.3617 22.6297 13.2381 22.0876 13.1146L22.8978 9.87014L20.8833 9.36768L20.0579 12.6774C19.6196 12.5771 19.1883 12.4792 18.7709 12.3743L18.7732 12.3638L15.994 11.6701L15.4577 13.8222C15.4577 13.8222 16.9534 14.1649 16.9219 14.1859C17.738 14.39 17.8849 14.9297 17.8604 15.3587L16.9208 19.1301C16.9767 19.1441 17.049 19.1651 17.1306 19.1965L16.9173 19.1441L15.5999 24.4275C15.4997 24.6746 15.2467 25.0465 14.6754 24.9055C14.6964 24.9346 13.2112 24.5406 13.2112 24.5406L12.2109 26.8465L14.834 27.5006C15.3213 27.6229 15.7993 27.7511 16.2691 27.8712L15.4355 31.2195L17.4489 31.7208L18.2743 28.4099C18.8245 28.558 19.3585 28.6955 19.8807 28.8261L19.0577 32.1229L21.0722 32.6242L21.9057 29.2831C25.3425 29.9335 27.9259 29.6713 29.0136 26.5632C29.8904 24.0614 28.9705 22.617 27.1623 21.6762C28.4797 21.3731 29.4706 20.5069 29.7353 18.7174ZM25.1303 25.1736C24.509 27.6766 20.2946 26.3231 18.9283 25.9838L20.0358 21.548C21.4021 21.8895 25.782 22.5645 25.1303 25.1736ZM25.7541 18.6813C25.1863 20.9581 21.6796 19.8004 20.5429 19.5171L21.5455 15.4951C22.6822 15.7784 26.3463 16.3065 25.7541 18.6813Z" fill="white"/>
</g>
<defs>
<clipPath id="clip0_2091_8746">
<rect width="35" height="35" fill="white" transform="translate(3.49219 3.49219)"/>
</clipPath>
<clipPath id="clip1_2091_8746">
<rect width="17.5703" height="23.2578" fill="white" transform="translate(12.2109 9.36719)"/>
</clipPath>
</defs>
</svg>
