<svg width="40" height="40" viewBox="0 0 40 40" fill="none" xmlns="http://www.w3.org/2000/svg">
<g clip-path="url(#clip0_2091_9207)">
<path d="M19.9961 36.6641C29.2016 36.6641 36.6641 29.2016 36.6641 19.9961C36.6641 10.7906 29.2016 3.32812 19.9961 3.32812C10.7906 3.32812 3.32812 10.7906 3.32812 19.9961C3.32812 29.2016 10.7906 36.6641 19.9961 36.6641Z" fill="#2775CA"/>
</g>
<g clip-path="url(#clip1_2091_9207)">
<path d="M24.8658 22.5658C24.8658 19.9921 23.3147 19.11 20.2127 18.7416C17.9977 18.4472 17.5554 17.8595 17.5554 16.8296C17.5554 15.7996 18.2946 15.138 19.7705 15.138C21.0997 15.138 21.8389 15.5791 22.2072 16.6829C22.2456 16.7897 22.3158 16.8821 22.4083 16.9477C22.5008 17.0134 22.6112 17.0491 22.7246 17.0501H23.906C23.9743 17.0519 24.0423 17.0399 24.1056 17.0146C24.169 16.9894 24.2268 16.9516 24.2752 16.9035C24.3235 16.8553 24.3615 16.7978 24.3872 16.7345C24.4126 16.6712 24.425 16.6033 24.4235 16.5351V16.4624C24.279 15.6638 23.875 14.9351 23.274 14.3898C22.6729 13.8444 21.9086 13.5128 21.0997 13.4464V11.6821C21.0997 11.3877 20.878 11.1672 20.5096 11.0933H19.4009C19.1064 11.0933 18.8847 11.3138 18.8108 11.6821V13.3737C16.5945 13.667 15.1926 15.138 15.1926 16.9774C15.1926 19.4033 16.6684 20.3593 19.7705 20.7277C21.8389 21.0948 22.5029 21.5371 22.5029 22.7137C22.5029 23.8891 21.4693 24.6985 20.0661 24.6985C18.1455 24.6985 17.4815 23.8903 17.2598 22.7864C17.1871 22.4931 16.9641 22.3453 16.7424 22.3453H15.487C15.4189 22.3437 15.3511 22.3558 15.2878 22.3811C15.2245 22.4064 15.167 22.4442 15.1188 22.4924C15.0705 22.5405 15.0325 22.598 15.0071 22.6612C14.9817 22.7244 14.9693 22.7922 14.9708 22.8603V22.933C15.2653 24.7723 16.4479 26.0956 18.8847 26.4639V28.2295C18.8847 28.5226 19.1064 28.7444 19.4748 28.8171H20.5835C20.878 28.8171 21.0997 28.5966 21.1736 28.2295V26.4627C23.3899 26.0956 24.8658 24.5519 24.8658 22.5658Z" fill="white"/>
<path d="M16.2261 30.2882C10.4656 28.2283 7.51143 21.8303 9.65376 16.1679C10.7613 13.078 13.1981 10.7261 16.2261 9.6222C16.5218 9.47559 16.6684 9.25506 16.6684 8.88669V7.85673C16.6684 7.56349 16.5218 7.34296 16.2261 7.26904C16.1522 7.26904 16.0044 7.26904 15.9305 7.34175C14.2685 7.86076 12.7256 8.70339 11.3907 9.82114C10.0557 10.9389 8.95503 12.3097 8.152 13.8545C7.34898 15.3994 6.85949 17.0879 6.71171 18.8227C6.56392 20.5576 6.76076 22.3045 7.2909 23.9629C8.61895 28.0828 11.7949 31.2455 15.9305 32.5685C16.2261 32.7152 16.5218 32.5685 16.5945 32.2741C16.6684 32.2014 16.6684 32.1262 16.6684 31.9797V30.9498C16.6684 30.7291 16.4479 30.436 16.2261 30.2882ZM24.0538 7.34296C23.7581 7.19513 23.4625 7.34296 23.3898 7.63619C23.3159 7.71011 23.3159 7.78403 23.3159 7.93064V8.9606C23.3159 9.25506 23.5365 9.54829 23.7581 9.69612C29.5188 11.756 32.4728 18.1539 30.3306 23.8163C29.2231 26.9062 26.7864 29.2582 23.7581 30.362C23.4625 30.5087 23.3159 30.7291 23.3159 31.0976V32.1276C23.3159 32.4207 23.4625 32.6414 23.7581 32.7152C23.8321 32.7152 23.98 32.7152 24.0538 32.6425C25.7157 32.1236 27.2587 31.2808 28.5936 30.1631C29.9286 29.0454 31.0294 27.6746 31.8323 26.1297C32.6354 24.5848 33.1248 22.8964 33.2726 21.1615C33.4204 19.4267 33.2235 17.6798 32.6935 16.0213C31.3654 11.8288 28.1155 8.66616 24.0538 7.34296Z" fill="white"/>
</g>
<defs>
<clipPath id="clip0_2091_9207">
<rect width="33.3359" height="33.3359" fill="white" transform="translate(3.32812 3.32812)"/>
</clipPath>
<clipPath id="clip1_2091_9207">
<rect width="26.6562" height="25.4531" fill="white" transform="translate(6.66406 7.26562)"/>
</clipPath>
</defs>
</svg>
