<svg width="42" height="42" viewBox="0 0 42 42" fill="none" xmlns="http://www.w3.org/2000/svg">
<mask id="path-1-inside-1_2091_8023" fill="white">
<path d="M0 21C0 9.40202 9.40202 0 21 0C32.598 0 42 9.40202 42 21C42 32.598 32.598 42 21 42C9.40202 42 0 32.598 0 21Z"/>
</mask>
<path d="M0 21C0 9.40202 9.40202 0 21 0C32.598 0 42 9.40202 42 21C42 32.598 32.598 42 21 42C9.40202 42 0 32.598 0 21Z" fill="#13201A"/>
<path d="M0 21M42 21M42 21M0 21M21 0M42 21M21 42M0 21M21 42V41C9.95431 41 1 32.0457 1 21H0H-1C-1 33.1503 8.84974 43 21 43V42ZM42 21H41C41 32.0457 32.0457 41 21 41V42V43C33.1503 43 43 33.1503 43 21H42ZM21 0V1C32.0457 1 41 9.95431 41 21H42H43C43 8.84974 33.1503 -1 21 -1V0ZM21 0V-1C8.84974 -1 -1 8.84974 -1 21H0H1C1 9.95431 9.95431 1 21 1V0Z" fill="#34D399" fill-opacity="0.2" mask="url(#path-1-inside-1_2091_8023)"/>
<path d="M16.4637 20.1752C18.5135 20.1752 20.1752 18.5135 20.1752 16.4637C20.1752 14.4139 18.5135 12.7522 16.4637 12.7522C14.4139 12.7522 12.7522 14.4139 12.7522 16.4637C12.7522 18.5135 14.4139 20.1752 16.4637 20.1752Z" stroke="#34D399" stroke-width="1.81451"/>
<path d="M25.5362 29.2477C27.586 29.2477 29.2477 27.586 29.2477 25.5362C29.2477 23.4864 27.586 21.8247 25.5362 21.8247C23.4864 21.8247 21.8247 23.4864 21.8247 25.5362C21.8247 27.586 23.4864 29.2477 25.5362 29.2477Z" stroke="#34D399" stroke-width="1.81451"/>
<path d="M13.1646 28.8353L28.8353 13.1646" stroke="#34D399" stroke-width="1.81451" stroke-linecap="round"/>
</svg>
