<svg width="358" height="148" viewBox="0 0 358 148" fill="none" xmlns="http://www.w3.org/2000/svg">
<!-- Area fill under chart line -->
<path d="M0 84.3851C8.52381 84.3851 8.52381 90.2047 17.0476 90.2047C25.5714 90.2047 25.5714 80.0203 34.0952 80.0203C42.6191 80.0203 42.619 87.2949 51.1429 87.2949C59.6667 87.2949 59.6667 72.7458 68.1905 72.7458C76.7143 72.7458 76.7143 77.1105 85.2381 77.1105C93.7619 77.1105 93.7619 65.4712 102.286 65.4712C110.81 65.4712 110.81 69.8359 119.333 69.8359C127.857 69.8359 127.857 58.1966 136.381 58.1966C144.905 58.1966 144.905 61.1064 153.429 61.1064C161.952 61.1064 161.952 50.922 170.476 50.922C179 50.922 179 43.6475 187.524 43.6475C196.048 43.6475 196.048 49.4671 204.571 49.4671C213.095 49.4671 213.095 40.7376 221.619 40.7376C230.143 40.7376 230.143 36.3729 238.667 36.3729C247.19 36.3729 247.19 29.0983 255.714 29.0983C264.238 29.0983 264.238 34.918 272.762 34.918C281.286 34.918 281.286 21.8237 289.81 21.8237C298.333 21.8237 298.333 26.1885 306.857 26.1885C315.381 26.1885 315.381 14.5492 323.905 14.5492C332.429 14.5492 332.429 17.459 340.952 17.459C349.476 17.459 349.476 0 358 0V148H0V84.3851Z" fill="url(#paint0_linear_2092_9449)"/>
<!-- Chart line stroke on top -->
<path d="M0 84.3851C8.52381 84.3851 8.52381 90.2047 17.0476 90.2047C25.5714 90.2047 25.5714 80.0203 34.0952 80.0203C42.6191 80.0203 42.619 87.2949 51.1429 87.2949C59.6667 87.2949 59.6667 72.7458 68.1905 72.7458C76.7143 72.7458 76.7143 77.1105 85.2381 77.1105C93.7619 77.1105 93.7619 65.4712 102.286 65.4712C110.81 65.4712 110.81 69.8359 119.333 69.8359C127.857 69.8359 127.857 58.1966 136.381 58.1966C144.905 58.1966 144.905 61.1064 153.429 61.1064C161.952 61.1064 161.952 50.922 170.476 50.922C179 50.922 179 43.6475 187.524 43.6475C196.048 43.6475 196.048 49.4671 204.571 49.4671C213.095 49.4671 213.095 40.7376 221.619 40.7376C230.143 40.7376 230.143 36.3729 238.667 36.3729C247.19 36.3729 247.19 29.0983 255.714 29.0983C264.238 29.0983 264.238 34.918 272.762 34.918C281.286 34.918 281.286 21.8237 289.81 21.8237C298.333 21.8237 298.333 26.1885 306.857 26.1885C315.381 26.1885 315.381 14.5492 323.905 14.5492C332.429 14.5492 332.429 17.459 340.952 17.459C349.476 17.459 349.476 0 358 0" stroke="rgba(88, 75, 235, 0.5)" stroke-width="1.62" fill="none"/>
<defs>
<linearGradient id="paint0_linear_2092_9449" x1="0" y1="0" x2="0" y2="148" gradientUnits="userSpaceOnUse">
<stop stop-color="#584BEB" stop-opacity="0.18"/>
<stop offset="1" stop-color="#584BEB" stop-opacity="0"/>
</linearGradient>
</defs>
</svg>
