<svg width="139" height="32" viewBox="0 0 139 32" fill="none" xmlns="http://www.w3.org/2000/svg">
  <path d="M1 22 L12 20 L22 24 L32 18 L42 16 L52 20 L62 14 L72 16 L82 10 L92 12 L102 8 L112 10 L122 6 L132 8 L138 5" stroke="#22C55E" stroke-width="1.5" stroke-linecap="round" stroke-linejoin="round" fill="none"/>
  <path d="M1 22 L12 20 L22 24 L32 18 L42 16 L52 20 L62 14 L72 16 L82 10 L92 12 L102 8 L112 10 L122 6 L132 8 L138 5 L138 32 L1 32 Z" fill="url(#btcGrad)" opacity="0.15"/>
  <defs>
    <linearGradient id="btcGrad" x1="0" y1="0" x2="0" y2="1">
      <stop offset="0%" stop-color="#22C55E"/>
      <stop offset="100%" stop-color="#22C55E" stop-opacity="0"/>
    </linearGradient>
  </defs>
</svg>
