<svg width="18" height="18" viewBox="0 0 18 18" fill="none" xmlns="http://www.w3.org/2000/svg">
<g clip-path="url(#clip0_2091_8206)">
<path d="M9 18C13.9706 18 18 13.9706 18 9C18 4.02944 13.9706 0 9 0C4.02944 0 0 4.02944 0 9C0 13.9706 4.02944 18 9 18Z" fill="#FF0420"/>
<path d="M8.99995 13.0502C11.2367 13.0502 13.05 11.2369 13.05 9.0002C13.05 6.76344 11.2367 4.9502 8.99995 4.9502C6.7632 4.9502 4.94995 6.76344 4.94995 9.0002C4.94995 11.2369 6.7632 13.0502 8.99995 13.0502Z" stroke="white" stroke-width="1.575"/>
<path d="M8.9999 10.3499C9.74549 10.3499 10.3499 9.74549 10.3499 8.9999C10.3499 8.25432 9.74549 7.6499 8.9999 7.6499C8.25432 7.6499 7.6499 8.25432 7.6499 8.9999C7.6499 9.74549 8.25432 10.3499 8.9999 10.3499Z" fill="white"/>
</g>
<defs>
<clipPath id="clip0_2091_8206">
<rect width="18" height="18" fill="white"/>
</clipPath>
</defs>
</svg>
