<svg width="18" height="18" viewBox="0 0 18 18" fill="none" xmlns="http://www.w3.org/2000/svg">
  <circle cx="9" cy="9" r="9" fill="#8247E5"/>
  <path d="M12.1 7.1c-.3-.2-.7-.2-1 0L9.5 8.2 8.3 8.9 6.7 10c-.3.2-.7.2-1 0l-1.2-.7c-.3-.2-.5-.5-.5-.9V7c0-.4.2-.7.5-.9l1.2-.7c.3-.2.7-.2 1 0l1.2.7c.3.2.5.5.5.9v1.1l1.2-.7V6.2c0-.4-.2-.7-.5-.9L7 4c-.3-.2-.7-.2-1 0L3.8 5.3c-.3.2-.5.5-.5.9v2.6c0 .4.2.7.5.9L6 11c.3.2.7.2 1 0l1.6-1.1 1.2-.7 1.6-1.1c.3-.2.7-.2 1 0l1.2.7c.3.2.5.5.5.9v1.4c0 .4-.2.7-.5.9l-1.2.7c-.3.2-.7.2-1 0l-1.2-.7c-.3-.2-.5-.5-.5-.9v-1.1l-1.2.7v1.1c0 .4.2.7.5.9l2.2 1.3c.3.2.7.2 1 0l2.2-1.3c.3-.2.5-.5.5-.9V9.3c0-.4-.2-.7-.5-.9l-2.3-1.3z" fill="white"/>
</svg>
