<svg width="390" height="67" viewBox="0 0 390 67" fill="none" xmlns="http://www.w3.org/2000/svg">
<rect width="390" height="67" stroke="#1E1F2E"/>
<path d="M35 28.5L25 38.5" stroke="#87878C" stroke-width="1.66667" stroke-linecap="round" stroke-linejoin="round"/>
<path d="M25 28.5L35 38.5" stroke="#87878C" stroke-width="1.66667" stroke-linecap="round" stroke-linejoin="round"/>
<path d="M60.4055 31.0078C60.3459 30.4496 60.0945 30.0149 59.6513 29.7038C59.2124 29.3928 58.6413 29.2372 57.9382 29.2372C57.4439 29.2372 57.0199 29.3118 56.6662 29.4609C56.3125 29.6101 56.0419 29.8125 55.8544 30.0682C55.6669 30.3239 55.571 30.6158 55.5668 30.9439C55.5668 31.2166 55.6286 31.4531 55.7521 31.6534C55.88 31.8537 56.0526 32.0241 56.2699 32.1648C56.4872 32.3011 56.728 32.4162 56.9922 32.5099C57.2564 32.6037 57.5227 32.6825 57.7912 32.7464L59.0185 33.0533C59.5128 33.1683 59.9879 33.3239 60.4439 33.5199C60.9041 33.7159 61.3153 33.9631 61.6776 34.2614C62.044 34.5597 62.3338 34.9197 62.5469 35.3416C62.7599 35.7635 62.8665 36.2578 62.8665 36.8246C62.8665 37.5916 62.6705 38.267 62.2784 38.8509C61.8864 39.4304 61.3196 39.8842 60.5781 40.2124C59.8409 40.5362 58.9482 40.6982 57.8999 40.6982C56.8814 40.6982 55.9972 40.5405 55.2472 40.2251C54.5014 39.9098 53.9176 39.4496 53.4957 38.8445C53.0781 38.2393 52.8523 37.5021 52.8182 36.6328H55.1513C55.1854 37.0888 55.326 37.468 55.5732 37.7706C55.8203 38.0732 56.142 38.299 56.5384 38.4482C56.9389 38.5973 57.3864 38.6719 57.8807 38.6719C58.3963 38.6719 58.848 38.5952 59.2358 38.4418C59.6278 38.2841 59.9347 38.0668 60.1562 37.7898C60.3778 37.5085 60.4908 37.1804 60.495 36.8054C60.4908 36.4645 60.3906 36.1832 60.1946 35.9616C59.9986 35.7358 59.7237 35.5483 59.37 35.3991C59.0206 35.2457 58.6115 35.1094 58.1428 34.9901L56.6534 34.6065C55.5753 34.3295 54.723 33.9098 54.0966 33.3473C53.4744 32.7805 53.1634 32.0284 53.1634 31.0909C53.1634 30.3196 53.3722 29.6442 53.7898 29.0646C54.2116 28.4851 54.7848 28.0355 55.5092 27.7159C56.2337 27.392 57.054 27.2301 57.9702 27.2301C58.8991 27.2301 59.7131 27.392 60.4119 27.7159C61.1151 28.0355 61.6669 28.4808 62.0675 29.0518C62.468 29.6186 62.6747 30.2706 62.6875 31.0078H60.4055ZM66.9047 40.5L64.1305 30.6818H66.4892L68.215 37.5852H68.3045L70.0687 30.6818H72.4018L74.166 37.5469H74.2619L75.9622 30.6818H78.3272L75.5467 40.5H73.1369L71.296 33.8651H71.1618L69.3208 40.5H66.9047ZM82.7681 40.6982C82.146 40.6982 81.5856 40.5874 81.087 40.3658C80.5927 40.1399 80.2006 39.8075 79.9109 39.3686C79.6254 38.9297 79.4826 38.3885 79.4826 37.745C79.4826 37.1911 79.5849 36.733 79.7894 36.3707C79.994 36.0085 80.2731 35.7188 80.6268 35.5014C80.9805 35.2841 81.3789 35.12 81.8221 35.0092C82.2695 34.8942 82.7319 34.8111 83.2092 34.7599C83.7844 34.7003 84.2511 34.647 84.609 34.6001C84.967 34.549 85.2269 34.4723 85.3888 34.37C85.555 34.2635 85.6381 34.0994 85.6381 33.8778V33.8395C85.6381 33.358 85.4954 32.9851 85.2099 32.7209C84.9244 32.4567 84.5131 32.3246 83.9762 32.3246C83.4094 32.3246 82.9599 32.4482 82.6275 32.6953C82.2994 32.9425 82.0778 33.2344 81.9627 33.571L79.8022 33.2642C79.9727 32.6676 80.2539 32.169 80.646 31.7685C81.038 31.3636 81.5174 31.0611 82.0842 30.8608C82.6509 30.6562 83.2773 30.554 83.9634 30.554C84.4364 30.554 84.9073 30.6094 85.3761 30.7202C85.8448 30.831 86.2731 31.0142 86.6609 31.2699C87.0487 31.5213 87.3597 31.8643 87.5941 32.299C87.8327 32.7337 87.9521 33.277 87.9521 33.929V40.5H85.7276V39.1513H85.6509C85.5103 39.424 85.3121 39.6797 85.0565 39.9183C84.805 40.1527 84.4876 40.3423 84.104 40.4872C83.7248 40.6278 83.2795 40.6982 82.7681 40.6982ZM83.369 38.9979C83.8335 38.9979 84.2362 38.9062 84.5771 38.723C84.918 38.5355 85.18 38.2884 85.3633 37.9815C85.5508 37.6747 85.6445 37.3402 85.6445 36.978V35.821C85.5721 35.8807 85.4485 35.9361 85.2738 35.9872C85.1033 36.0384 84.9116 36.0831 84.6985 36.1214C84.4854 36.1598 84.2745 36.1939 84.0657 36.2237C83.8569 36.2536 83.6758 36.2791 83.5224 36.3004C83.1772 36.3473 82.8683 36.424 82.5955 36.5305C82.3228 36.6371 82.1076 36.7862 81.9499 36.978C81.7923 37.1655 81.7134 37.4084 81.7134 37.7067C81.7134 38.1328 81.869 38.4545 82.18 38.6719C82.4911 38.8892 82.8874 38.9979 83.369 38.9979ZM90.2788 44.1818V30.6818H92.5543V32.3054H92.6886C92.8079 32.0668 92.9762 31.8132 93.1935 31.5447C93.4109 31.272 93.7049 31.0398 94.0756 30.848C94.4464 30.652 94.9194 30.554 95.4947 30.554C96.2532 30.554 96.9371 30.7479 97.5465 31.1357C98.1602 31.5192 98.646 32.0881 99.0039 32.8423C99.3661 33.5923 99.5472 34.5128 99.5472 35.6037C99.5472 36.6818 99.3704 37.598 99.0167 38.3523C98.663 39.1065 98.1815 39.6818 97.5721 40.0781C96.9627 40.4744 96.2724 40.6726 95.5011 40.6726C94.9386 40.6726 94.4719 40.5788 94.1012 40.3913C93.7305 40.2038 93.4322 39.978 93.2063 39.7138C92.9847 39.4453 92.8121 39.1918 92.6886 38.9531H92.5927V44.1818H90.2788ZM92.5479 35.5909C92.5479 36.2259 92.6374 36.782 92.8164 37.2592C92.9996 37.7365 93.2617 38.1094 93.6026 38.3778C93.9478 38.642 94.3654 38.7741 94.8555 38.7741C95.3668 38.7741 95.7951 38.6378 96.1403 38.3651C96.4854 38.0881 96.7454 37.7109 96.9201 37.2337C97.0991 36.7521 97.1886 36.2045 97.1886 35.5909C97.1886 34.9815 97.1012 34.4403 96.9265 33.9673C96.7518 33.4943 96.4918 33.1236 96.1467 32.8551C95.8015 32.5866 95.3711 32.4524 94.8555 32.4524C94.3612 32.4524 93.9414 32.5824 93.5962 32.8423C93.2511 33.1023 92.989 33.4666 92.81 33.9354C92.6353 34.4041 92.5479 34.956 92.5479 35.5909Z" fill="#F5F5F6"/>
<path d="M353.138 27.25H352.863C352.531 27.25 352.213 27.3817 351.979 27.6161C351.744 27.8505 351.613 28.1685 351.613 28.5V28.6125C351.612 28.8317 351.554 29.047 351.445 29.2368C351.335 29.4266 351.177 29.5841 350.988 29.6937L350.719 29.85C350.529 29.9597 350.313 30.0175 350.094 30.0175C349.874 30.0175 349.659 29.9597 349.469 29.85L349.375 29.8C349.088 29.6345 348.747 29.5897 348.428 29.6752C348.108 29.7607 347.835 29.9697 347.669 30.2562L347.531 30.4938C347.366 30.7806 347.321 31.1214 347.406 31.4412C347.492 31.7611 347.701 32.034 347.988 32.2L348.081 32.2625C348.27 32.3716 348.427 32.5282 348.537 32.7168C348.647 32.9054 348.705 33.1194 348.706 33.3375V33.6562C348.707 33.8765 348.65 34.0931 348.54 34.2841C348.43 34.475 348.272 34.6336 348.081 34.7437L347.988 34.8C347.701 34.966 347.492 35.2389 347.406 35.5588C347.321 35.8786 347.366 36.2194 347.531 36.5062L347.669 36.7438C347.835 37.0303 348.108 37.2393 348.428 37.3248C348.747 37.4103 349.088 37.3655 349.375 37.2L349.469 37.15C349.659 37.0403 349.874 36.9825 350.094 36.9825C350.313 36.9825 350.529 37.0403 350.719 37.15L350.988 37.3063C351.177 37.4159 351.335 37.5734 351.445 37.7632C351.554 37.953 351.612 38.1683 351.613 38.3875V38.5C351.613 38.8315 351.744 39.1495 351.979 39.3839C352.213 39.6183 352.531 39.75 352.863 39.75H353.138C353.469 39.75 353.787 39.6183 354.021 39.3839C354.256 39.1495 354.388 38.8315 354.388 38.5V38.3875C354.388 38.1683 354.446 37.953 354.555 37.7632C354.665 37.5734 354.823 37.4159 355.013 37.3063L355.281 37.15C355.471 37.0403 355.687 36.9825 355.906 36.9825C356.126 36.9825 356.341 37.0403 356.531 37.15L356.625 37.2C356.912 37.3655 357.253 37.4103 357.572 37.3248C357.892 37.2393 358.165 37.0303 358.331 36.7438L358.469 36.5C358.634 36.2132 358.679 35.8724 358.594 35.5525C358.508 35.2326 358.299 34.9597 358.013 34.7937L357.919 34.7437C357.728 34.6336 357.57 34.475 357.46 34.2841C357.35 34.0931 357.293 33.8765 357.294 33.6562V33.3438C357.293 33.1235 357.35 32.9069 357.46 32.7159C357.57 32.525 357.728 32.3664 357.919 32.2563L358.013 32.2C358.299 32.034 358.508 31.7611 358.594 31.4412C358.679 31.1214 358.634 30.7806 358.469 30.4938L358.331 30.2562C358.165 29.9697 357.892 29.7607 357.572 29.6752C357.253 29.5897 356.912 29.6345 356.625 29.8L356.531 29.85C356.341 29.9597 356.126 30.0175 355.906 30.0175C355.687 30.0175 355.471 29.9597 355.281 29.85L355.013 29.6937C354.823 29.5841 354.665 29.4266 354.555 29.2368C354.446 29.047 354.388 28.8317 354.388 28.6125V28.5C354.388 28.1685 354.256 27.8505 354.021 27.6161C353.787 27.3817 353.469 27.25 353.138 27.25Z" stroke="#87878C" stroke-width="1.25" stroke-linecap="round" stroke-linejoin="round"/>
<path d="M353 35.375C354.036 35.375 354.875 34.5355 354.875 33.5C354.875 32.4645 354.036 31.625 353 31.625C351.964 31.625 351.125 32.4645 351.125 33.5C351.125 34.5355 351.964 35.375 353 35.375Z" stroke="#87878C" stroke-width="1.25" stroke-linecap="round" stroke-linejoin="round"/>
</svg>
