<svg width="390" height="36" viewBox="0 0 390 36" fill="none" xmlns="http://www.w3.org/2000/svg">
<mask id="path-1-inside-1_2091_8583" fill="white">
<path d="M177 14C177 6.26801 183.268 0 191 0H199C206.732 0 213 6.26801 213 14V22C213 29.732 206.732 36 199 36H191C183.268 36 177 29.732 177 22V14Z"/>
</mask>
<path d="M177 14C177 6.26801 183.268 0 191 0H199C206.732 0 213 6.26801 213 14V22C213 29.732 206.732 36 199 36H191C183.268 36 177 29.732 177 22V14Z" fill="#0D0E17"/>
<path d="M191 0V1H199V0V-1H191V0ZM213 14H212V22H213H214V14H213ZM199 36V35H191V36V37H199V36ZM177 22H178V14H177H176V22H177ZM191 36V35C183.82 35 178 29.1797 178 22H177H176C176 30.2843 182.716 37 191 37V36ZM213 22H212C212 29.1797 206.18 35 199 35V36V37C207.284 37 214 30.2843 214 22H213ZM199 0V1C206.18 1 212 6.8203 212 14H213H214C214 5.71573 207.284 -1 199 -1V0ZM191 0V-1C182.716 -1 176 5.71573 176 14H177H178C178 6.8203 183.82 1 191 1V0Z" fill="#1E1F2E" mask="url(#path-1-inside-1_2091_8583)"/>
<path d="M195 13.625V22.375" stroke="#B3B2B8" stroke-width="1.25" stroke-linecap="round" stroke-linejoin="round"/>
<path d="M199.375 18L195 22.375L190.625 18" stroke="#B3B2B8" stroke-width="1.25" stroke-linecap="round" stroke-linejoin="round"/>
</svg>
