<svg width="94" height="18" viewBox="0 0 94 18" fill="none" xmlns="http://www.w3.org/2000/svg">
<path fill-rule="evenodd" clip-rule="evenodd" d="M3.2286 8.13149C1.4049 8.13149 0.0478516 6.76953 0.0478516 4.87246C0.0478516 2.98133 1.38682 1.62524 3.2286 1.62524C5.0469 1.62524 6.39128 2.98193 6.39128 4.87246C6.39128 6.75622 5.03569 8.13149 3.2286 8.13149ZM2.20163 6.08797C2.43418 6.35627 2.77771 6.51512 3.2286 6.51512C3.67254 6.51512 4.0096 6.35697 4.23783 6.08937C4.46862 5.81874 4.60953 5.41075 4.60953 4.87246C4.60953 4.33097 4.46852 3.92495 4.23832 3.65688C4.01061 3.39169 3.67366 3.2357 3.2286 3.2357C2.77384 3.2357 2.43057 3.39367 2.19924 3.66005C1.96567 3.92901 1.8236 4.33475 1.8236 4.87246C1.8236 5.40961 1.9669 5.81716 2.20163 6.08797Z" fill="#584BEB"/>
<path d="M12.9032 6.70808C14.5326 5.36662 14.6124 3.90133 13.6695 2.6295L13.1287 1.90015L11.5595 3.19192L11.8158 3.53755C12.2401 4.10988 12.0456 4.5466 11.2612 5.19248L1.94007 12.8664C0.310655 14.2079 0.230851 15.6731 1.17385 16.945L1.71461 17.6743L3.28368 16.3825L3.02741 16.0369C2.60307 15.4646 2.79759 15.0279 3.58212 14.382L12.9032 6.70808Z" fill="#584BEB"/>
<path fill-rule="evenodd" clip-rule="evenodd" d="M11.6324 17.9493C9.8087 17.9493 8.45166 16.5874 8.45166 14.6903C8.45166 12.7992 9.79062 11.4431 11.6324 11.4431C13.4507 11.4431 14.7951 12.7998 14.7951 14.6903C14.7951 16.574 13.4395 17.9493 11.6324 17.9493ZM10.6054 15.9059C10.838 16.1741 11.1815 16.3329 11.6324 16.3329C12.0764 16.3329 12.4134 16.1749 12.6417 15.9072C12.8724 15.6366 13.0134 15.2286 13.0134 14.6903C13.0134 14.1489 12.8723 13.7428 12.6421 13.4748C12.4144 13.2095 12.0775 13.0536 11.6324 13.0536C11.1776 13.0536 10.8344 13.2115 10.603 13.4779C10.3695 13.7469 10.2274 14.1526 10.2274 14.6903C10.2274 15.2275 10.3707 15.635 10.6054 15.9059Z" fill="#584BEB"/>
<path fill-rule="evenodd" clip-rule="evenodd" d="M13.1369 1.82922L13.7072 2.59846C14.1847 3.2424 14.4068 3.94053 14.2983 4.65084C14.1901 5.36046 13.7535 6.07242 12.9328 6.74809L3.61167 14.422C3.21976 14.7446 2.98488 15.0079 2.89635 15.255C2.81051 15.4946 2.85958 15.7285 3.06523 16.0058L3.35108 16.3914L1.7063 17.7454L1.13596 16.9763C0.658512 16.3323 0.436446 15.6341 0.544845 14.9238C0.653137 14.2143 1.08976 13.5023 1.91046 12.8266L11.2315 5.15271C11.6234 4.83007 11.8583 4.56684 11.9468 4.31968C12.0327 4.08004 11.9836 3.84619 11.778 3.56884L11.4921 3.18331L13.1369 1.82922ZM3.22878 8.18218C1.38012 8.18218 0 6.79918 0 4.87253C0 2.95184 1.36203 1.57471 3.22878 1.57471C5.0722 1.57471 6.4395 2.95258 6.4395 4.87253C6.4395 6.78553 5.06117 8.18218 3.22878 8.18218ZM2.23729 6.05392C2.45937 6.31015 2.78923 6.46459 3.22878 6.46459C3.66119 6.46459 3.98448 6.311 4.20228 6.0556C4.42321 5.79655 4.56167 5.40178 4.56167 4.87253C4.56167 4.34004 4.42307 3.94733 4.20289 3.69091C3.98571 3.43799 3.66254 3.28639 3.22878 3.28639C2.78517 3.28639 2.45563 3.44007 2.23486 3.6943C2.01138 3.95164 1.87182 4.34401 1.87182 4.87253C1.87182 5.40039 2.01255 5.79464 2.23729 6.05392ZM13.6694 2.62962C14.6124 3.90145 14.5325 5.36674 12.9032 6.70821L3.58209 14.3821C2.79756 15.028 2.60304 15.4647 3.02737 16.037L3.28365 16.3826L1.71458 17.6744L1.17381 16.9451C0.230819 15.6732 0.310623 14.208 1.94004 12.8665L11.2611 5.19261C12.0456 4.54672 12.2401 4.11001 11.8158 3.53767L11.5595 3.19204L13.1286 1.90027L13.6694 2.62962ZM11.6325 18C9.78381 18 8.40369 16.6171 8.40369 14.6904C8.40369 12.7697 9.76572 11.3926 11.6325 11.3926C13.4759 11.3926 14.8433 12.7705 14.8433 14.6904C14.8433 16.6033 13.4649 18 11.6325 18ZM10.641 15.8717C10.8631 16.128 11.1929 16.2824 11.6325 16.2824C12.0648 16.2824 12.3882 16.1288 12.606 15.8734C12.8269 15.6143 12.9654 15.2196 12.9654 14.6904C12.9654 14.1579 12.8268 13.7652 12.6066 13.5088C12.3894 13.2558 12.0662 13.1042 11.6325 13.1042C11.1889 13.1042 10.8593 13.2579 10.6386 13.5122C10.4151 13.7695 10.2755 14.1619 10.2755 14.6904C10.2755 15.2182 10.4162 15.6124 10.641 15.8717ZM3.22878 8.13157C1.40508 8.13157 0.0480363 6.76961 0.0480363 4.87253C0.0480363 2.98141 1.387 1.62532 3.22878 1.62532C5.04709 1.62532 6.39146 2.982 6.39146 4.87253C6.39146 6.7563 5.03587 8.13157 3.22878 8.13157ZM2.20182 6.08805C2.43437 6.35635 2.77789 6.5152 3.22878 6.5152C3.67272 6.5152 4.00978 6.35705 4.23801 6.08944C4.4688 5.81881 4.60971 5.41082 4.60971 4.87253C4.60971 4.33105 4.4687 3.92502 4.2385 3.65696C4.01079 3.39176 3.67384 3.23578 3.22878 3.23578C2.77402 3.23578 2.43075 3.39374 2.19942 3.66013C1.96586 3.92908 1.82378 4.33483 1.82378 4.87253C1.82378 5.40969 1.96709 5.81724 2.20182 6.08805ZM8.45173 14.6904C8.45173 16.5875 9.80877 17.9494 11.6325 17.9494C13.4396 17.9494 14.7952 16.5741 14.7952 14.6904C14.7952 12.7998 13.4507 11.4432 11.6325 11.4432C9.7907 11.4432 8.45173 12.7993 8.45173 14.6904ZM11.6325 16.333C11.1816 16.333 10.8381 16.1741 10.6055 15.9059C10.3708 15.635 10.2275 15.2276 10.2275 14.6904C10.2275 14.1526 10.3696 13.747 10.6031 13.478C10.8344 13.2116 11.1777 13.0536 11.6325 13.0536C12.0775 13.0536 12.4145 13.2095 12.6422 13.4748C12.8724 13.7429 13.0134 14.1489 13.0134 14.6904C13.0134 15.2287 12.8725 15.6366 12.6417 15.9073C12.4135 16.1749 12.0764 16.333 11.6325 16.333Z" fill="#584BEB"/>
<path d="M88.2143 16.0946C85.2127 16.0946 83.0317 13.6828 83.0317 10.2923C83.0317 6.92466 85.1696 4.5127 88.2143 4.5127C91.2158 4.5127 93.3752 6.92466 93.3752 10.2923C93.3752 13.6599 91.1942 16.0946 88.2143 16.0946ZM84.8456 10.2923C84.8456 12.7725 86.1628 14.3881 88.2143 14.3881C90.2441 14.3881 91.5398 12.7725 91.5398 10.2923C91.5398 7.78933 90.2441 6.19652 88.2143 6.19652C86.1628 6.19652 84.8456 7.81207 84.8456 10.2923Z" fill="#F5F5F6"/>
<path d="M79.258 2.66226C79.258 0.819155 78.3726 0 77.0769 0H76.334V1.77485H76.6861C77.2691 1.77485 77.444 2.13891 77.444 3.02633L77.4441 13.5697C77.4441 15.4128 78.3295 16.2321 79.6251 16.2321H80.3681V14.4571H80.016C79.4329 14.4571 79.258 14.0931 79.258 13.2057V2.66226Z" fill="#F5F5F6"/>
<path d="M68.8309 16.0947C66.5204 16.0947 65.1167 14.6157 65.1167 11.7942V4.69482H66.9306V11.1116C66.9306 13.3642 67.7511 14.4109 69.3491 14.4109C71.1198 14.4109 72.1131 13.1367 72.1131 10.2696V4.69482H73.927V15.9127H72.1131V14.4337C71.3897 15.5259 70.2128 16.0947 68.8309 16.0947Z" fill="#F5F5F6"/>
<path d="M56.4816 16.0948C53.588 16.0948 51.6445 13.5918 51.6445 10.2924C51.6445 6.76552 53.804 4.51284 56.4816 4.51284C58.0039 4.51284 59.2024 5.21821 59.8934 6.31043V0.0529785H61.7073V15.9128H59.8934V14.3199C59.17 15.4576 58.0039 16.0948 56.4816 16.0948ZM53.48 10.2924C53.48 12.6589 54.8404 14.3199 56.7839 14.3199C58.7057 14.3199 60.0446 12.6589 60.0446 10.2924C60.0446 7.92599 58.7057 6.26493 56.7839 6.26493C54.8404 6.26493 53.48 7.92599 53.48 10.2924Z" fill="#F5F5F6"/>
<path d="M43.9316 16.0946C40.9301 16.0946 38.749 13.6828 38.749 10.2923C38.749 6.92466 40.8869 4.5127 43.9316 4.5127C46.9332 4.5127 49.0925 6.92466 49.0925 10.2923C49.0925 13.6599 46.9116 16.0946 43.9316 16.0946ZM40.563 10.2923C40.563 12.7725 41.8801 14.3881 43.9316 14.3881C45.9614 14.3881 47.2571 12.7725 47.2571 10.2923C47.2571 7.78933 45.9614 6.19652 43.9316 6.19652C41.8801 6.19652 40.563 7.81207 40.563 10.2923Z" fill="#F5F5F6"/>
<path d="M20.9526 15.9126V4.69473H22.7882V6.33305C23.4792 5.01329 24.6776 4.5127 25.8329 4.5127C27.2688 4.5127 28.3378 5.14982 28.9316 6.43543C29.655 5.14982 30.7455 4.5127 32.2031 4.5127C34.8375 4.5127 35.8525 6.6061 35.8525 9.08633V15.9126H34.0385V9.54141C34.0385 7.44801 33.4123 6.17376 31.7928 6.17376C30.238 6.17376 29.3311 7.42525 29.3311 9.88273V15.9126H27.4956V9.38212C27.4956 7.22046 26.7183 6.17376 25.293 6.17376C23.7166 6.17376 22.7882 7.44801 22.7882 9.88273V15.9126H20.9526Z" fill="#F5F5F6"/>
</svg>
