<svg width="203" height="203" viewBox="0 0 203 203" fill="none" xmlns="http://www.w3.org/2000/svg">
<path d="M0 24C0 10.7452 10.7452 0 24 0H179C192.255 0 203 10.7452 203 24V179C203 192.255 192.255 203 179 203H24C10.7452 203 0 192.255 0 179V24Z" fill="white"/>
<path d="M20 22C20 20.8954 20.8954 20 22 20H31C32.1046 20 33 20.8954 33 22V31C33 32.1046 32.1046 33 31 33H22C20.8954 33 20 32.1046 20 31V22Z" fill="#0D0E17"/>
<path d="M35 22C35 20.8954 35.8954 20 37 20H46C47.1046 20 48 20.8954 48 22V31C48 32.1046 47.1046 33 46 33H37C35.8954 33 35 32.1046 35 31V22Z" fill="#0D0E17"/>
<path d="M50 22C50 20.8954 50.8954 20 52 20H61C62.1046 20 63 20.8954 63 22V31C63 32.1046 62.1046 33 61 33H52C50.8954 33 50 32.1046 50 31V22Z" fill="#0D0E17"/>
<path d="M65 22C65 20.8954 65.8954 20 67 20H76C77.1046 20 78 20.8954 78 22V31C78 32.1046 77.1046 33 76 33H67C65.8954 33 65 32.1046 65 31V22Z" fill="#0D0E17"/>
<path d="M80 22C80 20.8954 80.8954 20 82 20H91C92.1046 20 93 20.8954 93 22V31C93 32.1046 92.1046 33 91 33H82C80.8954 33 80 32.1046 80 31V22Z" fill="white"/>
<path d="M95 22C95 20.8954 95.8954 20 97 20H106C107.105 20 108 20.8954 108 22V31C108 32.1046 107.105 33 106 33H97C95.8954 33 95 32.1046 95 31V22Z" fill="white"/>
<path d="M110 22C110 20.8954 110.895 20 112 20H121C122.105 20 123 20.8954 123 22V31C123 32.1046 122.105 33 121 33H112C110.895 33 110 32.1046 110 31V22Z" fill="white"/>
<path d="M125 22C125 20.8954 125.895 20 127 20H136C137.105 20 138 20.8954 138 22V31C138 32.1046 137.105 33 136 33H127C125.895 33 125 32.1046 125 31V22Z" fill="#0D0E17"/>
<path d="M140 22C140 20.8954 140.895 20 142 20H151C152.105 20 153 20.8954 153 22V31C153 32.1046 152.105 33 151 33H142C140.895 33 140 32.1046 140 31V22Z" fill="#0D0E17"/>
<path d="M155 22C155 20.8954 155.895 20 157 20H166C167.105 20 168 20.8954 168 22V31C168 32.1046 167.105 33 166 33H157C155.895 33 155 32.1046 155 31V22Z" fill="#0D0E17"/>
<path d="M170 22C170 20.8954 170.895 20 172 20H181C182.105 20 183 20.8954 183 22V31C183 32.1046 182.105 33 181 33H172C170.895 33 170 32.1046 170 31V22Z" fill="#0D0E17"/>
<path d="M20 37C20 35.8954 20.8954 35 22 35H31C32.1046 35 33 35.8954 33 37V46C33 47.1046 32.1046 48 31 48H22C20.8954 48 20 47.1046 20 46V37Z" fill="#0D0E17"/>
<path d="M35 37C35 35.8954 35.8954 35 37 35H46C47.1046 35 48 35.8954 48 37V46C48 47.1046 47.1046 48 46 48H37C35.8954 48 35 47.1046 35 46V37Z" fill="white"/>
<path d="M50 37C50 35.8954 50.8954 35 52 35H61C62.1046 35 63 35.8954 63 37V46C63 47.1046 62.1046 48 61 48H52C50.8954 48 50 47.1046 50 46V37Z" fill="#0D0E17"/>
<path d="M65 37C65 35.8954 65.8954 35 67 35H76C77.1046 35 78 35.8954 78 37V46C78 47.1046 77.1046 48 76 48H67C65.8954 48 65 47.1046 65 46V37Z" fill="white"/>
<path d="M80 37C80 35.8954 80.8954 35 82 35H91C92.1046 35 93 35.8954 93 37V46C93 47.1046 92.1046 48 91 48H82C80.8954 48 80 47.1046 80 46V37Z" fill="white"/>
<path d="M95 37C95 35.8954 95.8954 35 97 35H106C107.105 35 108 35.8954 108 37V46C108 47.1046 107.105 48 106 48H97C95.8954 48 95 47.1046 95 46V37Z" fill="white"/>
<path d="M110 37C110 35.8954 110.895 35 112 35H121C122.105 35 123 35.8954 123 37V46C123 47.1046 122.105 48 121 48H112C110.895 48 110 47.1046 110 46V37Z" fill="white"/>
<path d="M125 37C125 35.8954 125.895 35 127 35H136C137.105 35 138 35.8954 138 37V46C138 47.1046 137.105 48 136 48H127C125.895 48 125 47.1046 125 46V37Z" fill="white"/>
<path d="M140 37C140 35.8954 140.895 35 142 35H151C152.105 35 153 35.8954 153 37V46C153 47.1046 152.105 48 151 48H142C140.895 48 140 47.1046 140 46V37Z" fill="#0D0E17"/>
<path d="M155 37C155 35.8954 155.895 35 157 35H166C167.105 35 168 35.8954 168 37V46C168 47.1046 167.105 48 166 48H157C155.895 48 155 47.1046 155 46V37Z" fill="white"/>
<path d="M170 37C170 35.8954 170.895 35 172 35H181C182.105 35 183 35.8954 183 37V46C183 47.1046 182.105 48 181 48H172C170.895 48 170 47.1046 170 46V37Z" fill="#0D0E17"/>
<path d="M20 52C20 50.8954 20.8954 50 22 50H31C32.1046 50 33 50.8954 33 52V61C33 62.1046 32.1046 63 31 63H22C20.8954 63 20 62.1046 20 61V52Z" fill="#0D0E17"/>
<path d="M35 52C35 50.8954 35.8954 50 37 50H46C47.1046 50 48 50.8954 48 52V61C48 62.1046 47.1046 63 46 63H37C35.8954 63 35 62.1046 35 61V52Z" fill="#0D0E17"/>
<path d="M50 52C50 50.8954 50.8954 50 52 50H61C62.1046 50 63 50.8954 63 52V61C63 62.1046 62.1046 63 61 63H52C50.8954 63 50 62.1046 50 61V52Z" fill="#0D0E17"/>
<path d="M65 52C65 50.8954 65.8954 50 67 50H76C77.1046 50 78 50.8954 78 52V61C78 62.1046 77.1046 63 76 63H67C65.8954 63 65 62.1046 65 61V52Z" fill="white"/>
<path d="M80 52C80 50.8954 80.8954 50 82 50H91C92.1046 50 93 50.8954 93 52V61C93 62.1046 92.1046 63 91 63H82C80.8954 63 80 62.1046 80 61V52Z" fill="white"/>
<path d="M95 52C95 50.8954 95.8954 50 97 50H106C107.105 50 108 50.8954 108 52V61C108 62.1046 107.105 63 106 63H97C95.8954 63 95 62.1046 95 61V52Z" fill="#0D0E17"/>
<path d="M110 52C110 50.8954 110.895 50 112 50H121C122.105 50 123 50.8954 123 52V61C123 62.1046 122.105 63 121 63H112C110.895 63 110 62.1046 110 61V52Z" fill="white"/>
<path d="M125 52C125 50.8954 125.895 50 127 50H136C137.105 50 138 50.8954 138 52V61C138 62.1046 137.105 63 136 63H127C125.895 63 125 62.1046 125 61V52Z" fill="white"/>
<path d="M140 52C140 50.8954 140.895 50 142 50H151C152.105 50 153 50.8954 153 52V61C153 62.1046 152.105 63 151 63H142C140.895 63 140 62.1046 140 61V52Z" fill="#0D0E17"/>
<path d="M155 52C155 50.8954 155.895 50 157 50H166C167.105 50 168 50.8954 168 52V61C168 62.1046 167.105 63 166 63H157C155.895 63 155 62.1046 155 61V52Z" fill="#0D0E17"/>
<path d="M170 52C170 50.8954 170.895 50 172 50H181C182.105 50 183 50.8954 183 52V61C183 62.1046 182.105 63 181 63H172C170.895 63 170 62.1046 170 61V52Z" fill="#0D0E17"/>
<path d="M20 67C20 65.8954 20.8954 65 22 65H31C32.1046 65 33 65.8954 33 67V76C33 77.1046 32.1046 78 31 78H22C20.8954 78 20 77.1046 20 76V67Z" fill="white"/>
<path d="M35 67C35 65.8954 35.8954 65 37 65H46C47.1046 65 48 65.8954 48 67V76C48 77.1046 47.1046 78 46 78H37C35.8954 78 35 77.1046 35 76V67Z" fill="white"/>
<path d="M50 67C50 65.8954 50.8954 65 52 65H61C62.1046 65 63 65.8954 63 67V76C63 77.1046 62.1046 78 61 78H52C50.8954 78 50 77.1046 50 76V67Z" fill="#0D0E17"/>
<path d="M65 67C65 65.8954 65.8954 65 67 65H76C77.1046 65 78 65.8954 78 67V76C78 77.1046 77.1046 78 76 78H67C65.8954 78 65 77.1046 65 76V67Z" fill="white"/>
<path d="M80 67C80 65.8954 80.8954 65 82 65H91C92.1046 65 93 65.8954 93 67V76C93 77.1046 92.1046 78 91 78H82C80.8954 78 80 77.1046 80 76V67Z" fill="white"/>
<path d="M95 67C95 65.8954 95.8954 65 97 65H106C107.105 65 108 65.8954 108 67V76C108 77.1046 107.105 78 106 78H97C95.8954 78 95 77.1046 95 76V67Z" fill="white"/>
<path d="M110 67C110 65.8954 110.895 65 112 65H121C122.105 65 123 65.8954 123 67V76C123 77.1046 122.105 78 121 78H112C110.895 78 110 77.1046 110 76V67Z" fill="white"/>
<path d="M125 67C125 65.8954 125.895 65 127 65H136C137.105 65 138 65.8954 138 67V76C138 77.1046 137.105 78 136 78H127C125.895 78 125 77.1046 125 76V67Z" fill="white"/>
<path d="M140 67C140 65.8954 140.895 65 142 65H151C152.105 65 153 65.8954 153 67V76C153 77.1046 152.105 78 151 78H142C140.895 78 140 77.1046 140 76V67Z" fill="white"/>
<path d="M155 67C155 65.8954 155.895 65 157 65H166C167.105 65 168 65.8954 168 67V76C168 77.1046 167.105 78 166 78H157C155.895 78 155 77.1046 155 76V67Z" fill="white"/>
<path d="M170 67C170 65.8954 170.895 65 172 65H181C182.105 65 183 65.8954 183 67V76C183 77.1046 182.105 78 181 78H172C170.895 78 170 77.1046 170 76V67Z" fill="#0D0E17"/>
<path d="M20 82C20 80.8954 20.8954 80 22 80H31C32.1046 80 33 80.8954 33 82V91C33 92.1046 32.1046 93 31 93H22C20.8954 93 20 92.1046 20 91V82Z" fill="white"/>
<path d="M35 82C35 80.8954 35.8954 80 37 80H46C47.1046 80 48 80.8954 48 82V91C48 92.1046 47.1046 93 46 93H37C35.8954 93 35 92.1046 35 91V82Z" fill="#0D0E17"/>
<path d="M50 82C50 80.8954 50.8954 80 52 80H61C62.1046 80 63 80.8954 63 82V91C63 92.1046 62.1046 93 61 93H52C50.8954 93 50 92.1046 50 91V82Z" fill="white"/>
<path d="M65 82C65 80.8954 65.8954 80 67 80H76C77.1046 80 78 80.8954 78 82V91C78 92.1046 77.1046 93 76 93H67C65.8954 93 65 92.1046 65 91V82Z" fill="#0D0E17"/>
<path d="M80 82C80 80.8954 80.8954 80 82 80H91C92.1046 80 93 80.8954 93 82V91C93 92.1046 92.1046 93 91 93H82C80.8954 93 80 92.1046 80 91V82Z" fill="#0D0E17"/>
<path d="M95 82C95 80.8954 95.8954 80 97 80H106C107.105 80 108 80.8954 108 82V91C108 92.1046 107.105 93 106 93H97C95.8954 93 95 92.1046 95 91V82Z" fill="#0D0E17"/>
<path d="M110 82C110 80.8954 110.895 80 112 80H121C122.105 80 123 80.8954 123 82V91C123 92.1046 122.105 93 121 93H112C110.895 93 110 92.1046 110 91V82Z" fill="#0D0E17"/>
<path d="M125 82C125 80.8954 125.895 80 127 80H136C137.105 80 138 80.8954 138 82V91C138 92.1046 137.105 93 136 93H127C125.895 93 125 92.1046 125 91V82Z" fill="white"/>
<path d="M140 82C140 80.8954 140.895 80 142 80H151C152.105 80 153 80.8954 153 82V91C153 92.1046 152.105 93 151 93H142C140.895 93 140 92.1046 140 91V82Z" fill="white"/>
<path d="M155 82C155 80.8954 155.895 80 157 80H166C167.105 80 168 80.8954 168 82V91C168 92.1046 167.105 93 166 93H157C155.895 93 155 92.1046 155 91V82Z" fill="white"/>
<path d="M170 82C170 80.8954 170.895 80 172 80H181C182.105 80 183 80.8954 183 82V91C183 92.1046 182.105 93 181 93H172C170.895 93 170 92.1046 170 91V82Z" fill="white"/>
<path d="M20 97C20 95.8954 20.8954 95 22 95H31C32.1046 95 33 95.8954 33 97V106C33 107.105 32.1046 108 31 108H22C20.8954 108 20 107.105 20 106V97Z" fill="white"/>
<path d="M35 97C35 95.8954 35.8954 95 37 95H46C47.1046 95 48 95.8954 48 97V106C48 107.105 47.1046 108 46 108H37C35.8954 108 35 107.105 35 106V97Z" fill="white"/>
<path d="M50 97C50 95.8954 50.8954 95 52 95H61C62.1046 95 63 95.8954 63 97V106C63 107.105 62.1046 108 61 108H52C50.8954 108 50 107.105 50 106V97Z" fill="white"/>
<path d="M65 97C65 95.8954 65.8954 95 67 95H76C77.1046 95 78 95.8954 78 97V106C78 107.105 77.1046 108 76 108H67C65.8954 108 65 107.105 65 106V97Z" fill="white"/>
<path d="M80 97C80 95.8954 80.8954 95 82 95H91C92.1046 95 93 95.8954 93 97V106C93 107.105 92.1046 108 91 108H82C80.8954 108 80 107.105 80 106V97Z" fill="white"/>
<path d="M95 97C95 95.8954 95.8954 95 97 95H106C107.105 95 108 95.8954 108 97V106C108 107.105 107.105 108 106 108H97C95.8954 108 95 107.105 95 106V97Z" fill="white"/>
<path d="M110 97C110 95.8954 110.895 95 112 95H121C122.105 95 123 95.8954 123 97V106C123 107.105 122.105 108 121 108H112C110.895 108 110 107.105 110 106V97Z" fill="white"/>
<path d="M125 97C125 95.8954 125.895 95 127 95H136C137.105 95 138 95.8954 138 97V106C138 107.105 137.105 108 136 108H127C125.895 108 125 107.105 125 106V97Z" fill="white"/>
<path d="M140 97C140 95.8954 140.895 95 142 95H151C152.105 95 153 95.8954 153 97V106C153 107.105 152.105 108 151 108H142C140.895 108 140 107.105 140 106V97Z" fill="#0D0E17"/>
<path d="M155 97C155 95.8954 155.895 95 157 95H166C167.105 95 168 95.8954 168 97V106C168 107.105 167.105 108 166 108H157C155.895 108 155 107.105 155 106V97Z" fill="white"/>
<path d="M170 97C170 95.8954 170.895 95 172 95H181C182.105 95 183 95.8954 183 97V106C183 107.105 182.105 108 181 108H172C170.895 108 170 107.105 170 106V97Z" fill="#0D0E17"/>
<path d="M20 112C20 110.895 20.8954 110 22 110H31C32.1046 110 33 110.895 33 112V121C33 122.105 32.1046 123 31 123H22C20.8954 123 20 122.105 20 121V112Z" fill="#0D0E17"/>
<path d="M35 112C35 110.895 35.8954 110 37 110H46C47.1046 110 48 110.895 48 112V121C48 122.105 47.1046 123 46 123H37C35.8954 123 35 122.105 35 121V112Z" fill="#0D0E17"/>
<path d="M50 112C50 110.895 50.8954 110 52 110H61C62.1046 110 63 110.895 63 112V121C63 122.105 62.1046 123 61 123H52C50.8954 123 50 122.105 50 121V112Z" fill="#0D0E17"/>
<path d="M65 112C65 110.895 65.8954 110 67 110H76C77.1046 110 78 110.895 78 112V121C78 122.105 77.1046 123 76 123H67C65.8954 123 65 122.105 65 121V112Z" fill="white"/>
<path d="M80 112C80 110.895 80.8954 110 82 110H91C92.1046 110 93 110.895 93 112V121C93 122.105 92.1046 123 91 123H82C80.8954 123 80 122.105 80 121V112Z" fill="#0D0E17"/>
<path d="M95 112C95 110.895 95.8954 110 97 110H106C107.105 110 108 110.895 108 112V121C108 122.105 107.105 123 106 123H97C95.8954 123 95 122.105 95 121V112Z" fill="white"/>
<path d="M110 112C110 110.895 110.895 110 112 110H121C122.105 110 123 110.895 123 112V121C123 122.105 122.105 123 121 123H112C110.895 123 110 122.105 110 121V112Z" fill="#0D0E17"/>
<path d="M125 112C125 110.895 125.895 110 127 110H136C137.105 110 138 110.895 138 112V121C138 122.105 137.105 123 136 123H127C125.895 123 125 122.105 125 121V112Z" fill="white"/>
<path d="M140 112C140 110.895 140.895 110 142 110H151C152.105 110 153 110.895 153 112V121C153 122.105 152.105 123 151 123H142C140.895 123 140 122.105 140 121V112Z" fill="white"/>
<path d="M155 112C155 110.895 155.895 110 157 110H166C167.105 110 168 110.895 168 112V121C168 122.105 167.105 123 166 123H157C155.895 123 155 122.105 155 121V112Z" fill="white"/>
<path d="M170 112C170 110.895 170.895 110 172 110H181C182.105 110 183 110.895 183 112V121C183 122.105 182.105 123 181 123H172C170.895 123 170 122.105 170 121V112Z" fill="white"/>
<path d="M20 127C20 125.895 20.8954 125 22 125H31C32.1046 125 33 125.895 33 127V136C33 137.105 32.1046 138 31 138H22C20.8954 138 20 137.105 20 136V127Z" fill="#0D0E17"/>
<path d="M35 127C35 125.895 35.8954 125 37 125H46C47.1046 125 48 125.895 48 127V136C48 137.105 47.1046 138 46 138H37C35.8954 138 35 137.105 35 136V127Z" fill="#0D0E17"/>
<path d="M50 127C50 125.895 50.8954 125 52 125H61C62.1046 125 63 125.895 63 127V136C63 137.105 62.1046 138 61 138H52C50.8954 138 50 137.105 50 136V127Z" fill="white"/>
<path d="M65 127C65 125.895 65.8954 125 67 125H76C77.1046 125 78 125.895 78 127V136C78 137.105 77.1046 138 76 138H67C65.8954 138 65 137.105 65 136V127Z" fill="#0D0E17"/>
<path d="M80 127C80 125.895 80.8954 125 82 125H91C92.1046 125 93 125.895 93 127V136C93 137.105 92.1046 138 91 138H82C80.8954 138 80 137.105 80 136V127Z" fill="#0D0E17"/>
<path d="M95 127C95 125.895 95.8954 125 97 125H106C107.105 125 108 125.895 108 127V136C108 137.105 107.105 138 106 138H97C95.8954 138 95 137.105 95 136V127Z" fill="white"/>
<path d="M110 127C110 125.895 110.895 125 112 125H121C122.105 125 123 125.895 123 127V136C123 137.105 122.105 138 121 138H112C110.895 138 110 137.105 110 136V127Z" fill="white"/>
<path d="M125 127C125 125.895 125.895 125 127 125H136C137.105 125 138 125.895 138 127V136C138 137.105 137.105 138 136 138H127C125.895 138 125 137.105 125 136V127Z" fill="white"/>
<path d="M140 127C140 125.895 140.895 125 142 125H151C152.105 125 153 125.895 153 127V136C153 137.105 152.105 138 151 138H142C140.895 138 140 137.105 140 136V127Z" fill="#0D0E17"/>
<path d="M155 127C155 125.895 155.895 125 157 125H166C167.105 125 168 125.895 168 127V136C168 137.105 167.105 138 166 138H157C155.895 138 155 137.105 155 136V127Z" fill="#0D0E17"/>
<path d="M170 127C170 125.895 170.895 125 172 125H181C182.105 125 183 125.895 183 127V136C183 137.105 182.105 138 181 138H172C170.895 138 170 137.105 170 136V127Z" fill="white"/>
<path d="M20 142C20 140.895 20.8954 140 22 140H31C32.1046 140 33 140.895 33 142V151C33 152.105 32.1046 153 31 153H22C20.8954 153 20 152.105 20 151V142Z" fill="#0D0E17"/>
<path d="M35 142C35 140.895 35.8954 140 37 140H46C47.1046 140 48 140.895 48 142V151C48 152.105 47.1046 153 46 153H37C35.8954 153 35 152.105 35 151V142Z" fill="#0D0E17"/>
<path d="M50 142C50 140.895 50.8954 140 52 140H61C62.1046 140 63 140.895 63 142V151C63 152.105 62.1046 153 61 153H52C50.8954 153 50 152.105 50 151V142Z" fill="#0D0E17"/>
<path d="M65 142C65 140.895 65.8954 140 67 140H76C77.1046 140 78 140.895 78 142V151C78 152.105 77.1046 153 76 153H67C65.8954 153 65 152.105 65 151V142Z" fill="white"/>
<path d="M80 142C80 140.895 80.8954 140 82 140H91C92.1046 140 93 140.895 93 142V151C93 152.105 92.1046 153 91 153H82C80.8954 153 80 152.105 80 151V142Z" fill="white"/>
<path d="M95 142C95 140.895 95.8954 140 97 140H106C107.105 140 108 140.895 108 142V151C108 152.105 107.105 153 106 153H97C95.8954 153 95 152.105 95 151V142Z" fill="white"/>
<path d="M110 142C110 140.895 110.895 140 112 140H121C122.105 140 123 140.895 123 142V151C123 152.105 122.105 153 121 153H112C110.895 153 110 152.105 110 151V142Z" fill="white"/>
<path d="M125 142C125 140.895 125.895 140 127 140H136C137.105 140 138 140.895 138 142V151C138 152.105 137.105 153 136 153H127C125.895 153 125 152.105 125 151V142Z" fill="white"/>
<path d="M140 142C140 140.895 140.895 140 142 140H151C152.105 140 153 140.895 153 142V151C153 152.105 152.105 153 151 153H142C140.895 153 140 152.105 140 151V142Z" fill="white"/>
<path d="M155 142C155 140.895 155.895 140 157 140H166C167.105 140 168 140.895 168 142V151C168 152.105 167.105 153 166 153H157C155.895 153 155 152.105 155 151V142Z" fill="white"/>
<path d="M170 142C170 140.895 170.895 140 172 140H181C182.105 140 183 140.895 183 142V151C183 152.105 182.105 153 181 153H172C170.895 153 170 152.105 170 151V142Z" fill="white"/>
<path d="M20 157C20 155.895 20.8954 155 22 155H31C32.1046 155 33 155.895 33 157V166C33 167.105 32.1046 168 31 168H22C20.8954 168 20 167.105 20 166V157Z" fill="#0D0E17"/>
<path d="M35 157C35 155.895 35.8954 155 37 155H46C47.1046 155 48 155.895 48 157V166C48 167.105 47.1046 168 46 168H37C35.8954 168 35 167.105 35 166V157Z" fill="white"/>
<path d="M50 157C50 155.895 50.8954 155 52 155H61C62.1046 155 63 155.895 63 157V166C63 167.105 62.1046 168 61 168H52C50.8954 168 50 167.105 50 166V157Z" fill="#0D0E17"/>
<path d="M65 157C65 155.895 65.8954 155 67 155H76C77.1046 155 78 155.895 78 157V166C78 167.105 77.1046 168 76 168H67C65.8954 168 65 167.105 65 166V157Z" fill="white"/>
<path d="M80 157C80 155.895 80.8954 155 82 155H91C92.1046 155 93 155.895 93 157V166C93 167.105 92.1046 168 91 168H82C80.8954 168 80 167.105 80 166V157Z" fill="white"/>
<path d="M95 157C95 155.895 95.8954 155 97 155H106C107.105 155 108 155.895 108 157V166C108 167.105 107.105 168 106 168H97C95.8954 168 95 167.105 95 166V157Z" fill="white"/>
<path d="M110 157C110 155.895 110.895 155 112 155H121C122.105 155 123 155.895 123 157V166C123 167.105 122.105 168 121 168H112C110.895 168 110 167.105 110 166V157Z" fill="#0D0E17"/>
<path d="M125 157C125 155.895 125.895 155 127 155H136C137.105 155 138 155.895 138 157V166C138 167.105 137.105 168 136 168H127C125.895 168 125 167.105 125 166V157Z" fill="white"/>
<path d="M140 157C140 155.895 140.895 155 142 155H151C152.105 155 153 155.895 153 157V166C153 167.105 152.105 168 151 168H142C140.895 168 140 167.105 140 166V157Z" fill="white"/>
<path d="M155 157C155 155.895 155.895 155 157 155H166C167.105 155 168 155.895 168 157V166C168 167.105 167.105 168 166 168H157C155.895 168 155 167.105 155 166V157Z" fill="#0D0E17"/>
<path d="M170 157C170 155.895 170.895 155 172 155H181C182.105 155 183 155.895 183 157V166C183 167.105 182.105 168 181 168H172C170.895 168 170 167.105 170 166V157Z" fill="#0D0E17"/>
<path d="M20 172C20 170.895 20.8954 170 22 170H31C32.1046 170 33 170.895 33 172V181C33 182.105 32.1046 183 31 183H22C20.8954 183 20 182.105 20 181V172Z" fill="#0D0E17"/>
<path d="M35 172C35 170.895 35.8954 170 37 170H46C47.1046 170 48 170.895 48 172V181C48 182.105 47.1046 183 46 183H37C35.8954 183 35 182.105 35 181V172Z" fill="#0D0E17"/>
<path d="M50 172C50 170.895 50.8954 170 52 170H61C62.1046 170 63 170.895 63 172V181C63 182.105 62.1046 183 61 183H52C50.8954 183 50 182.105 50 181V172Z" fill="#0D0E17"/>
<path d="M65 172C65 170.895 65.8954 170 67 170H76C77.1046 170 78 170.895 78 172V181C78 182.105 77.1046 183 76 183H67C65.8954 183 65 182.105 65 181V172Z" fill="#0D0E17"/>
<path d="M80 172C80 170.895 80.8954 170 82 170H91C92.1046 170 93 170.895 93 172V181C93 182.105 92.1046 183 91 183H82C80.8954 183 80 182.105 80 181V172Z" fill="white"/>
<path d="M95 172C95 170.895 95.8954 170 97 170H106C107.105 170 108 170.895 108 172V181C108 182.105 107.105 183 106 183H97C95.8954 183 95 182.105 95 181V172Z" fill="white"/>
<path d="M110 172C110 170.895 110.895 170 112 170H121C122.105 170 123 170.895 123 172V181C123 182.105 122.105 183 121 183H112C110.895 183 110 182.105 110 181V172Z" fill="white"/>
<path d="M125 172C125 170.895 125.895 170 127 170H136C137.105 170 138 170.895 138 172V181C138 182.105 137.105 183 136 183H127C125.895 183 125 182.105 125 181V172Z" fill="white"/>
<path d="M140 172C140 170.895 140.895 170 142 170H151C152.105 170 153 170.895 153 172V181C153 182.105 152.105 183 151 183H142C140.895 183 140 182.105 140 181V172Z" fill="white"/>
<path d="M155 172C155 170.895 155.895 170 157 170H166C167.105 170 168 170.895 168 172V181C168 182.105 167.105 183 166 183H157C155.895 183 155 182.105 155 181V172Z" fill="white"/>
<path d="M170 172C170 170.895 170.895 170 172 170H181C182.105 170 183 170.895 183 172V181C183 182.105 182.105 183 181 183H172C170.895 183 170 182.105 170 181V172Z" fill="white"/>
</svg>
