<svg width="406" height="104" viewBox="0 0 406 104" fill="none" xmlns="http://www.w3.org/2000/svg">
<g filter="url(#filter0_d_2091_8232)">
<path d="M24 40C24 31.1634 31.1634 24 40 24H366C374.837 24 382 31.1634 382 40V64C382 72.8366 374.837 80 366 80H40C31.1635 80 24 72.8366 24 64V40Z" fill="url(#paint0_linear_2091_8232)" shape-rendering="crispEdges"/>
<path d="M188.036 57H184.093V45.3636H188.116C189.271 45.3636 190.263 45.5966 191.093 46.0625C191.926 46.5246 192.567 47.1894 193.013 48.0568C193.46 48.9242 193.684 49.9621 193.684 51.1705C193.684 52.3826 193.459 53.4242 193.008 54.2955C192.561 55.1667 191.915 55.8352 191.07 56.3011C190.229 56.767 189.218 57 188.036 57ZM186.201 55.1761H187.934C188.745 55.1761 189.421 55.0284 189.962 54.733C190.504 54.4337 190.911 53.9886 191.184 53.3977C191.457 52.803 191.593 52.0606 191.593 51.1705C191.593 50.2803 191.457 49.5417 191.184 48.9545C190.911 48.3636 190.508 47.9223 189.974 47.6307C189.443 47.3352 188.784 47.1875 187.996 47.1875H186.201V55.1761ZM199.403 57.1705C198.55 57.1705 197.812 56.983 197.187 56.608C196.562 56.233 196.077 55.7083 195.732 55.0341C195.391 54.3598 195.221 53.572 195.221 52.6705C195.221 51.7689 195.391 50.9792 195.732 50.3011C196.077 49.6231 196.562 49.0966 197.187 48.7216C197.812 48.3466 198.55 48.1591 199.403 48.1591C200.255 48.1591 200.994 48.3466 201.619 48.7216C202.244 49.0966 202.727 49.6231 203.067 50.3011C203.412 50.9792 203.585 51.7689 203.585 52.6705C203.585 53.572 203.412 54.3598 203.067 55.0341C202.727 55.7083 202.244 56.233 201.619 56.608C200.994 56.983 200.255 57.1705 199.403 57.1705ZM199.414 55.5227C199.876 55.5227 200.263 55.3958 200.573 55.142C200.884 54.8845 201.115 54.5398 201.266 54.108C201.422 53.6761 201.499 53.1951 201.499 52.6648C201.499 52.1307 201.422 51.6477 201.266 51.2159C201.115 50.7803 200.884 50.4337 200.573 50.1761C200.263 49.9186 199.876 49.7898 199.414 49.7898C198.941 49.7898 198.547 49.9186 198.232 50.1761C197.922 50.4337 197.689 50.7803 197.533 51.2159C197.382 51.6477 197.306 52.1307 197.306 52.6648C197.306 53.1951 197.382 53.6761 197.533 54.108C197.689 54.5398 197.922 54.8845 198.232 55.142C198.547 55.3958 198.941 55.5227 199.414 55.5227ZM207.387 51.8864V57H205.33V48.2727H207.296V49.7557H207.398C207.599 49.267 207.919 48.8788 208.359 48.5909C208.802 48.303 209.349 48.1591 210.001 48.1591C210.603 48.1591 211.128 48.2879 211.575 48.5455C212.025 48.803 212.374 49.1761 212.62 49.6648C212.87 50.1534 212.993 50.7462 212.989 51.4432V57H210.933V51.7614C210.933 51.178 210.781 50.7216 210.478 50.392C210.179 50.0625 209.764 49.8977 209.234 49.8977C208.874 49.8977 208.554 49.9773 208.273 50.1364C207.997 50.2917 207.779 50.517 207.62 50.8125C207.465 51.108 207.387 51.4659 207.387 51.8864ZM218.944 57.1705C218.069 57.1705 217.313 56.9886 216.677 56.625C216.044 56.2576 215.558 55.7386 215.217 55.0682C214.876 54.3939 214.705 53.6004 214.705 52.6875C214.705 51.7898 214.876 51.0019 215.217 50.3239C215.561 49.642 216.042 49.1117 216.66 48.733C217.277 48.3504 218.003 48.1591 218.836 48.1591C219.374 48.1591 219.881 48.2462 220.359 48.4205C220.84 48.5909 221.264 48.8561 221.631 49.2159C222.003 49.5758 222.294 50.0341 222.506 50.5909C222.719 51.1439 222.825 51.803 222.825 52.5682V53.1989H215.671V51.8125H220.853C220.849 51.4186 220.764 51.0682 220.597 50.7614C220.431 50.4508 220.198 50.2064 219.898 50.0284C219.603 49.8504 219.258 49.7614 218.864 49.7614C218.444 49.7614 218.075 49.8636 217.756 50.0682C217.438 50.2689 217.19 50.5341 217.012 50.8636C216.838 51.1894 216.749 51.5473 216.745 51.9375V53.1477C216.745 53.6553 216.838 54.0909 217.023 54.4545C217.209 54.8144 217.469 55.0909 217.802 55.2841C218.135 55.4735 218.525 55.5682 218.972 55.5682C219.272 55.5682 219.542 55.5265 219.785 55.4432C220.027 55.3561 220.237 55.2292 220.415 55.0625C220.594 54.8958 220.728 54.6894 220.819 54.4432L222.739 54.6591C222.618 55.1667 222.387 55.6098 222.046 55.9886C221.709 56.3636 221.277 56.6553 220.751 56.8636C220.224 57.0682 219.622 57.1705 218.944 57.1705Z" fill="white"/>
</g>
<defs>
<filter id="filter0_d_2091_8232" x="0" y="0" width="406" height="104" filterUnits="userSpaceOnUse" color-interpolation-filters="sRGB">
<feFlood flood-opacity="0" result="BackgroundImageFix"/>
<feColorMatrix in="SourceAlpha" type="matrix" values="0 0 0 0 0 0 0 0 0 0 0 0 0 0 0 0 0 0 127 0" result="hardAlpha"/>
<feOffset/>
<feGaussianBlur stdDeviation="12"/>
<feComposite in2="hardAlpha" operator="out"/>
<feColorMatrix type="matrix" values="0 0 0 0 0.345098 0 0 0 0 0.294118 0 0 0 0 0.921569 0 0 0 0.3 0"/>
<feBlend mode="normal" in2="BackgroundImageFix" result="effect1_dropShadow_2091_8232"/>
<feBlend mode="normal" in="SourceGraphic" in2="effect1_dropShadow_2091_8232" result="shape"/>
</filter>
<linearGradient id="paint0_linear_2091_8232" x1="24" y1="24" x2="41.1011" y2="133.325" gradientUnits="userSpaceOnUse">
<stop stop-color="#584BEB"/>
<stop offset="1" stop-color="#4A3DE0"/>
</linearGradient>
</defs>
</svg>
