<svg width="350" height="49" viewBox="0 0 350 49" fill="none" xmlns="http://www.w3.org/2000/svg">
<mask id="path-1-inside-1_2091_8806" fill="white">
<path d="M0 14C0 6.26801 6.26801 0 14 0H336C343.732 0 350 6.26801 350 14V34.5C350 42.232 343.732 48.5 336 48.5H14C6.26802 48.5 0 42.232 0 34.5V14Z"/>
</mask>
<path d="M0 14C0 6.26801 6.26801 0 14 0H336C343.732 0 350 6.26801 350 14V34.5C350 42.232 343.732 48.5 336 48.5H14C6.26802 48.5 0 42.232 0 34.5V14Z" fill="#1A1A29"/>
<path d="M14 0V1H336V0V-1H14V0ZM350 14H349V34.5H350H351V14H350ZM336 48.5V47.5H14V48.5V49.5H336V48.5ZM0 34.5H1V14H0H-1V34.5H0ZM14 48.5V47.5C6.82031 47.5 1 41.6797 1 34.5H0H-1C-1 42.7843 5.71574 49.5 14 49.5V48.5ZM350 34.5H349C349 41.6797 343.18 47.5 336 47.5V48.5V49.5C344.284 49.5 351 42.7843 351 34.5H350ZM336 0V1C343.18 1 349 6.8203 349 14H350H351C351 5.71573 344.284 -1 336 -1V0ZM14 0V-1C5.71573 -1 -1 5.71573 -1 14H0H1C1 6.8203 6.8203 1 14 1V0Z" fill="#584BEB" mask="url(#path-1-inside-1_2091_8806)"/>
<path d="M24.3333 28.9167C27.2789 28.9167 29.6667 26.5289 29.6667 23.5833C29.6667 20.6378 27.2789 18.25 24.3333 18.25C21.3878 18.25 19 20.6378 19 23.5833C19 26.5289 21.3878 28.9167 24.3333 28.9167Z" stroke="#87878C" stroke-width="1.33333" stroke-linecap="round" stroke-linejoin="round"/>
<path d="M31 30.25L28.1333 27.3833" stroke="#87878C" stroke-width="1.33333" stroke-linecap="round" stroke-linejoin="round"/>
<g clip-path="url(#clip0_2091_8806)">
<path d="M46.7685 29.25H45.3835L49.3892 18.3409H50.7528L54.7585 29.25H53.3736L50.1136 20.0668H50.0284L46.7685 29.25ZM47.2798 24.9886H52.8622V26.1605H47.2798V24.9886ZM59.3768 29.4205C58.695 29.4205 58.093 29.2482 57.571 28.9038C57.049 28.5558 56.6406 28.0657 56.3459 27.4336C56.0511 26.7979 55.9038 26.0469 55.9038 25.1804C55.9038 24.321 56.0511 23.5753 56.3459 22.9432C56.6406 22.3111 57.0508 21.8228 57.5763 21.4783C58.1019 21.1339 58.7092 20.9616 59.3981 20.9616C59.9308 20.9616 60.3516 21.0504 60.6605 21.228C60.973 21.402 61.2109 21.6009 61.3743 21.8246C61.5412 22.0447 61.6708 22.2259 61.7631 22.3679H61.8697V18.3409H63.1268V29.25H61.9123V27.9929H61.7631C61.6708 28.142 61.5394 28.3303 61.369 28.5575C61.1985 28.7812 60.9553 28.9819 60.6392 29.1594C60.3232 29.3335 59.9023 29.4205 59.3768 29.4205ZM59.5472 28.2912C60.0515 28.2912 60.4776 28.1598 60.8256 27.897C61.1737 27.6307 61.4382 27.2631 61.6193 26.7944C61.8004 26.3221 61.891 25.777 61.891 25.1591C61.891 24.5483 61.8022 24.0138 61.6246 23.5558C61.4471 23.0941 61.1843 22.7354 60.8363 22.4798C60.4883 22.2205 60.0586 22.0909 59.5472 22.0909C59.0146 22.0909 58.5707 22.2276 58.2156 22.5011C57.864 22.771 57.5994 23.1385 57.4219 23.6037C57.2479 24.0653 57.1609 24.5838 57.1609 25.1591C57.1609 25.7415 57.2496 26.2706 57.4272 26.7464C57.6083 27.2187 57.8746 27.5952 58.2262 27.8757C58.5813 28.1527 59.0217 28.2912 59.5472 28.2912ZM68.6932 29.4205C68.0114 29.4205 67.4094 29.2482 66.8874 28.9038C66.3654 28.5558 65.957 28.0657 65.6623 27.4336C65.3675 26.7979 65.2202 26.0469 65.2202 25.1804C65.2202 24.321 65.3675 23.5753 65.6623 22.9432C65.957 22.3111 66.3672 21.8228 66.8928 21.4783C67.4183 21.1339 68.0256 20.9616 68.7145 20.9616C69.2472 20.9616 69.668 21.0504 69.9769 21.228C70.2894 21.402 70.5273 21.6009 70.6907 21.8246C70.8576 22.0447 70.9872 22.2259 71.0795 22.3679H71.1861V18.3409H72.4432V29.25H71.2287V27.9929H71.0795C70.9872 28.142 70.8558 28.3303 70.6854 28.5575C70.5149 28.7812 70.2717 28.9819 69.9556 29.1594C69.6396 29.3335 69.2188 29.4205 68.6932 29.4205ZM68.8636 28.2912C69.3679 28.2912 69.794 28.1598 70.142 27.897C70.4901 27.6307 70.7546 27.2631 70.9357 26.7944C71.1168 26.3221 71.2074 25.777 71.2074 25.1591C71.2074 24.5483 71.1186 24.0138 70.9411 23.5558C70.7635 23.0941 70.5007 22.7354 70.1527 22.4798C69.8047 22.2205 69.375 22.0909 68.8636 22.0909C68.331 22.0909 67.8871 22.2276 67.532 22.5011C67.1804 22.771 66.9158 23.1385 66.7383 23.6037C66.5643 24.0653 66.4773 24.5838 66.4773 25.1591C66.4773 25.7415 66.5661 26.2706 66.7436 26.7464C66.9247 27.2187 67.1911 27.5952 67.5426 27.8757C67.8977 28.1527 68.3381 28.2912 68.8636 28.2912ZM74.9201 29.25V21.0682H76.1346V22.304H76.2198C76.369 21.8991 76.6388 21.5707 77.0295 21.3185C77.4201 21.0664 77.8604 20.9403 78.3505 20.9403C78.4428 20.9403 78.5582 20.9421 78.6967 20.9457C78.8352 20.9492 78.94 20.9545 79.011 20.9616V22.2401C78.9684 22.2294 78.8707 22.2134 78.718 22.1921C78.5689 22.1673 78.4109 22.1548 78.244 22.1548C77.8462 22.1548 77.4911 22.2383 77.1786 22.4052C76.8697 22.5685 76.6246 22.7958 76.4435 23.087C76.266 23.3746 76.1772 23.7031 76.1772 24.0724V29.25H74.9201ZM83.6825 29.4205C82.8942 29.4205 82.2141 29.2464 81.6424 28.8984C81.0742 28.5469 80.6357 28.0568 80.3267 27.4283C80.0213 26.7962 79.8686 26.0611 79.8686 25.223C79.8686 24.3849 80.0213 23.6463 80.3267 23.0071C80.6357 22.3643 81.0653 21.8636 81.6158 21.505C82.1697 21.1428 82.8161 20.9616 83.5547 20.9616C83.9808 20.9616 84.4016 21.0327 84.8171 21.1747C85.2326 21.3168 85.6108 21.5476 85.9517 21.8672C86.2926 22.1832 86.5643 22.6023 86.7667 23.1243C86.9691 23.6463 87.0703 24.2891 87.0703 25.0526V25.5852H80.7635V24.4986H85.7919C85.7919 24.0369 85.6996 23.625 85.5149 23.2628C85.3338 22.9006 85.0746 22.6147 84.7372 22.4052C84.4034 22.1957 84.0092 22.0909 83.5547 22.0909C83.054 22.0909 82.6207 22.2152 82.255 22.4638C81.8928 22.7088 81.614 23.0284 81.4187 23.4226C81.2234 23.8168 81.1257 24.2393 81.1257 24.6903V25.4148C81.1257 26.0327 81.2322 26.5565 81.4453 26.9862C81.6619 27.4123 81.962 27.7372 82.3455 27.9609C82.729 28.1811 83.1747 28.2912 83.6825 28.2912C84.0128 28.2912 84.3111 28.245 84.5774 28.1527C84.8473 28.0568 85.0799 27.9148 85.2752 27.7266C85.4705 27.5348 85.6214 27.2969 85.728 27.0128L86.9425 27.3537C86.8146 27.7656 86.5998 28.1278 86.2979 28.4403C85.9961 28.7493 85.6232 28.9908 85.1793 29.1648C84.7354 29.3352 84.2365 29.4205 83.6825 29.4205ZM94.7781 22.9006L93.6488 23.2202C93.5778 23.032 93.473 22.8491 93.3345 22.6715C93.1996 22.4904 93.0149 22.3413 92.7805 22.2241C92.5462 22.1069 92.2461 22.0483 91.8803 22.0483C91.3796 22.0483 90.9624 22.1637 90.6286 22.3945C90.2983 22.6218 90.1332 22.9112 90.1332 23.2628C90.1332 23.5753 90.2468 23.8221 90.4741 24.0032C90.7013 24.1843 91.0565 24.3352 91.5394 24.456L92.7539 24.7543C93.4854 24.9318 94.0305 25.2035 94.3892 25.5692C94.7479 25.9315 94.9272 26.3984 94.9272 26.9702C94.9272 27.4389 94.7923 27.858 94.5224 28.2273C94.256 28.5966 93.8832 28.8878 93.4038 29.1009C92.9244 29.3139 92.3668 29.4205 91.7312 29.4205C90.8967 29.4205 90.206 29.2393 89.6591 28.8771C89.1122 28.5149 88.766 27.9858 88.6204 27.2898L89.8136 26.9915C89.9272 27.4318 90.142 27.7621 90.4581 27.9822C90.7777 28.2024 91.195 28.3125 91.7099 28.3125C92.2958 28.3125 92.761 28.1882 93.1055 27.9396C93.4535 27.6875 93.6275 27.3857 93.6275 27.0341C93.6275 26.75 93.5281 26.5121 93.3292 26.3203C93.1303 26.125 92.8249 25.9794 92.413 25.8835L91.0494 25.5639C90.3001 25.3864 89.7496 25.1112 89.3981 24.7383C89.0501 24.3619 88.8761 23.8913 88.8761 23.3267C88.8761 22.8651 89.0057 22.4567 89.2649 22.1016C89.5277 21.7464 89.8846 21.4677 90.3356 21.2653C90.7901 21.0629 91.305 20.9616 91.8803 20.9616C92.69 20.9616 93.3256 21.1392 93.7873 21.4943C94.2525 21.8494 94.5827 22.3182 94.7781 22.9006ZM102.615 22.9006L101.486 23.2202C101.415 23.032 101.31 22.8491 101.171 22.6715C101.036 22.4904 100.852 22.3413 100.617 22.2241C100.383 22.1069 100.083 22.0483 99.7172 22.0483C99.2165 22.0483 98.7993 22.1637 98.4655 22.3945C98.1352 22.6218 97.9701 22.9112 97.9701 23.2628C97.9701 23.5753 98.0837 23.8221 98.311 24.0032C98.5383 24.1843 98.8934 24.3352 99.3763 24.456L100.591 24.7543C101.322 24.9318 101.867 25.2035 102.226 25.5692C102.585 25.9315 102.764 26.3984 102.764 26.9702C102.764 27.4389 102.629 27.858 102.359 28.2273C102.093 28.5966 101.72 28.8878 101.241 29.1009C100.761 29.3139 100.204 29.4205 99.5681 29.4205C98.7336 29.4205 98.0429 29.2393 97.496 28.8771C96.9491 28.5149 96.6029 27.9858 96.4573 27.2898L97.6505 26.9915C97.7641 27.4318 97.979 27.7621 98.295 27.9822C98.6146 28.2024 99.0319 28.3125 99.5468 28.3125C100.133 28.3125 100.598 28.1882 100.942 27.9396C101.29 27.6875 101.464 27.3857 101.464 27.0341C101.464 26.75 101.365 26.5121 101.166 26.3203C100.967 26.125 100.662 25.9794 100.25 25.8835L98.8863 25.5639C98.137 25.3864 97.5866 25.1112 97.235 24.7383C96.887 24.3619 96.713 23.8913 96.713 23.3267C96.713 22.8651 96.8426 22.4567 97.1018 22.1016C97.3646 21.7464 97.7215 21.4677 98.1725 21.2653C98.627 21.0629 99.142 20.9616 99.7172 20.9616C100.527 20.9616 101.163 21.1392 101.624 21.4943C102.089 21.8494 102.42 22.3182 102.615 22.9006ZM106.531 27.7585L106.446 28.3338C106.386 28.7386 106.294 29.1719 106.169 29.6335C106.048 30.0952 105.922 30.5302 105.791 30.9386C105.66 31.3469 105.551 31.6719 105.466 31.9134H104.507C104.553 31.6861 104.614 31.386 104.688 31.0131C104.763 30.6403 104.838 30.223 104.912 29.7614C104.99 29.3033 105.054 28.8345 105.104 28.3551L105.168 27.7585H106.531ZM113.25 29.25V18.3409H119.834V19.5128H114.571V23.1989H119.493V24.3707H114.571V28.0781H119.919V29.25H113.25ZM130.865 18.3409V29.25H129.587L123.642 20.6847H123.536V29.25H122.215V18.3409H123.493L129.459 26.9276H129.565V18.3409H130.865ZM139.474 21.0682C139.411 20.5284 139.151 20.1094 138.697 19.8111C138.242 19.5128 137.685 19.3636 137.024 19.3636C136.541 19.3636 136.119 19.4418 135.756 19.598C135.398 19.7543 135.117 19.9691 134.915 20.2425C134.716 20.516 134.616 20.8267 134.616 21.1747C134.616 21.4659 134.686 21.7163 134.824 21.9258C134.966 22.1317 135.147 22.304 135.368 22.4425C135.588 22.5774 135.819 22.6893 136.06 22.7781C136.301 22.8633 136.523 22.9325 136.726 22.9858L137.834 23.2841C138.118 23.3587 138.434 23.4616 138.782 23.593C139.134 23.7244 139.469 23.9038 139.789 24.131C140.112 24.3548 140.378 24.6424 140.588 24.994C140.797 25.3455 140.902 25.777 140.902 26.2884C140.902 26.8778 140.748 27.4105 140.439 27.8864C140.133 28.3622 139.686 28.7404 139.096 29.021C138.51 29.3015 137.798 29.4418 136.96 29.4418C136.179 29.4418 135.502 29.3157 134.931 29.0636C134.363 28.8114 133.915 28.4599 133.588 28.0089C133.265 27.5579 133.082 27.0341 133.04 26.4375H134.403C134.439 26.8494 134.577 27.1903 134.819 27.4602C135.064 27.7266 135.373 27.9254 135.746 28.0568C136.122 28.1847 136.527 28.2486 136.96 28.2486C137.464 28.2486 137.917 28.1669 138.319 28.0036C138.72 27.8366 139.038 27.6058 139.272 27.3111C139.506 27.0128 139.624 26.6648 139.624 26.267C139.624 25.9048 139.522 25.6101 139.32 25.3828C139.118 25.1555 138.851 24.9709 138.521 24.8288C138.191 24.6868 137.834 24.5625 137.45 24.456L136.108 24.0724C135.256 23.8274 134.581 23.4776 134.084 23.0231C133.587 22.5685 133.338 21.9737 133.338 21.2386C133.338 20.6278 133.503 20.0952 133.833 19.6406C134.167 19.1825 134.615 18.8274 135.176 18.5753C135.74 18.3196 136.371 18.1918 137.067 18.1918C137.77 18.1918 138.395 18.3178 138.942 18.57C139.489 18.8185 139.922 19.1594 140.241 19.5927C140.565 20.0259 140.735 20.5178 140.753 21.0682H139.474ZM144.778 27.7585L144.693 28.3338C144.633 28.7386 144.541 29.1719 144.416 29.6335C144.296 30.0952 144.169 30.5302 144.038 30.9386C143.907 31.3469 143.798 31.6719 143.713 31.9134H142.754C142.801 31.6861 142.861 31.386 142.935 31.0131C143.01 30.6403 143.085 30.223 143.159 29.7614C143.237 29.3033 143.301 28.8345 143.351 28.3551L143.415 27.7585H144.778ZM154.65 29.4205C153.912 29.4205 153.263 29.2447 152.706 28.8931C152.152 28.5415 151.719 28.0497 151.406 27.4176C151.097 26.7855 150.943 26.0469 150.943 25.2017C150.943 24.3494 151.097 23.6055 151.406 22.9698C151.719 22.3342 152.152 21.8406 152.706 21.489C153.263 21.1374 153.912 20.9616 154.65 20.9616C155.389 20.9616 156.035 21.1374 156.589 21.489C157.147 21.8406 157.58 22.3342 157.889 22.9698C158.201 23.6055 158.358 24.3494 158.358 25.2017C158.358 26.0469 158.201 26.7855 157.889 27.4176C157.58 28.0497 157.147 28.5415 156.589 28.8931C156.035 29.2447 155.389 29.4205 154.65 29.4205ZM154.65 28.2912C155.211 28.2912 155.673 28.1474 156.035 27.8597C156.397 27.5721 156.665 27.1939 156.839 26.7251C157.013 26.2564 157.1 25.7486 157.1 25.2017C157.1 24.6548 157.013 24.1452 156.839 23.6729C156.665 23.2006 156.397 22.8189 156.035 22.5277C155.673 22.2365 155.211 22.0909 154.65 22.0909C154.089 22.0909 153.627 22.2365 153.265 22.5277C152.903 22.8189 152.635 23.2006 152.461 23.6729C152.287 24.1452 152.2 24.6548 152.2 25.2017C152.2 25.7486 152.287 26.2564 152.461 26.7251C152.635 27.1939 152.903 27.5721 153.265 27.8597C153.627 28.1474 154.089 28.2912 154.65 28.2912ZM160.277 29.25V21.0682H161.491V22.304H161.576C161.725 21.8991 161.995 21.5707 162.386 21.3185C162.777 21.0664 163.217 20.9403 163.707 20.9403C163.799 20.9403 163.915 20.9421 164.053 20.9457C164.192 20.9492 164.296 20.9545 164.367 20.9616V22.2401C164.325 22.2294 164.227 22.2134 164.074 22.1921C163.925 22.1673 163.767 22.1548 163.6 22.1548C163.203 22.1548 162.848 22.2383 162.535 22.4052C162.226 22.5685 161.981 22.7958 161.8 23.087C161.622 23.3746 161.534 23.7031 161.534 24.0724V29.25H160.277ZM175.233 25.9048V21.0682H176.49V29.25H175.233V27.8651H175.147C174.956 28.2805 174.657 28.6339 174.252 28.9251C173.848 29.2127 173.336 29.3565 172.718 29.3565C172.207 29.3565 171.752 29.2447 171.355 29.021C170.957 28.7937 170.645 28.4528 170.417 27.9982C170.19 27.5401 170.076 26.9631 170.076 26.267V21.0682H171.333V26.1818C171.333 26.7784 171.5 27.2543 171.834 27.6094C172.172 27.9645 172.601 28.142 173.123 28.142C173.436 28.142 173.754 28.0621 174.077 27.9023C174.403 27.7425 174.677 27.4975 174.897 27.1673C175.121 26.837 175.233 26.4162 175.233 25.9048ZM184.588 22.9006L183.458 23.2202C183.387 23.032 183.283 22.8491 183.144 22.6715C183.009 22.4904 182.824 22.3413 182.59 22.2241C182.356 22.1069 182.056 22.0483 181.69 22.0483C181.189 22.0483 180.772 22.1637 180.438 22.3945C180.108 22.6218 179.943 22.9112 179.943 23.2628C179.943 23.5753 180.056 23.8221 180.284 24.0032C180.511 24.1843 180.866 24.3352 181.349 24.456L182.563 24.7543C183.295 24.9318 183.84 25.2035 184.199 25.5692C184.557 25.9315 184.737 26.3984 184.737 26.9702C184.737 27.4389 184.602 27.858 184.332 28.2273C184.066 28.5966 183.693 28.8878 183.213 29.1009C182.734 29.3139 182.176 29.4205 181.541 29.4205C180.706 29.4205 180.016 29.2393 179.469 28.8771C178.922 28.5149 178.576 27.9858 178.43 27.2898L179.623 26.9915C179.737 27.4318 179.952 27.7621 180.268 27.9822C180.587 28.2024 181.005 28.3125 181.519 28.3125C182.105 28.3125 182.571 28.1882 182.915 27.9396C183.263 27.6875 183.437 27.3857 183.437 27.0341C183.437 26.75 183.338 26.5121 183.139 26.3203C182.94 26.125 182.634 25.9794 182.223 25.8835L180.859 25.5639C180.11 25.3864 179.559 25.1112 179.208 24.7383C178.86 24.3619 178.686 23.8913 178.686 23.3267C178.686 22.8651 178.815 22.4567 179.074 22.1016C179.337 21.7464 179.694 21.4677 180.145 21.2653C180.6 21.0629 181.115 20.9616 181.69 20.9616C182.5 20.9616 183.135 21.1392 183.597 21.4943C184.062 21.8494 184.392 22.3182 184.588 22.9006ZM190.059 29.4205C189.271 29.4205 188.591 29.2464 188.019 28.8984C187.451 28.5469 187.013 28.0568 186.704 27.4283C186.398 26.7962 186.246 26.0611 186.246 25.223C186.246 24.3849 186.398 23.6463 186.704 23.0071C187.013 22.3643 187.442 21.8636 187.993 21.505C188.547 21.1428 189.193 20.9616 189.932 20.9616C190.358 20.9616 190.779 21.0327 191.194 21.1747C191.61 21.3168 191.988 21.5476 192.329 21.8672C192.67 22.1832 192.941 22.6023 193.144 23.1243C193.346 23.6463 193.447 24.2891 193.447 25.0526V25.5852H187.14V24.4986H192.169C192.169 24.0369 192.077 23.625 191.892 23.2628C191.711 22.9006 191.452 22.6147 191.114 22.4052C190.78 22.1957 190.386 22.0909 189.932 22.0909C189.431 22.0909 188.998 22.2152 188.632 22.4638C188.27 22.7088 187.991 23.0284 187.796 23.4226C187.6 23.8168 187.503 24.2393 187.503 24.6903V25.4148C187.503 26.0327 187.609 26.5565 187.822 26.9862C188.039 27.4123 188.339 27.7372 188.722 27.9609C189.106 28.1811 189.552 28.2912 190.059 28.2912C190.39 28.2912 190.688 28.245 190.954 28.1527C191.224 28.0568 191.457 27.9148 191.652 27.7266C191.847 27.5348 191.998 27.2969 192.105 27.0128L193.319 27.3537C193.192 27.7656 192.977 28.1278 192.675 28.4403C192.373 28.7493 192 28.9908 191.556 29.1648C191.112 29.3352 190.613 29.4205 190.059 29.4205ZM195.36 29.25V21.0682H196.574V22.304H196.659C196.808 21.8991 197.078 21.5707 197.469 21.3185C197.86 21.0664 198.3 20.9403 198.79 20.9403C198.882 20.9403 198.998 20.9421 199.136 20.9457C199.275 20.9492 199.379 20.9545 199.45 20.9616V22.2401C199.408 22.2294 199.31 22.2134 199.157 22.1921C199.008 22.1673 198.85 22.1548 198.683 22.1548C198.286 22.1548 197.931 22.2383 197.618 22.4052C197.309 22.5685 197.064 22.7958 196.883 23.087C196.705 23.3746 196.617 23.7031 196.617 24.0724V29.25H195.36ZM202.198 24.3281V29.25H200.941V21.0682H202.155V22.3466H202.262C202.453 21.9311 202.745 21.5973 203.135 21.3452C203.526 21.0895 204.03 20.9616 204.648 20.9616C205.202 20.9616 205.687 21.0753 206.102 21.3026C206.518 21.5263 206.841 21.8672 207.072 22.3253C207.302 22.7798 207.418 23.3551 207.418 24.0511V29.25H206.161V24.1364C206.161 23.4936 205.994 22.9929 205.66 22.6342C205.326 22.272 204.868 22.0909 204.286 22.0909C203.884 22.0909 203.526 22.1779 203.21 22.3519C202.897 22.5259 202.65 22.7798 202.469 23.1136C202.288 23.4474 202.198 23.8523 202.198 24.3281ZM212.123 29.4418C211.604 29.4418 211.134 29.3441 210.711 29.1488C210.289 28.9499 209.953 28.6641 209.704 28.2912C209.456 27.9148 209.331 27.4602 209.331 26.9276C209.331 26.4588 209.424 26.0788 209.608 25.7876C209.793 25.4929 210.04 25.2621 210.349 25.0952C210.658 24.9283 210.999 24.804 211.372 24.7223C211.748 24.6371 212.126 24.5696 212.506 24.5199C213.003 24.456 213.406 24.408 213.715 24.3761C214.028 24.3406 214.255 24.282 214.397 24.2003C214.543 24.1186 214.616 23.9766 214.616 23.7741V23.7315C214.616 23.206 214.472 22.7976 214.184 22.5064C213.9 22.2152 213.469 22.0696 212.89 22.0696C212.29 22.0696 211.819 22.201 211.478 22.4638C211.137 22.7266 210.898 23.0071 210.759 23.3054L209.566 22.8793C209.779 22.3821 210.063 21.995 210.418 21.718C210.777 21.4375 211.167 21.2422 211.59 21.1321C212.016 21.0185 212.435 20.9616 212.847 20.9616C213.11 20.9616 213.412 20.9936 213.753 21.0575C214.097 21.1179 214.429 21.244 214.749 21.4357C215.072 21.6275 215.34 21.9169 215.553 22.304C215.766 22.6911 215.873 23.2095 215.873 23.8594V29.25H214.616V28.142H214.552C214.466 28.3196 214.324 28.5096 214.126 28.712C213.927 28.9144 213.662 29.0866 213.332 29.2287C213.002 29.3707 212.599 29.4418 212.123 29.4418ZM212.314 28.3125C212.812 28.3125 213.231 28.2148 213.572 28.0195C213.916 27.8242 214.175 27.5721 214.349 27.2631C214.527 26.9542 214.616 26.6293 214.616 26.2884V25.1378C214.562 25.2017 214.445 25.2603 214.264 25.3136C214.086 25.3633 213.881 25.4077 213.646 25.4467C213.415 25.4822 213.19 25.5142 212.97 25.5426C212.753 25.5675 212.577 25.5888 212.442 25.6065C212.116 25.6491 211.81 25.7184 211.526 25.8143C211.246 25.9066 211.018 26.0469 210.844 26.2351C210.674 26.4197 210.589 26.6719 210.589 26.9915C210.589 27.4283 210.75 27.7585 211.073 27.9822C211.4 28.2024 211.814 28.3125 212.314 28.3125ZM218.167 29.25V21.0682H219.382V22.3466H219.488C219.659 21.9098 219.934 21.5707 220.314 21.3292C220.694 21.0842 221.15 20.9616 221.683 20.9616C222.223 20.9616 222.672 21.0842 223.03 21.3292C223.393 21.5707 223.675 21.9098 223.877 22.3466H223.963C224.172 21.924 224.486 21.5884 224.905 21.3398C225.324 21.0877 225.827 20.9616 226.413 20.9616C227.144 20.9616 227.743 21.1907 228.208 21.6488C228.673 22.1033 228.906 22.8118 228.906 23.7741V29.25H227.649V23.7741C227.649 23.1705 227.484 22.739 227.153 22.4798C226.823 22.2205 226.434 22.0909 225.987 22.0909C225.411 22.0909 224.966 22.2649 224.65 22.6129C224.334 22.9574 224.176 23.3942 224.176 23.9233V29.25H222.897V23.6463C222.897 23.1811 222.746 22.8065 222.445 22.5224C222.143 22.2347 221.754 22.0909 221.278 22.0909C220.951 22.0909 220.646 22.1779 220.362 22.3519C220.081 22.5259 219.854 22.7674 219.68 23.0763C219.509 23.3817 219.424 23.7351 219.424 24.1364V29.25H218.167ZM234.635 29.4205C233.846 29.4205 233.166 29.2464 232.595 28.8984C232.026 28.5469 231.588 28.0568 231.279 27.4283C230.973 26.7962 230.821 26.0611 230.821 25.223C230.821 24.3849 230.973 23.6463 231.279 23.0071C231.588 22.3643 232.017 21.8636 232.568 21.505C233.122 21.1428 233.768 20.9616 234.507 20.9616C234.933 20.9616 235.354 21.0327 235.769 21.1747C236.185 21.3168 236.563 21.5476 236.904 21.8672C237.245 22.1832 237.516 22.6023 237.719 23.1243C237.921 23.6463 238.022 24.2891 238.022 25.0526V25.5852H231.716V24.4986H236.744C236.744 24.0369 236.652 23.625 236.467 23.2628C236.286 22.9006 236.027 22.6147 235.689 22.4052C235.356 22.1957 234.961 22.0909 234.507 22.0909C234.006 22.0909 233.573 22.2152 233.207 22.4638C232.845 22.7088 232.566 23.0284 232.371 23.4226C232.176 23.8168 232.078 24.2393 232.078 24.6903V25.4148C232.078 26.0327 232.184 26.5565 232.397 26.9862C232.614 27.4123 232.914 27.7372 233.298 27.9609C233.681 28.1811 234.127 28.2912 234.635 28.2912C234.965 28.2912 235.263 28.245 235.53 28.1527C235.799 28.0568 236.032 27.9148 236.227 27.7266C236.423 27.5348 236.574 27.2969 236.68 27.0128L237.895 27.3537C237.767 27.7656 237.552 28.1278 237.25 28.4403C236.948 28.7493 236.575 28.9908 236.131 29.1648C235.688 29.3352 235.189 29.4205 234.635 29.4205Z" fill="#F5F5F6" fill-opacity="0.5"/>
</g>
<path d="M317.25 20.5V19C317.25 18.6022 317.408 18.2206 317.689 17.9393C317.971 17.658 318.352 17.5 318.75 17.5H320.25" stroke="#87878C" stroke-width="1.5" stroke-linecap="round" stroke-linejoin="round"/>
<path d="M327.75 17.5H329.25C329.648 17.5 330.029 17.658 330.311 17.9393C330.592 18.2206 330.75 18.6022 330.75 19V20.5" stroke="#87878C" stroke-width="1.5" stroke-linecap="round" stroke-linejoin="round"/>
<path d="M330.75 28V29.5C330.75 29.8978 330.592 30.2794 330.311 30.5607C330.029 30.842 329.648 31 329.25 31H327.75" stroke="#87878C" stroke-width="1.5" stroke-linecap="round" stroke-linejoin="round"/>
<path d="M320.25 31H318.75C318.352 31 317.971 30.842 317.689 30.5607C317.408 30.2794 317.25 29.8978 317.25 29.5V28" stroke="#87878C" stroke-width="1.5" stroke-linecap="round" stroke-linejoin="round"/>
<path d="M320.25 24.25H327.75" stroke="#87878C" stroke-width="1.5" stroke-linecap="round" stroke-linejoin="round"/>
<defs>
<clipPath id="clip0_2091_8806">
<rect width="258" height="22.5" fill="white" transform="translate(45 13)"/>
</clipPath>
</defs>
</svg>
